{"glyphs":{"0":{"ha":893,"x_min":0,"x_max":719,"o":"m 719 535 q 656 278 719 404 q 471 68 589 149 q 304 -4 369 -4 q 201 26 269 -4 q 43 210 94 72 q 0 444 0 317 q 89 786 0 633 q 401 975 200 975 q 660 822 582 975 q 719 535 719 710 m 606 444 q 539 721 606 604 q 288 875 454 875 q 143 731 190 875 q 107 517 107 628 q 182 260 107 382 q 417 114 274 114 q 606 444 606 114 z "},"1":{"ha":539,"x_min":0,"x_max":365,"o":"m 365 56 q 289 -3 329 14 q 186 -40 272 -8 q 214 244 214 156 l 214 722 q 156 878 214 878 q 85 853 151 878 q 0 825 19 829 q 365 1006 65 881 l 365 56 z "},"2":{"ha":935,"x_min":0,"x_max":761,"o":"m 761 118 q 693 44 749 90 q 614 -6 638 -6 l 0 -3 q 319 300 236 206 q 518 685 518 521 q 460 831 518 775 q 314 888 401 888 q 199 854 239 888 q 113 796 138 806 q 255 939 156 875 q 438 1003 354 1003 q 585 942 529 1003 q 642 781 642 881 q 544 499 642 636 q 356 290 501 436 q 229 111 247 182 l 761 118 z "},"3":{"ha":782,"x_min":0,"x_max":608,"o":"m 608 303 q 315 10 608 104 q 174 -28 204 -28 q 84 2 151 -28 q 0 47 17 32 q 108 104 51 94 q 324 54 265 54 q 431 110 372 54 q 490 215 490 167 q 307 472 490 406 q 146 522 300 475 l 335 621 q 383 686 365 638 q 403 765 403 728 q 217 928 403 928 q 121 907 156 928 q 40 864 46 867 q 189 972 86 926 q 368 1011 286 1011 q 486 954 435 1011 q 538 829 538 897 q 489 711 538 761 q 394 640 461 682 q 338 588 342 607 q 419 558 357 576 q 557 463 506 529 q 608 303 608 397 z "},"4":{"ha":1075,"x_min":0,"x_max":901,"o":"m 901 319 q 768 244 836 261 q 615 231 721 231 l 615 157 l 617 82 q 597 7 617 24 q 528 -32 561 -14 l 490 -32 l 490 231 q 33 249 285 231 q 0 229 22 249 l 0 261 q 88 404 18 317 q 188 531 122 447 q 374 814 249 625 q 625 1018 489 978 l 625 346 q 643 313 625 317 q 688 310 651 310 q 901 319 760 310 m 490 328 l 490 822 l 140 349 l 150 349 l 150 329 q 181 342 168 342 q 242 336 199 342 q 304 331 279 331 l 490 328 z "},"5":{"ha":893,"x_min":0,"x_max":719,"o":"m 719 972 q 655 923 696 946 q 581 900 614 900 l 365 900 q 318 921 338 921 q 301 917 311 921 q 264 792 286 881 q 240 668 240 696 q 350 628 240 650 q 565 533 483 600 q 671 326 671 450 q 458 40 671 175 q 301 -26 363 -26 l 125 -26 q 0 40 78 -26 q 119 99 49 58 q 246 44 214 42 l 404 64 q 518 131 486 81 q 544 269 544 176 q 458 463 544 393 q 264 543 394 514 q 113 586 196 560 q 165 754 153 649 q 179 936 168 806 q 356 1001 268 1001 q 503 991 407 1001 q 647 981 599 981 q 719 1004 685 981 l 719 972 z "},"6":{"ha":901,"x_min":0,"x_max":728,"o":"m 728 314 q 601 94 728 199 q 331 -11 475 -11 q 85 100 181 -11 q 0 322 0 199 q 32 485 0 356 q 210 783 71 640 q 532 985 350 926 l 394 892 q 131 399 131 717 q 206 176 131 269 q 453 68 296 68 q 565 133 528 68 q 594 249 594 183 q 518 424 594 350 q 315 503 439 503 q 154 436 301 503 q 453 565 328 565 q 658 488 581 565 q 728 314 728 417 z "},"7":{"ha":1000,"x_min":0,"x_max":826,"o":"m 826 986 q 472 497 683 775 q 108 53 193 119 q 0 -4 76 26 l 349 444 q 669 904 540 693 q 383 911 621 911 q 79 888 129 911 l 79 922 q 218 992 193 992 l 642 992 q 735 989 674 992 q 826 986 796 986 z "},"8":{"ha":858,"x_min":0,"x_max":685,"o":"m 685 289 q 558 92 685 188 q 300 -4 431 -4 q 83 63 165 -4 q 0 235 0 131 q 92 389 0 317 q 276 482 175 457 q 167 404 181 417 q 124 297 124 361 q 206 135 124 201 q 410 68 289 68 q 540 221 540 68 q 415 422 540 343 q 302 492 381 447 q 185 561 224 536 q 64 760 64 642 q 178 920 64 844 q 399 996 293 996 q 572 935 494 996 q 650 799 650 875 q 574 674 650 736 q 425 592 510 621 q 525 753 525 715 q 451 872 525 818 q 292 926 376 926 q 193 806 193 926 q 218 729 193 772 q 364 615 242 694 q 576 471 518 519 q 685 289 685 375 z "},"9":{"ha":871,"x_min":0,"x_max":697,"o":"m 697 701 q 489 286 697 514 q 81 -33 306 85 l 81 -3 q 511 417 336 151 l 511 438 q 389 386 451 413 q 260 354 306 354 q 71 456 151 354 q 0 632 0 543 q 111 875 0 764 q 394 993 231 993 q 624 901 543 993 q 697 701 697 822 m 558 640 q 493 822 558 740 q 292 914 414 914 q 161 844 210 914 q 119 717 119 786 q 206 533 119 619 q 411 440 299 440 q 542 504 511 440 q 558 640 558 543 z "}," ":{"ha":833,"x_min":0,"x_max":0,"o":""},"!":{"ha":374,"x_min":0,"x_max":200,"o":"m 200 272 q 94 222 164 257 l 68 222 l 63 913 q 33 957 63 957 l 0 950 q 83 990 49 981 l 97 989 q 139 1006 107 989 l 153 1006 q 161 938 161 985 q 158 635 161 846 l 156 332 q 168 292 156 311 q 200 272 181 274 m 190 79 q 164 12 190 43 q 101 -19 138 -19 q 47 47 47 -19 q 70 119 47 88 q 132 150 93 150 q 168 142 143 150 q 190 79 190 113 z "},"\"":{"ha":531,"x_min":0,"x_max":357,"o":"m 126 1044 q 101 875 136 969 q 0 740 63 774 q 33 849 24 782 q 28 964 42 917 q 126 1044 56 971 m 347 1044 q 321 875 357 971 q 221 740 281 774 q 252 849 244 782 q 247 963 260 917 q 347 1044 276 971 z "},"#":{"ha":1121,"x_min":0,"x_max":947,"o":"m 613 960 q 474 676 546 829 q 632 646 556 651 q 767 1000 681 767 l 849 960 q 696 646 776 817 q 947 694 789 653 l 843 590 q 650 551 729 561 q 622 490 636 521 q 593 428 610 464 q 665 424 629 424 q 947 472 763 424 l 843 368 q 578 324 672 324 q 547 324 563 324 q 414 -3 493 194 l 347 25 q 492 331 413 157 q 381 357 436 338 q 331 368 358 364 q 178 -3 271 229 l 111 25 q 274 371 183 171 q 0 317 107 371 l 111 428 q 318 468 185 464 q 368 581 342 522 l 369 582 q 274 593 331 593 q 0 539 107 593 l 111 650 q 360 692 196 692 q 413 689 389 692 q 531 1000 458 806 l 613 960 m 468 457 q 540 436 504 444 q 589 546 564 490 l 578 546 q 421 567 500 546 q 386 490 404 529 l 375 469 q 468 457 433 468 z "},"&":{"ha":1490,"x_min":0,"x_max":1317,"o":"m 1317 975 q 1292 903 1304 939 q 1281 836 1281 867 l 1281 819 l 1278 818 q 1272 817 1276 817 q 1260 842 1268 817 q 1246 879 1250 872 q 1017 918 1222 918 q 994 917 1014 918 q 965 914 975 915 q 949 786 953 890 q 942 636 944 711 l 936 333 l 939 153 q 943 93 940 146 q 960 35 946 57 q 997 14 967 22 q 1040 3 1039 3 q 1018 -6 1033 -3 l 874 1 q 776 -6 864 1 q 750 -11 765 -6 l 722 -8 q 740 4 725 0 q 763 15 756 8 q 784 98 778 38 q 801 308 790 158 l 806 703 q 783 910 806 910 q 553 931 711 933 l 326 928 q 270 923 282 928 q 257 882 258 918 q 256 826 256 854 q 244 607 253 753 q 243 524 244 533 q 365 517 286 517 q 613 557 496 517 q 618 547 618 551 q 599 496 618 544 q 574 431 576 442 q 560 445 567 431 q 547 465 554 460 q 333 494 501 494 q 249 486 319 494 q 242 460 242 475 l 242 151 q 243 128 242 150 q 244 97 244 107 q 249 51 244 71 q 436 32 318 32 l 494 32 q 619 49 538 32 q 722 82 700 67 l 735 79 l 736 67 q 679 -8 704 43 q 639 -89 658 -49 q 629 -36 638 -69 q 464 0 611 0 l 74 -10 q 92 65 83 6 q 101 165 101 125 l 111 329 l 111 501 q 110 528 111 503 q 108 556 108 553 l 108 643 q 103 775 108 681 q 86 911 96 903 q 43 928 67 926 q 0 931 3 931 q 1 935 0 932 q 3 940 3 939 l 610 957 l 881 963 l 1139 963 q 1297 979 1228 963 l 1317 975 z "},"'":{"ha":308,"x_min":0,"x_max":135,"o":"m 125 1074 q 100 906 135 999 q 0 771 61 804 q 32 878 24 811 q 28 993 40 946 q 125 1074 54 1000 z "},"*":{"ha":643,"x_min":0,"x_max":469,"o":"m 469 779 l 331 758 l 336 618 l 233 714 l 128 621 l 139 761 l 0 785 l 115 865 l 49 988 l 183 947 l 238 1076 l 290 946 l 425 983 l 356 861 l 469 779 z "},"+":{"ha":943,"x_min":0,"x_max":769,"o":"m 769 481 l 685 381 q 469 338 546 338 l 449 338 l 449 190 q 453 164 450 178 q 464 140 454 149 l 490 132 q 486 125 490 129 l 329 125 l 347 260 l 350 354 q 310 369 329 361 q 222 383 276 383 q 0 331 88 383 l 90 438 q 292 478 160 478 q 351 474 326 478 q 350 568 350 568 q 349 589 350 576 q 346 641 347 614 q 318 688 344 668 l 376 688 q 439 692 413 688 q 463 696 463 694 l 469 696 q 450 446 454 589 l 450 443 q 540 433 496 433 q 769 481 619 433 z "},",":{"ha":419,"x_min":0,"x_max":246,"o":"m 246 33 l 69 -169 q 103 -51 103 -86 q 86 36 103 -6 q 51 78 69 78 q 26 75 33 78 q 13 71 19 72 q 0 82 0 71 q 67 128 0 97 q 157 158 133 158 q 236 76 208 158 q 246 33 243 57 z "},"-":{"ha":715,"x_min":0,"x_max":542,"o":"m 542 488 l 482 383 q 331 339 385 339 q 218 372 275 339 q 157 386 194 386 q 0 332 61 386 l 64 443 q 206 485 113 485 q 268 472 246 485 q 381 439 326 439 q 542 488 436 439 z "},".":{"ha":421,"x_min":0,"x_max":247,"o":"m 247 43 q 240 32 247 38 q 178 -10 200 4 q 110 -36 135 -35 q 58 21 76 -37 q 35 79 40 79 q 22 77 28 79 q 13 74 17 75 q 0 85 0 74 q 85 136 0 97 q 121 151 97 142 q 136 154 125 153 q 180 103 165 154 q 211 50 194 53 q 222 51 217 50 l 233 54 q 247 43 246 54 z "},"/":{"ha":675,"x_min":0,"x_max":501,"o":"m 501 961 q 275 492 397 754 q 67 -1 210 354 l 0 26 q 257 582 108 246 q 419 1001 306 693 l 501 961 z "},":":{"ha":421,"x_min":0,"x_max":247,"o":"m 247 449 q 210 415 247 440 q 178 392 197 406 q 106 363 135 363 q 59 425 79 363 q 32 489 39 488 q 22 487 28 489 q 13 483 17 485 q 0 496 0 483 q 49 533 0 507 q 110 564 68 544 q 136 571 119 568 q 180 514 165 571 q 211 456 194 457 q 222 458 217 456 l 233 461 q 247 449 246 461 m 247 43 q 240 31 247 35 q 176 -14 197 0 q 110 -43 131 -42 q 59 19 79 -44 q 32 83 39 82 q 22 81 28 83 q 13 78 17 79 q 0 89 0 78 q 49 128 0 100 q 110 158 65 138 q 142 167 121 167 q 181 108 164 167 q 206 50 193 50 q 222 53 217 50 l 233 56 q 247 43 246 56 z "},";":{"ha":428,"x_min":0,"x_max":254,"o":"m 254 447 q 217 415 254 440 q 185 392 204 406 q 117 361 144 364 q 65 424 83 361 q 43 488 47 488 q 30 486 36 489 q 19 482 24 483 q 7 494 7 482 q 56 533 7 507 q 117 564 75 544 q 143 571 126 568 q 187 514 172 571 q 218 456 201 457 q 229 458 224 456 l 240 461 q 254 447 253 461 m 246 42 l 69 -172 q 103 -39 103 -85 q 88 43 103 6 q 51 89 68 89 q 25 85 33 89 l 13 82 q 0 92 0 82 q 63 140 0 104 q 150 175 121 174 q 246 42 225 178 z "},"<":{"ha":688,"x_min":0,"x_max":514,"o":"m 158 497 q 361 331 283 440 l 478 118 l 339 49 q 206 265 211 257 q 0 432 86 360 q 142 560 53 460 q 294 735 267 703 l 514 828 q 353 649 503 819 q 158 497 253 536 z "},"=":{"ha":715,"x_min":0,"x_max":542,"o":"m 542 585 l 482 481 q 331 436 385 436 q 218 469 275 436 q 157 483 194 483 q 0 429 61 483 l 64 540 q 206 582 113 582 q 268 569 246 582 q 381 536 326 536 q 542 585 436 536 m 542 404 l 482 300 q 331 256 385 256 q 218 289 275 256 q 157 303 194 303 q 0 249 61 303 l 64 360 q 206 401 113 401 q 268 389 246 401 q 381 356 326 356 q 542 404 436 356 z "},">":{"ha":701,"x_min":0,"x_max":528,"o":"m 356 365 q 153 532 231 422 l 36 744 l 189 814 q 308 597 303 606 q 528 431 386 489 q 372 303 461 403 q 219 128 247 160 l 0 35 q 161 214 11 43 q 356 365 261 326 z "},"?":{"ha":826,"x_min":35,"x_max":653,"o":"m 653 686 q 590 506 653 606 q 444 361 526 407 q 403 339 426 351 q 372 310 378 322 q 358 253 358 282 l 358 236 q 238 168 358 204 q 213 183 233 176 l 210 257 q 294 433 210 361 q 447 556 313 450 q 528 751 528 638 q 510 854 528 822 q 406 901 482 901 q 216 837 293 901 q 139 679 139 772 q 174 579 139 619 q 267 507 194 556 q 111 596 182 526 q 35 738 35 668 q 108 902 35 839 q 306 965 182 965 q 538 874 424 965 q 653 686 653 783 m 354 75 q 326 13 354 43 q 261 -18 297 -18 q 204 44 204 -18 q 225 110 204 82 q 293 143 250 143 q 329 135 303 143 q 354 75 354 107 z "},"A":{"ha":1165,"x_min":0,"x_max":1061,"o":"m 1061 4 l 904 -4 q 763 115 822 -4 q 693 275 728 196 q 601 467 667 343 l 321 467 q 267 394 300 467 q 233 310 250 351 q 178 121 178 179 q 222 44 178 63 q 331 10 276 26 l 146 -11 q 74 -6 125 -11 q 0 -1 22 -1 q 128 165 74 54 q 304 557 183 275 q 438 904 438 869 q 421 941 438 926 q 382 956 404 956 q 369 954 379 956 q 356 954 358 954 q 343 960 349 954 q 359 969 343 967 q 389 974 375 972 l 547 978 q 614 907 579 978 q 651 817 632 863 q 786 461 718 639 q 983 63 890 200 q 1032 21 1000 36 q 1061 4 1060 7 m 594 494 l 594 506 q 500 756 594 508 q 460 835 489 788 l 317 494 l 594 494 z "},"B":{"ha":988,"x_min":0,"x_max":814,"o":"m 814 271 q 647 36 814 122 q 394 -28 522 -28 l 86 -10 q 108 318 96 76 l 106 664 q 94 815 100 740 q 58 935 89 897 q 35 940 54 939 q 0 947 10 943 q 42 961 3 960 q 128 964 81 963 q 268 967 218 967 q 345 969 271 967 q 422 972 419 972 q 558 950 513 972 q 633 815 633 914 q 557 667 633 738 q 403 538 479 603 q 458 531 426 529 q 706 460 599 540 q 814 271 814 381 m 463 707 q 428 861 463 794 q 285 953 381 953 q 250 951 247 953 l 250 533 q 283 533 261 533 q 303 533 304 533 q 463 707 463 533 m 639 232 q 542 435 639 356 q 304 515 444 515 q 247 514 242 515 l 244 82 q 299 18 244 40 q 389 0 340 0 l 426 0 q 586 68 528 0 q 639 232 639 132 z "},"C":{"ha":1040,"x_min":0,"x_max":901,"o":"m 901 904 q 797 703 833 832 q 792 701 796 703 q 788 700 789 700 q 790 728 790 714 q 661 875 790 817 q 451 921 557 921 q 271 879 350 921 q 151 718 167 825 q 138 679 144 713 q 132 628 132 646 q 133 614 132 632 q 135 560 135 596 q 315 208 154 358 q 651 63 471 63 q 788 85 726 63 q 849 107 849 107 q 864 97 857 107 q 769 51 854 82 q 539 -12 597 -12 q 507 -14 536 -12 q 474 -15 478 -15 q 129 142 268 -15 q 0 488 0 290 q 58 739 0 656 q 272 913 135 850 q 519 968 394 968 q 667 961 518 968 l 901 915 l 901 904 z "},"D":{"ha":1146,"x_min":0,"x_max":972,"o":"m 972 483 q 781 122 972 265 q 414 -6 611 -6 q 219 4 351 -6 q 28 10 101 13 q 43 22 26 13 q 65 46 60 32 q 89 361 89 101 l 89 750 q 53 926 89 910 q 0 943 32 929 q 106 949 79 949 q 178 955 132 949 q 244 961 225 961 l 467 968 q 826 832 681 968 q 972 483 972 696 m 810 389 q 729 700 810 565 q 431 921 629 863 q 286 947 339 947 q 236 946 233 947 l 228 760 l 225 157 q 233 67 228 126 q 335 40 253 54 q 458 26 418 26 q 720 121 631 26 q 810 389 810 215 z "},"E":{"ha":875,"x_min":0,"x_max":736,"o":"m 736 67 q 679 -8 704 43 q 639 -89 658 -49 q 629 -36 638 -69 q 464 0 611 0 l 74 -10 q 92 65 83 6 q 101 165 101 125 l 111 329 l 111 501 q 110 528 111 503 q 108 556 108 553 l 108 643 q 103 775 108 681 q 86 911 96 903 q 43 928 67 926 q 0 931 3 931 q 1 935 0 932 q 3 940 3 939 l 649 963 q 606 875 629 931 q 593 842 601 865 q 588 843 592 842 q 583 844 585 844 q 588 861 588 853 q 549 900 588 885 q 493 914 518 914 q 482 908 485 914 q 326 928 446 928 q 270 923 282 928 q 257 882 258 918 q 256 826 256 854 q 244 607 253 753 q 243 524 244 533 q 365 517 286 517 q 613 557 496 517 q 618 547 618 551 q 599 496 618 544 q 574 431 576 442 q 560 445 567 431 q 547 465 554 460 q 333 494 501 494 q 249 486 319 494 q 242 460 242 475 l 242 151 q 243 128 242 150 q 244 97 244 107 q 249 51 244 71 q 436 32 318 32 l 494 32 q 619 49 538 32 q 722 82 700 67 l 735 79 l 736 67 z "},"F":{"ha":768,"x_min":0,"x_max":594,"o":"m 594 985 q 565 950 585 975 q 549 904 554 932 q 538 861 540 869 q 524 881 529 865 q 431 931 504 925 l 257 936 q 201 931 204 936 q 196 851 199 890 l 189 492 q 307 483 217 483 q 358 485 310 483 q 410 485 407 485 q 535 519 456 485 q 538 511 538 515 q 526 484 538 510 q 511 443 515 458 q 501 393 506 418 q 485 349 493 358 q 471 424 486 407 q 396 450 456 440 q 315 456 350 456 l 189 456 l 189 297 q 194 144 190 247 q 201 64 197 106 q 217 18 204 22 q 288 0 257 4 q 310 -11 304 -3 q 279 -18 303 -18 l 56 -21 q 33 -12 46 -21 q 65 93 58 17 l 65 808 q 51 886 58 847 q 0 943 38 938 l 0 957 q 36 958 13 957 q 60 958 60 958 q 141 963 89 958 q 217 969 193 968 l 510 976 q 544 980 511 976 q 594 985 576 983 z "},"G":{"ha":1115,"x_min":0,"x_max":942,"o":"m 942 276 q 753 56 942 138 q 481 -6 613 -6 q 461 -7 478 -6 q 443 -7 446 -7 q 111 149 236 -7 q 0 476 0 288 q 119 799 0 664 q 471 956 251 949 l 589 958 q 754 939 660 958 q 921 899 756 939 q 874 836 914 885 q 824 764 835 788 q 801 704 808 732 q 782 683 800 696 l 782 694 q 789 722 782 696 q 796 757 796 749 q 657 896 796 853 q 482 924 571 924 q 459 921 479 924 q 436 918 439 918 q 431 919 433 918 q 426 921 429 921 q 293 885 379 921 q 117 581 117 811 q 290 211 117 367 q 665 61 457 61 q 788 167 788 61 q 760 275 788 226 q 713 330 746 303 q 654 365 681 357 q 592 381 631 367 q 603 392 590 390 l 774 401 q 882 378 839 401 q 942 276 942 346 z "},"H":{"ha":1115,"x_min":0,"x_max":907,"o":"m 907 6 l 674 6 l 674 18 q 689 121 674 25 l 686 451 q 686 478 683 463 q 688 496 688 496 q 661 511 688 511 l 232 482 q 206 468 210 482 q 204 419 204 465 l 204 83 q 239 35 204 51 q 299 14 269 24 q 290 6 299 6 l 124 6 q 40 -3 121 6 l 19 1 q 63 93 54 21 q 71 211 67 151 q 75 254 75 246 l 75 322 l 83 444 l 83 653 q 60 903 83 803 q 35 938 54 932 q 0 950 1 950 q 94 951 10 951 q 215 975 160 951 q 222 963 222 969 q 219 944 222 960 q 217 926 217 929 l 217 864 q 215 853 217 861 q 213 843 213 846 l 213 746 q 211 724 213 742 q 210 701 210 706 l 210 532 q 218 525 213 531 l 582 525 q 670 538 654 525 q 686 603 686 550 q 685 668 686 606 q 683 733 683 731 l 683 853 q 674 902 683 868 q 653 943 664 936 q 635 954 646 944 q 654 961 644 961 q 686 958 657 961 q 719 956 715 956 q 836 971 769 956 l 836 957 q 815 772 815 833 l 815 288 q 826 151 815 249 q 847 39 839 50 q 878 19 856 28 q 907 6 901 11 z "},"I":{"ha":481,"x_min":0,"x_max":238,"o":"m 238 4 q 232 -7 238 1 l 15 -7 l 40 228 l 46 454 q 44 765 46 767 q 42 800 44 778 q 39 891 40 844 q 0 972 38 938 q 46 974 14 972 q 79 974 82 974 q 167 980 131 974 q 199 986 204 986 l 210 986 q 182 551 188 800 l 179 107 q 185 63 182 85 q 200 19 188 35 q 238 4 200 18 z "},"J":{"ha":499,"x_min":-69,"x_max":290,"o":"m 290 954 q 284 928 290 953 q 276 888 278 903 q 269 721 269 822 l 264 244 q 254 163 264 229 q 206 58 244 96 q -42 -115 19 -115 q -69 -107 -53 -115 q -33 -89 -62 -99 q 42 -60 11 -75 q 85 -17 63 -49 q 111 35 104 11 q 132 242 132 115 l 132 317 q 136 361 132 331 l 139 772 q 129 868 135 819 q 83 956 121 932 q 129 960 97 963 q 175 958 169 957 q 189 957 181 958 q 199 956 197 956 q 290 968 215 956 l 290 954 z "},"K":{"ha":1088,"x_min":0,"x_max":914,"o":"m 914 -4 q 893 -12 913 -6 l 643 -17 q 529 57 600 -17 q 350 271 476 111 q 268 383 336 289 q 213 453 218 453 q 192 431 200 453 l 197 90 q 204 50 200 69 q 221 8 208 26 q 250 -17 235 1 l 31 -26 q 46 111 38 28 l 56 433 q 54 476 56 436 q 53 519 53 517 l 53 590 l 49 804 q 43 885 46 844 q 0 953 38 936 q 88 968 4 958 q 179 978 165 978 l 207 978 l 192 776 l 194 490 q 415 681 253 508 q 583 918 583 858 q 567 951 583 947 q 528 963 531 963 l 528 974 l 761 974 l 763 960 q 585 794 724 936 q 483 703 554 768 q 351 567 351 575 q 436 439 351 557 q 628 185 574 249 q 863 8 779 8 q 914 8 911 8 l 914 -4 z "},"L":{"ha":743,"x_min":0,"x_max":569,"o":"m 569 104 q 504 13 518 33 q 464 -85 474 -39 q 414 -33 454 -71 q 358 -12 393 -18 q 97 -3 299 -3 q 54 -6 85 -3 q 0 -8 24 -10 q 15 2 0 -6 q 35 24 31 10 q 49 182 49 68 l 61 410 l 61 672 l 54 761 l 54 821 q 44 910 54 861 q 31 956 36 950 q 6 969 29 957 q 81 978 15 976 q 185 989 156 981 q 181 924 185 971 q 175 853 176 872 q 165 386 175 750 l 158 151 q 164 88 158 126 q 179 35 169 38 q 251 28 204 28 q 307 28 254 28 q 363 26 360 26 q 558 114 514 26 q 569 104 565 114 z "},"M":{"ha":1454,"x_min":0,"x_max":1246,"o":"m 1246 3 q 1208 -3 1238 -3 l 1042 -10 q 983 14 983 -10 q 986 31 983 19 l 981 514 l 963 788 q 764 357 863 572 q 568 24 606 24 q 390 332 554 24 q 151 771 192 706 q 131 544 131 607 l 111 250 q 111 186 113 247 q 153 72 108 129 q 256 11 197 14 q 236 0 253 0 q 188 2 233 0 q 139 4 143 4 q 0 -14 57 4 q 25 60 7 13 q 50 143 42 103 q 85 404 60 196 q 115 765 115 663 q 7 956 115 918 q 43 961 13 961 q 101 960 65 963 q 135 957 136 957 l 238 967 q 260 944 251 967 q 449 536 315 789 q 650 188 568 311 q 744 385 669 211 q 864 660 804 522 q 960 936 929 808 q 1149 951 1065 946 q 1132 935 1149 946 q 1119 892 1122 929 q 1114 831 1114 835 l 1115 507 q 1126 279 1122 344 q 1157 53 1138 140 q 1202 17 1164 24 q 1246 3 1240 11 z "},"N":{"ha":1353,"x_min":0,"x_max":1144,"o":"m 1144 958 q 1088 938 1132 949 q 1019 917 1036 926 q 990 599 990 617 l 990 533 q 975 250 990 499 q 958 -6 967 122 q 950 -8 956 -8 q 879 57 946 -8 q 492 444 631 301 q 190 751 278 664 q 189 304 181 572 q 203 119 189 249 q 210 88 207 94 q 226 67 215 74 q 297 47 261 47 q 371 39 321 47 q 265 17 369 39 q 138 1 189 1 q 32 10 68 1 q 76 42 35 13 q 113 89 104 61 q 142 453 142 193 l 142 531 l 151 700 q 131 838 151 793 q 0 949 99 906 q 253 969 86 958 q 576 575 363 801 q 926 226 658 490 q 931 243 931 232 l 924 457 q 907 763 915 614 q 896 908 906 811 q 878 917 894 917 q 843 915 878 917 q 792 913 808 913 q 867 942 801 919 q 969 967 940 967 l 1144 958 z "},"O":{"ha":1263,"x_min":0,"x_max":1054,"o":"m 1054 553 q 921 160 1054 328 q 533 -29 772 -29 l 504 -29 q 183 68 310 -29 q 4 411 35 181 q 4 474 0 440 q 200 872 36 740 q 564 985 342 985 q 917 864 781 985 q 1054 553 1054 743 m 918 385 q 790 753 918 588 q 426 935 646 935 q 197 836 282 935 q 117 606 117 744 q 201 317 117 447 q 461 93 290 178 q 639 40 568 40 l 667 40 q 839 114 765 40 q 917 310 915 193 q 918 367 917 344 q 918 385 918 388 z "},"P":{"ha":822,"x_min":0,"x_max":649,"o":"m 649 739 q 574 551 649 631 q 476 468 540 524 q 389 411 458 450 q 308 375 315 368 q 394 429 339 393 q 467 529 440 464 q 488 632 488 583 q 407 844 488 751 q 222 938 326 938 q 211 910 211 938 q 214 881 211 907 q 217 853 217 856 l 217 785 l 219 194 q 224 126 224 186 q 290 29 225 29 q 303 29 293 29 q 319 29 314 29 l 322 13 l 153 13 q 107 2 150 13 q 61 -8 64 -8 l 49 -8 q 71 113 67 46 q 78 257 74 185 l 79 629 q 69 778 75 704 q 38 919 64 869 q 21 932 33 926 q 0 942 3 939 q 43 949 15 949 q 88 947 90 947 q 133 951 108 949 q 349 967 247 967 q 535 914 446 967 q 649 739 649 849 z "},"Q":{"ha":1285,"x_min":0,"x_max":1321,"o":"m 1321 -90 q 1124 -119 1256 -119 q 901 -81 1011 -119 q 746 -8 836 -57 q 654 31 674 31 q 518 -1 558 -1 q 487 -3 515 -1 q 456 -6 458 -6 l 433 -6 q 125 126 250 -6 q 0 438 0 258 q 160 819 0 665 q 544 972 319 972 q 888 844 743 972 q 1040 507 1040 710 q 814 106 1040 247 q 1031 -28 911 28 q 1269 -89 1167 -89 q 1290 -90 1271 -89 q 1321 -90 1310 -90 m 878 404 q 644 868 878 715 q 471 929 550 929 q 217 819 306 929 q 136 560 136 721 q 283 207 136 361 q 635 53 431 53 q 828 182 761 53 q 878 404 878 279 z "},"R":{"ha":996,"x_min":0,"x_max":822,"o":"m 822 8 q 725 -4 815 0 q 701 -6 718 -4 q 679 -7 683 -7 q 560 39 606 -7 q 465 174 538 61 q 406 276 436 225 q 326 375 367 338 q 204 403 296 403 q 190 386 190 403 l 190 136 q 264 0 190 0 q 283 -6 276 0 q 236 -12 239 -12 q 180 -11 232 -12 q 125 -10 128 -10 q 6 -22 99 -10 q 39 10 17 -15 q 51 163 51 31 l 61 354 l 61 446 q 64 481 61 449 q 67 515 67 513 l 67 608 l 60 790 q 31 926 60 854 q 17 938 29 933 q 0 943 0 943 q 31 950 19 950 l 108 953 q 218 956 150 953 l 363 963 q 553 918 472 963 q 661 736 661 858 q 617 581 661 653 q 532 483 588 533 q 481 432 483 439 q 515 376 481 429 q 586 265 564 301 q 661 140 624 203 q 747 38 707 68 q 781 21 761 26 q 822 8 815 11 m 511 621 q 439 821 511 718 q 250 938 357 938 q 203 938 200 938 l 196 417 l 289 417 q 465 453 425 417 q 511 621 511 490 z "},"S":{"ha":831,"x_min":0,"x_max":622,"o":"m 622 286 q 510 54 622 136 q 275 -17 413 -17 q 214 -14 272 -17 q 153 -11 156 -11 q 74 4 142 -11 q 0 26 0 21 q 7 64 0 26 q 19 157 17 107 q 25 204 18 175 q 46 143 28 203 q 165 51 63 90 q 310 19 250 19 q 443 60 388 19 q 507 186 507 106 q 433 349 507 283 q 268 440 382 393 q 99 518 135 496 q 30 596 56 546 q 4 692 4 646 q 135 899 4 819 q 360 963 242 963 l 599 953 l 599 938 q 586 901 599 938 q 570 837 572 861 q 564 764 568 813 q 554 786 556 768 q 550 813 551 810 q 325 929 494 929 q 139 785 139 929 q 217 639 139 692 q 407 543 275 600 q 560 454 518 496 q 622 286 622 393 z "},"T":{"ha":963,"x_min":0,"x_max":858,"o":"m 858 975 q 834 903 846 939 q 822 836 822 867 l 822 819 q 820 818 822 819 q 814 817 818 817 q 801 842 810 817 q 788 879 792 872 q 558 918 764 918 q 536 917 556 918 q 507 914 517 915 q 490 786 494 890 q 483 636 486 711 l 478 333 l 481 153 q 485 93 482 146 q 501 35 488 57 q 539 14 508 22 q 582 3 581 3 q 560 -6 575 -3 l 415 1 q 318 -6 406 1 q 292 -11 307 -6 l 264 -8 q 282 4 267 0 q 304 15 297 8 q 326 98 319 38 q 343 308 332 158 l 347 703 q 325 910 347 910 q 196 896 294 910 q 90 877 110 882 q 45 850 69 872 q 13 803 21 828 l 0 803 l 0 813 q 14 850 0 815 q 33 917 24 883 q 74 974 54 974 l 422 963 l 681 963 q 839 979 769 963 l 858 975 z "},"U":{"ha":1171,"x_min":0,"x_max":963,"o":"m 963 22 q 889 15 925 15 q 869 14 890 15 q 840 14 851 13 l 732 -3 q 717 40 717 3 q 717 94 717 68 q 582 31 635 51 q 482 4 558 22 q 365 -15 396 -15 l 321 -15 q 103 54 161 -15 q 46 296 46 124 q 47 385 46 335 l 53 789 q 40 864 47 840 q 0 922 28 910 l 0 933 q 196 960 99 940 l 196 944 q 192 914 196 942 q 186 874 188 886 q 179 772 179 758 l 179 694 q 176 669 179 692 q 174 642 174 646 l 174 385 q 196 263 174 342 q 233 171 218 179 q 349 74 281 97 q 476 57 394 57 q 633 89 578 57 q 728 250 711 133 l 736 572 l 733 799 q 728 879 732 804 q 665 951 725 944 q 758 968 669 963 q 868 975 865 974 q 876 964 876 967 l 849 700 q 844 476 849 625 q 839 254 839 328 q 851 147 839 210 q 869 76 861 90 q 913 42 882 53 q 963 22 957 26 z "},"V":{"ha":1139,"x_min":0,"x_max":1000,"o":"m 1000 979 q 532 -25 747 481 q 478 63 522 -21 q 382 288 467 83 q 238 615 289 510 q 54 922 140 817 q 30 937 44 933 q 0 944 15 940 q 29 957 7 957 q 114 959 57 957 q 168 961 171 961 q 253 953 233 961 q 294 854 254 951 q 390 618 325 775 q 586 186 465 444 q 715 483 638 290 q 836 875 836 782 q 824 933 836 904 q 781 967 807 971 l 781 979 l 1000 979 z "},"W":{"ha":1664,"x_min":0,"x_max":1490,"o":"m 1490 946 q 1383 672 1456 847 l 1310 494 q 1224 278 1267 386 q 1099 31 1160 124 q 1064 -14 1069 -14 q 1032 38 1060 -14 q 885 361 974 147 q 736 718 740 707 l 429 -1 q 415 6 422 -1 q 249 499 332 251 q 44 940 161 750 q 29 947 40 946 q 11 947 19 947 q 0 954 3 947 q 15 963 4 963 l 219 965 q 289 807 233 965 q 497 239 401 488 q 606 483 513 264 q 710 786 710 732 q 682 866 710 793 q 649 939 654 939 q 618 949 636 939 q 656 960 624 957 q 699 956 658 960 q 742 953 739 953 q 788 957 751 953 q 838 960 819 961 q 957 571 879 767 q 1133 157 988 493 q 1261 492 1192 271 q 1340 864 1340 746 q 1308 918 1340 901 q 1243 942 1275 929 q 1264 950 1256 950 l 1381 943 q 1435 946 1396 943 q 1490 946 1467 947 m 69 551 l 61 535 l 58 536 l 65 551 l 69 551 z "},"X":{"ha":1153,"x_min":0,"x_max":979,"o":"m 979 971 q 932 931 961 958 q 900 828 896 885 q 864 854 882 842 q 808 871 842 871 q 688 790 764 871 q 587 667 647 746 q 526 583 526 589 q 613 435 568 508 q 756 185 685 310 q 925 4 844 44 q 957 3 931 6 q 900 -11 957 -11 l 769 -18 q 622 110 704 -18 q 539 260 581 185 q 424 449 504 317 q 300 290 406 443 q 188 68 188 125 q 242 31 188 44 q 306 18 274 24 q 176 4 303 4 l 81 4 q 0 4 4 4 l 0 15 q 149 157 71 60 q 285 346 183 201 q 388 497 388 490 q 339 585 388 511 q 204 799 271 692 q 31 946 121 917 q 31 951 31 946 q 29 960 29 957 q 133 960 35 960 q 174 963 136 960 q 215 967 213 967 q 388 806 272 967 q 497 635 442 719 q 701 858 599 746 q 928 989 833 989 q 979 971 965 989 z "},"Y":{"ha":1039,"x_min":0,"x_max":900,"o":"m 899 950 q 860 901 886 935 q 667 621 806 829 q 579 486 635 574 q 556 442 571 472 l 551 251 q 567 26 551 42 q 635 1 571 21 q 633 -3 635 0 q 632 -8 632 -7 l 482 0 l 332 -8 q 369 19 351 6 q 401 65 394 42 q 419 243 419 165 q 411 365 419 339 q 339 486 408 374 q 119 825 257 610 q 78 892 88 876 q 38 943 58 921 q 19 950 32 949 q 0 954 1 953 q 6 965 0 960 l 222 971 q 356 749 289 860 q 538 476 463 574 q 640 651 557 500 q 740 890 740 833 q 661 943 740 944 l 661 956 l 860 956 q 899 950 900 956 z "},"Z":{"ha":1090,"x_min":0,"x_max":882,"o":"m 882 113 q 831 13 882 115 q 779 -118 781 -89 l 768 -118 q 773 -78 768 -108 q 778 -46 778 -47 q 701 -1 778 -12 q 619 3 661 0 l 186 6 q 136 0 158 0 l 64 0 q 48 -3 61 0 q 31 -7 35 -7 l 0 -7 q 40 25 3 -1 q 107 85 83 54 q 383 522 225 236 q 607 929 494 725 l 383 918 l 303 918 q 181 905 275 918 q 51 882 86 892 q 47 888 47 882 q 75 918 47 889 q 114 963 103 947 q 147 1014 129 988 q 183 1056 164 1040 q 182 1039 185 1051 q 179 1025 179 1026 q 272 975 179 993 q 397 961 340 961 l 535 958 q 746 969 661 958 q 821 981 831 981 l 832 981 q 835 975 835 981 q 746 856 835 978 q 588 614 644 717 l 279 64 q 342 54 285 54 l 578 54 q 708 68 618 54 q 799 85 790 81 q 835 97 817 92 q 867 121 860 107 l 879 121 q 881 119 879 121 q 882 113 882 117 z "},"[":{"ha":617,"x_min":0,"x_max":443,"o":"m 443 -15 l 344 -74 q 255 -68 315 -74 q 165 -62 194 -62 q 104 -68 131 -62 l 96 -81 l 0 -135 q 18 110 18 -35 q 9 394 18 204 q 0 679 0 585 q 1 858 0 739 l 3 1039 l 94 1092 q 229 1068 154 1068 q 303 1079 276 1068 q 369 1118 318 1086 q 364 1106 364 1111 q 367 1101 364 1100 q 371 1096 371 1101 q 369 1093 371 1093 q 261 1031 292 1043 q 157 1011 214 1011 q 96 1014 131 1011 q 96 967 96 1008 q 96 871 96 917 q 96 726 96 871 q 104 441 96 632 q 113 154 113 250 q 99 -54 113 35 q 174 -15 151 -24 q 254 -6 204 -6 q 349 -10 286 -6 q 443 -15 413 -15 z "},"\\":{"ha":675,"x_min":0,"x_max":501,"o":"m 82 1001 q 244 582 196 693 q 501 26 393 246 l 435 -1 q 226 492 292 354 q 0 961 104 754 l 82 1001 z "},"]":{"ha":617,"x_min":0,"x_max":443,"o":"m 443 -135 l 349 -81 l 339 -68 q 279 -62 313 -62 q 189 -68 249 -62 q 99 -74 129 -74 l 0 -15 q 94 -10 32 -15 q 189 -6 157 -6 q 271 -15 240 -6 q 344 -54 292 -24 q 332 154 332 35 q 340 441 332 250 q 349 726 349 632 l 349 871 q 347 967 349 917 q 347 1014 347 1008 q 301 1013 326 1013 q 181 1029 222 1013 q 74 1093 164 1036 q 74 1097 71 1094 q 79 1103 79 1101 q 74 1118 79 1111 q 142 1079 125 1086 q 214 1068 168 1068 q 350 1092 289 1068 l 440 1039 q 442 858 440 978 l 443 679 q 434 394 443 585 q 425 110 425 204 q 443 -135 425 -35 z "},"^":{"ha":703,"x_min":0,"x_max":529,"o":"m 221 979 q 119 882 194 932 q 0 801 6 807 l 63 911 q 179 988 83 925 q 274 1086 246 1032 q 385 976 313 1015 q 529 917 390 974 l 474 819 l 332 878 q 221 979 258 917 z "},"_":{"ha":1528,"x_min":0,"x_max":1354,"o":"m 1354 -14 l 1206 -118 q 826 -162 963 -162 q 546 -129 688 -162 q 393 -115 486 -115 q 0 -169 153 -115 l 160 -58 q 514 -17 282 -17 q 671 -29 615 -17 q 951 -62 817 -62 q 1354 -14 1090 -62 z "},"`":{"ha":451,"x_min":0,"x_max":278,"o":"m 278 813 q 118 868 210 806 q 0 990 35 924 q 128 981 100 971 q 190 885 144 935 q 278 813 235 835 z "},"a":{"ha":1165,"x_min":0,"x_max":1061,"o":"m 1061 4 l 904 -4 q 763 115 822 -4 q 693 275 728 196 q 601 467 667 343 l 321 467 q 267 394 300 467 q 233 310 250 351 q 178 121 178 179 q 222 44 178 63 q 331 10 276 26 l 146 -11 q 74 -6 125 -11 q 0 -1 22 -1 q 128 165 74 54 q 304 557 183 275 q 438 904 438 869 q 421 941 438 926 q 382 956 404 956 q 369 954 379 956 q 356 954 358 954 q 343 960 349 954 q 359 969 343 967 q 389 974 375 972 l 547 978 q 614 907 579 978 q 651 817 632 863 q 786 461 718 639 q 983 63 890 200 q 1032 21 1000 36 q 1061 4 1060 7 m 594 494 l 594 506 q 500 756 594 508 q 460 835 489 788 l 317 494 l 594 494 z "},"b":{"ha":988,"x_min":0,"x_max":814,"o":"m 814 271 q 647 36 814 122 q 394 -28 522 -28 l 86 -10 q 108 318 96 76 l 106 664 q 94 815 100 740 q 58 935 89 897 q 35 940 54 939 q 0 947 10 943 q 42 961 3 960 q 128 964 81 963 q 268 967 218 967 q 345 969 271 967 q 422 972 419 972 q 558 950 513 972 q 633 815 633 914 q 557 667 633 738 q 403 538 479 603 q 458 531 426 529 q 706 460 599 540 q 814 271 814 381 m 463 707 q 428 861 463 794 q 285 953 381 953 q 250 951 247 953 l 250 533 q 283 533 261 533 q 303 533 304 533 q 463 707 463 533 m 639 232 q 542 435 639 356 q 304 515 444 515 q 247 514 242 515 l 244 82 q 299 18 244 40 q 389 0 340 0 l 426 0 q 586 68 528 0 q 639 232 639 132 z "},"c":{"ha":1040,"x_min":0,"x_max":901,"o":"m 901 904 q 797 703 833 832 q 792 701 796 703 q 788 700 789 700 q 790 728 790 714 q 661 875 790 817 q 451 921 557 921 q 271 879 350 921 q 151 718 167 825 q 138 679 144 713 q 132 628 132 646 q 133 614 132 632 q 135 560 135 596 q 315 208 154 358 q 651 63 471 63 q 788 85 726 63 q 849 107 849 107 q 864 97 857 107 q 769 51 854 82 q 539 -12 597 -12 q 507 -14 536 -12 q 474 -15 478 -15 q 129 142 268 -15 q 0 488 0 290 q 58 739 0 656 q 272 913 135 850 q 519 968 394 968 q 667 961 518 968 l 901 915 l 901 904 z "},"d":{"ha":1146,"x_min":0,"x_max":972,"o":"m 972 483 q 781 122 972 265 q 414 -6 611 -6 q 219 4 351 -6 q 28 10 101 13 q 43 22 26 13 q 65 46 60 32 q 89 361 89 101 l 89 750 q 53 926 89 910 q 0 943 32 929 q 106 949 79 949 q 178 955 132 949 q 244 961 225 961 l 467 968 q 826 832 681 968 q 972 483 972 696 m 810 389 q 729 700 810 565 q 431 921 629 863 q 286 947 339 947 q 236 946 233 947 l 228 760 l 225 157 q 233 67 228 126 q 335 40 253 54 q 458 26 418 26 q 720 121 631 26 q 810 389 810 215 z "},"e":{"ha":875,"x_min":0,"x_max":736,"o":"m 736 67 q 679 -8 704 43 q 639 -89 658 -49 q 629 -36 638 -69 q 464 0 611 0 l 74 -10 q 92 65 83 6 q 101 165 101 125 l 111 329 l 111 501 q 110 528 111 503 q 108 556 108 553 l 108 643 q 103 775 108 681 q 86 911 96 903 q 43 928 67 926 q 0 931 3 931 q 1 935 0 932 q 3 940 3 939 l 649 963 q 606 875 629 931 q 593 842 601 865 q 588 843 592 842 q 583 844 585 844 q 588 861 588 853 q 549 900 588 885 q 493 914 518 914 q 482 908 485 914 q 326 928 446 928 q 270 923 282 928 q 257 882 258 918 q 256 826 256 854 q 244 607 253 753 q 243 524 244 533 q 365 517 286 517 q 613 557 496 517 q 618 547 618 551 q 599 496 618 544 q 574 431 576 442 q 560 445 567 431 q 547 465 554 460 q 333 494 501 494 q 249 486 319 494 q 242 460 242 475 l 242 151 q 243 128 242 150 q 244 97 244 107 q 249 51 244 71 q 436 32 318 32 l 494 32 q 619 49 538 32 q 722 82 700 67 l 735 79 l 736 67 z "},"f":{"ha":768,"x_min":0,"x_max":594,"o":"m 594 985 q 565 950 585 975 q 549 904 554 932 q 538 861 540 869 q 524 881 529 865 q 431 931 504 925 l 257 936 q 201 931 204 936 q 196 851 199 890 l 189 492 q 307 483 217 483 q 358 485 310 483 q 410 485 407 485 q 535 519 456 485 q 538 511 538 515 q 526 484 538 510 q 511 443 515 458 q 501 393 506 418 q 485 349 493 358 q 471 424 486 407 q 396 450 456 440 q 315 456 350 456 l 189 456 l 189 297 q 194 144 190 247 q 201 64 197 106 q 217 18 204 22 q 288 0 257 4 q 310 -11 304 -3 q 279 -18 303 -18 l 56 -21 q 33 -12 46 -21 q 65 93 58 17 l 65 808 q 51 886 58 847 q 0 943 38 938 l 0 957 q 36 958 13 957 q 60 958 60 958 q 141 963 89 958 q 217 969 193 968 l 510 976 q 544 980 511 976 q 594 985 576 983 z "},"g":{"ha":1115,"x_min":0,"x_max":942,"o":"m 942 276 q 753 56 942 138 q 481 -6 613 -6 q 461 -7 478 -6 q 443 -7 446 -7 q 111 149 236 -7 q 0 476 0 288 q 119 799 0 664 q 471 956 251 949 l 589 958 q 754 939 660 958 q 921 899 756 939 q 874 836 914 885 q 824 764 835 788 q 801 704 808 732 q 782 683 800 696 l 782 694 q 789 722 782 696 q 796 757 796 749 q 657 896 796 853 q 482 924 571 924 q 459 921 479 924 q 436 918 439 918 q 431 919 433 918 q 426 921 429 921 q 293 885 379 921 q 117 581 117 811 q 290 211 117 367 q 665 61 457 61 q 788 167 788 61 q 760 275 788 226 q 713 330 746 303 q 654 365 681 357 q 592 381 631 367 q 603 392 590 390 l 774 401 q 882 378 839 401 q 942 276 942 346 z "},"h":{"ha":1115,"x_min":0,"x_max":907,"o":"m 907 6 l 674 6 l 674 18 q 689 121 674 25 l 686 451 q 686 478 683 463 q 688 496 688 496 q 661 511 688 511 l 232 482 q 206 468 210 482 q 204 419 204 465 l 204 83 q 239 35 204 51 q 299 14 269 24 q 290 6 299 6 l 124 6 q 40 -3 121 6 l 19 1 q 63 93 54 21 q 71 211 67 151 q 75 254 75 246 l 75 322 l 83 444 l 83 653 q 60 903 83 803 q 35 938 54 932 q 0 950 1 950 q 94 951 10 951 q 215 975 160 951 q 222 963 222 969 q 219 944 222 960 q 217 926 217 929 l 217 864 q 215 853 217 861 q 213 843 213 846 l 213 746 q 211 724 213 742 q 210 701 210 706 l 210 532 q 218 525 213 531 l 582 525 q 670 538 654 525 q 686 603 686 550 q 685 668 686 606 q 683 733 683 731 l 683 853 q 674 902 683 868 q 653 943 664 936 q 635 954 646 944 q 654 961 644 961 q 686 958 657 961 q 719 956 715 956 q 836 971 769 956 l 836 957 q 815 772 815 833 l 815 288 q 826 151 815 249 q 847 39 839 50 q 878 19 856 28 q 907 6 901 11 z "},"i":{"ha":481,"x_min":0,"x_max":238,"o":"m 238 4 q 232 -7 238 1 l 15 -7 l 40 228 l 46 454 q 44 765 46 767 q 42 800 44 778 q 39 891 40 844 q 0 972 38 938 q 46 974 14 972 q 79 974 82 974 q 167 980 131 974 q 199 986 204 986 l 210 986 q 182 551 188 800 l 179 107 q 185 63 182 85 q 200 19 188 35 q 238 4 200 18 z "},"j":{"ha":499,"x_min":-69,"x_max":290,"o":"m 290 954 q 284 928 290 953 q 276 888 278 903 q 269 721 269 822 l 264 244 q 254 163 264 229 q 206 58 244 96 q -42 -115 19 -115 q -69 -107 -53 -115 q -33 -89 -62 -99 q 42 -60 11 -75 q 85 -17 63 -49 q 111 35 104 11 q 132 242 132 115 l 132 317 q 136 361 132 331 l 139 772 q 129 868 135 819 q 83 956 121 932 q 129 960 97 963 q 175 958 169 957 q 189 957 181 958 q 199 956 197 956 q 290 968 215 956 l 290 954 z "},"k":{"ha":1088,"x_min":0,"x_max":914,"o":"m 914 -4 q 893 -12 913 -6 l 643 -17 q 529 57 600 -17 q 350 271 476 111 q 268 383 336 289 q 213 453 218 453 q 192 431 200 453 l 197 90 q 204 50 200 69 q 221 8 208 26 q 250 -17 235 1 l 31 -26 q 46 111 38 28 l 56 433 q 54 476 56 436 q 53 519 53 517 l 53 590 l 49 804 q 43 885 46 844 q 0 953 38 936 q 88 968 4 958 q 179 978 165 978 l 207 978 l 192 776 l 194 490 q 415 681 253 508 q 583 918 583 858 q 567 951 583 947 q 528 963 531 963 l 528 974 l 761 974 l 763 960 q 585 794 724 936 q 483 703 554 768 q 351 567 351 575 q 436 439 351 557 q 628 185 574 249 q 863 8 779 8 q 914 8 911 8 l 914 -4 z "},"l":{"ha":743,"x_min":0,"x_max":569,"o":"m 569 104 q 504 13 518 33 q 464 -85 474 -39 q 414 -33 454 -71 q 358 -12 393 -18 q 97 -3 299 -3 q 54 -6 85 -3 q 0 -8 24 -10 q 15 2 0 -6 q 35 24 31 10 q 49 182 49 68 l 61 410 l 61 672 l 54 761 l 54 821 q 44 910 54 861 q 31 956 36 950 q 6 969 29 957 q 81 978 15 976 q 185 989 156 981 q 181 924 185 971 q 175 853 176 872 q 165 386 175 750 l 158 151 q 164 88 158 126 q 179 35 169 38 q 251 28 204 28 q 307 28 254 28 q 363 26 360 26 q 558 114 514 26 q 569 104 565 114 z "},"m":{"ha":1454,"x_min":0,"x_max":1246,"o":"m 1246 3 q 1208 -3 1238 -3 l 1042 -10 q 983 14 983 -10 q 986 31 983 19 l 981 514 l 963 788 q 764 357 863 572 q 568 24 606 24 q 390 332 554 24 q 151 771 192 706 q 131 544 131 607 l 111 250 q 111 186 113 247 q 153 72 108 129 q 256 11 197 14 q 236 0 253 0 q 188 2 233 0 q 139 4 143 4 q 0 -14 57 4 q 25 60 7 13 q 50 143 42 103 q 85 404 60 196 q 115 765 115 663 q 7 956 115 918 q 43 961 13 961 q 101 960 65 963 q 135 957 136 957 l 238 967 q 260 944 251 967 q 449 536 315 789 q 650 188 568 311 q 744 385 669 211 q 864 660 804 522 q 960 936 929 808 q 1149 951 1065 946 q 1132 935 1149 946 q 1119 892 1122 929 q 1114 831 1114 835 l 1115 507 q 1126 279 1122 344 q 1157 53 1138 140 q 1202 17 1164 24 q 1246 3 1240 11 z "},"n":{"ha":1353,"x_min":0,"x_max":1144,"o":"m 1144 958 q 1088 938 1132 949 q 1019 917 1036 926 q 990 599 990 617 l 990 533 q 975 250 990 499 q 958 -6 967 122 q 950 -8 956 -8 q 879 57 946 -8 q 492 444 631 301 q 190 751 278 664 q 189 304 181 572 q 203 119 189 249 q 210 88 207 94 q 226 67 215 74 q 297 47 261 47 q 371 39 321 47 q 265 17 369 39 q 138 1 189 1 q 32 10 68 1 q 76 42 35 13 q 113 89 104 61 q 142 453 142 193 l 142 531 l 151 700 q 131 838 151 793 q 0 949 99 906 q 253 969 86 958 q 576 575 363 801 q 926 226 658 490 q 931 243 931 232 l 924 457 q 907 763 915 614 q 896 908 906 811 q 878 917 894 917 q 843 915 878 917 q 792 913 808 913 q 867 942 801 919 q 969 967 940 967 l 1144 958 z "},"o":{"ha":1263,"x_min":0,"x_max":1054,"o":"m 1054 553 q 921 160 1054 328 q 533 -29 772 -29 l 504 -29 q 183 68 310 -29 q 4 411 35 181 q 4 474 0 440 q 200 872 36 740 q 564 985 342 985 q 917 864 781 985 q 1054 553 1054 743 m 918 385 q 790 753 918 588 q 426 935 646 935 q 197 836 282 935 q 117 606 117 744 q 201 317 117 447 q 461 93 290 178 q 639 40 568 40 l 667 40 q 839 114 765 40 q 917 310 915 193 q 918 367 917 344 q 918 385 918 388 z "},"p":{"ha":822,"x_min":0,"x_max":649,"o":"m 649 739 q 574 551 649 631 q 476 468 540 524 q 389 411 458 450 q 308 375 315 368 q 394 429 339 393 q 467 529 440 464 q 488 632 488 583 q 407 844 488 751 q 222 938 326 938 q 211 910 211 938 q 214 881 211 907 q 217 853 217 856 l 217 785 l 219 194 q 224 126 224 186 q 290 29 225 29 q 303 29 293 29 q 319 29 314 29 l 322 13 l 153 13 q 107 2 150 13 q 61 -8 64 -8 l 49 -8 q 71 113 67 46 q 78 257 74 185 l 79 629 q 69 778 75 704 q 38 919 64 869 q 21 932 33 926 q 0 942 3 939 q 43 949 15 949 q 88 947 90 947 q 133 951 108 949 q 349 967 247 967 q 535 914 446 967 q 649 739 649 849 z "},"q":{"ha":1285,"x_min":0,"x_max":1321,"o":"m 1321 -90 q 1124 -119 1256 -119 q 901 -81 1011 -119 q 746 -8 836 -57 q 654 31 674 31 q 518 -1 558 -1 q 487 -3 515 -1 q 456 -6 458 -6 l 433 -6 q 125 126 250 -6 q 0 438 0 258 q 160 819 0 665 q 544 972 319 972 q 888 844 743 972 q 1040 507 1040 710 q 814 106 1040 247 q 1031 -28 911 28 q 1269 -89 1167 -89 q 1290 -90 1271 -89 q 1321 -90 1310 -90 m 878 404 q 644 868 878 715 q 471 929 550 929 q 217 819 306 929 q 136 560 136 721 q 283 207 136 361 q 635 53 431 53 q 828 182 761 53 q 878 404 878 279 z "},"r":{"ha":996,"x_min":0,"x_max":822,"o":"m 822 8 q 725 -4 815 0 q 701 -6 718 -4 q 679 -7 683 -7 q 560 39 606 -7 q 465 174 538 61 q 406 276 436 225 q 326 375 367 338 q 204 403 296 403 q 190 386 190 403 l 190 136 q 264 0 190 0 q 283 -6 276 0 q 236 -12 239 -12 q 180 -11 232 -12 q 125 -10 128 -10 q 6 -22 99 -10 q 39 10 17 -15 q 51 163 51 31 l 61 354 l 61 446 q 64 481 61 449 q 67 515 67 513 l 67 608 l 60 790 q 31 926 60 854 q 17 938 29 933 q 0 943 0 943 q 31 950 19 950 l 108 953 q 218 956 150 953 l 363 963 q 553 918 472 963 q 661 736 661 858 q 617 581 661 653 q 532 483 588 533 q 481 432 483 439 q 515 376 481 429 q 586 265 564 301 q 661 140 624 203 q 747 38 707 68 q 781 21 761 26 q 822 8 815 11 m 511 621 q 439 821 511 718 q 250 938 357 938 q 203 938 200 938 l 196 417 l 289 417 q 465 453 425 417 q 511 621 511 490 z "},"s":{"ha":831,"x_min":0,"x_max":622,"o":"m 622 286 q 510 54 622 136 q 275 -17 413 -17 q 214 -14 272 -17 q 153 -11 156 -11 q 74 4 142 -11 q 0 26 0 21 q 7 64 0 26 q 19 157 17 107 q 25 204 18 175 q 46 143 28 203 q 165 51 63 90 q 310 19 250 19 q 443 60 388 19 q 507 186 507 106 q 433 349 507 283 q 268 440 382 393 q 99 518 135 496 q 30 596 56 546 q 4 692 4 646 q 135 899 4 819 q 360 963 242 963 l 599 953 l 599 938 q 586 901 599 938 q 570 837 572 861 q 564 764 568 813 q 554 786 556 768 q 550 813 551 810 q 325 929 494 929 q 139 785 139 929 q 217 639 139 692 q 407 543 275 600 q 560 454 518 496 q 622 286 622 393 z "},"t":{"ha":963,"x_min":0,"x_max":858,"o":"m 858 975 q 834 903 846 939 q 822 836 822 867 l 822 819 q 820 818 822 819 q 814 817 818 817 q 801 842 810 817 q 788 879 792 872 q 558 918 764 918 q 536 917 556 918 q 507 914 517 915 q 490 786 494 890 q 483 636 486 711 l 478 333 l 481 153 q 485 93 482 146 q 501 35 488 57 q 539 14 508 22 q 582 3 581 3 q 560 -6 575 -3 l 415 1 q 318 -6 406 1 q 292 -11 307 -6 l 264 -8 q 282 4 267 0 q 304 15 297 8 q 326 98 319 38 q 343 308 332 158 l 347 703 q 325 910 347 910 q 196 896 294 910 q 90 877 110 882 q 45 850 69 872 q 13 803 21 828 l 0 803 l 0 813 q 14 850 0 815 q 33 917 24 883 q 74 974 54 974 l 422 963 l 681 963 q 839 979 769 963 l 858 975 z "},"u":{"ha":1171,"x_min":0,"x_max":963,"o":"m 963 22 q 889 15 925 15 q 869 14 890 15 q 840 14 851 13 l 732 -3 q 717 40 717 3 q 717 94 717 68 q 582 31 635 51 q 482 4 558 22 q 365 -15 396 -15 l 321 -15 q 103 54 161 -15 q 46 296 46 124 q 47 385 46 335 l 53 789 q 40 864 47 840 q 0 922 28 910 l 0 933 q 196 960 99 940 l 196 944 q 192 914 196 942 q 186 874 188 886 q 179 772 179 758 l 179 694 q 176 669 179 692 q 174 642 174 646 l 174 385 q 196 263 174 342 q 233 171 218 179 q 349 74 281 97 q 476 57 394 57 q 633 89 578 57 q 728 250 711 133 l 736 572 l 733 799 q 728 879 732 804 q 665 951 725 944 q 758 968 669 963 q 868 975 865 974 q 876 964 876 967 l 849 700 q 844 476 849 625 q 839 254 839 328 q 851 147 839 210 q 869 76 861 90 q 913 42 882 53 q 963 22 957 26 z "},"v":{"ha":1139,"x_min":0,"x_max":1000,"o":"m 1000 979 q 532 -25 747 481 q 478 63 522 -21 q 382 288 467 83 q 238 615 289 510 q 54 922 140 817 q 30 937 44 933 q 0 944 15 940 q 29 957 7 957 q 114 959 57 957 q 168 961 171 961 q 253 953 233 961 q 294 854 254 951 q 390 618 325 775 q 586 186 465 444 q 715 483 638 290 q 836 875 836 782 q 824 933 836 904 q 781 967 807 971 l 781 979 l 1000 979 z "},"w":{"ha":1664,"x_min":0,"x_max":1490,"o":"m 1490 946 q 1383 672 1456 847 l 1310 494 q 1224 278 1267 386 q 1099 31 1160 124 q 1064 -14 1069 -14 q 1032 38 1060 -14 q 885 361 974 147 q 736 718 740 707 l 429 -1 q 415 6 422 -1 q 249 499 332 251 q 44 940 161 750 q 29 947 40 946 q 11 947 19 947 q 0 954 3 947 q 15 963 4 963 l 219 965 q 289 807 233 965 q 497 239 401 488 q 606 483 513 264 q 710 786 710 732 q 682 866 710 793 q 649 939 654 939 q 618 949 636 939 q 656 960 624 957 q 699 956 658 960 q 742 953 739 953 q 788 957 751 953 q 838 960 819 961 q 957 571 879 767 q 1133 157 988 493 q 1261 492 1192 271 q 1340 864 1340 746 q 1308 918 1340 901 q 1243 942 1275 929 q 1264 950 1256 950 l 1381 943 q 1435 946 1396 943 q 1490 946 1467 947 m 69 551 l 61 535 l 58 536 l 65 551 l 69 551 z "},"x":{"ha":1153,"x_min":0,"x_max":979,"o":"m 979 971 q 932 931 961 958 q 900 828 896 885 q 864 854 882 842 q 808 871 842 871 q 688 790 764 871 q 587 667 647 746 q 526 583 526 589 q 613 435 568 508 q 756 185 685 310 q 925 4 844 44 q 957 3 931 6 q 900 -11 957 -11 l 769 -18 q 622 110 704 -18 q 539 260 581 185 q 424 449 504 317 q 300 290 406 443 q 188 68 188 125 q 242 31 188 44 q 306 18 274 24 q 176 4 303 4 l 81 4 q 0 4 4 4 l 0 15 q 149 157 71 60 q 285 346 183 201 q 388 497 388 490 q 339 585 388 511 q 204 799 271 692 q 31 946 121 917 q 31 951 31 946 q 29 960 29 957 q 133 960 35 960 q 174 963 136 960 q 215 967 213 967 q 388 806 272 967 q 497 635 442 719 q 701 858 599 746 q 928 989 833 989 q 979 971 965 989 z "},"y":{"ha":1039,"x_min":0,"x_max":900,"o":"m 899 950 q 860 901 886 935 q 667 621 806 829 q 579 486 635 574 q 556 442 571 472 l 551 251 q 567 26 551 42 q 635 1 571 21 q 633 -3 635 0 q 632 -8 632 -7 l 482 0 l 332 -8 q 369 19 351 6 q 401 65 394 42 q 419 243 419 165 q 411 365 419 339 q 339 486 408 374 q 119 825 257 610 q 78 892 88 876 q 38 943 58 921 q 19 950 32 949 q 0 954 1 953 q 6 965 0 960 l 222 971 q 356 749 289 860 q 538 476 463 574 q 640 651 557 500 q 740 890 740 833 q 661 943 740 944 l 661 956 l 860 956 q 899 950 900 956 z "},"z":{"ha":1090,"x_min":0,"x_max":882,"o":"m 882 113 q 831 13 882 115 q 779 -118 781 -89 l 768 -118 q 773 -78 768 -108 q 778 -46 778 -47 q 701 -1 778 -12 q 619 3 661 0 l 186 6 q 136 0 158 0 l 64 0 q 48 -3 61 0 q 31 -7 35 -7 l 0 -7 q 40 25 3 -1 q 107 85 83 54 q 383 522 225 236 q 607 929 494 725 l 383 918 l 303 918 q 181 905 275 918 q 51 882 86 892 q 47 888 47 882 q 75 918 47 889 q 114 963 103 947 q 147 1014 129 988 q 183 1056 164 1040 q 182 1039 185 1051 q 179 1025 179 1026 q 272 975 179 993 q 397 961 340 961 l 535 958 q 746 969 661 958 q 821 981 831 981 l 832 981 q 835 975 835 981 q 746 856 835 978 q 588 614 644 717 l 279 64 q 342 54 285 54 l 578 54 q 708 68 618 54 q 799 85 790 81 q 835 97 817 92 q 867 121 860 107 l 879 121 q 881 119 879 121 q 882 113 882 117 z "},"{":{"ha":431,"x_min":0,"x_max":257,"o":"m 257 -87 l 171 -118 q 150 -118 161 -118 q 51 -40 85 -118 q 25 96 25 19 q 58 265 25 181 q 149 406 90 349 q 0 467 49 432 q 25 486 10 475 l 111 546 q 144 567 128 558 q 146 575 146 569 q 118 633 146 576 q 38 936 38 797 q 99 1060 38 1036 l 203 1101 q 206 1093 204 1097 q 201 1069 206 1083 q 199 1058 201 1065 l 135 1024 q 121 972 121 1008 q 224 661 121 840 q 233 629 233 644 q 206 574 233 593 q 135 522 186 556 q 110 514 126 521 q 247 467 150 497 q 149 324 185 413 q 113 150 113 236 q 143 7 113 71 q 165 -37 161 -32 q 204 -62 182 -62 q 257 -37 226 -62 l 257 -87 z "},"|":{"ha":279,"x_min":0,"x_max":106,"o":"m 106 1049 q 76 501 89 790 q 72 -90 69 349 l 0 -90 q 25 578 17 210 q 15 1056 28 699 l 106 1049 z "},"}":{"ha":431,"x_min":0,"x_max":257,"o":"m 257 517 q 232 497 244 506 l 144 438 q 111 417 124 424 q 119 383 108 406 q 138 350 129 367 q 218 47 218 186 q 160 -76 218 -54 l 54 -118 q 51 -110 53 -114 q 58 -75 51 -99 l 124 -40 q 136 14 136 -25 q 51 290 136 133 q 24 354 24 343 q 51 410 24 390 q 149 469 101 457 q 11 517 61 503 q 108 659 72 571 q 143 833 143 747 q 113 976 143 913 q 92 1021 92 1019 q 51 1046 74 1046 q 0 1021 31 1046 l 0 1071 l 86 1101 q 107 1101 97 1101 q 207 1024 172 1101 q 232 888 232 964 q 199 717 232 801 q 107 578 167 633 q 257 517 208 551 z "},"~":{"ha":715,"x_min":0,"x_max":542,"o":"m 542 1043 l 482 939 q 331 894 385 894 q 218 928 275 894 q 157 942 194 942 q 0 888 61 942 l 64 999 q 206 1040 113 1040 q 268 1028 246 1040 q 381 994 326 994 q 542 1043 436 994 z "},"‘":{"ha":382,"x_min":0,"x_max":208,"o":"m 208 863 q 158 814 165 819 q 96 786 125 788 q 28 829 56 785 q 0 911 6 865 l 176 1113 q 149 956 150 1051 q 208 863 149 894 z "},"’":{"ha":382,"x_min":0,"x_max":208,"o":"m 32 778 q 60 903 61 843 q 0 1028 58 999 q 50 1076 21 1051 q 113 1104 83 1106 q 182 1060 154 1103 q 208 979 204 1025 l 32 778 z "},"“":{"ha":579,"x_min":0,"x_max":406,"o":"m 406 854 q 343 811 406 846 q 256 779 292 782 q 189 817 218 779 q 86 779 117 779 q 26 822 57 779 q 0 904 6 860 l 176 1106 q 150 997 150 1039 q 160 906 147 933 l 336 1107 q 303 981 303 1024 q 315 910 303 949 q 356 860 331 860 q 378 863 365 860 q 397 867 392 867 q 406 854 406 867 z "},"”":{"ha":579,"x_min":0,"x_max":406,"o":"m 229 781 q 261 917 263 863 q 246 985 261 956 l 69 779 q 103 907 103 864 q 89 981 103 944 q 38 1026 69 1026 l 25 1024 q 8 1019 17 1019 q 0 1031 0 1019 q 67 1077 0 1047 q 156 1107 133 1107 q 217 1069 190 1107 q 310 1107 292 1107 q 379 1064 350 1106 q 406 982 401 1026 l 229 781 z "},"‚":{"ha":382,"x_min":0,"x_max":208,"o":"m 32 -139 q 60 -14 61 -74 q 0 111 58 82 q 50 160 21 135 q 113 188 83 189 q 182 143 154 186 q 208 63 204 108 l 32 -139 z "},"ƒ":{"ha":768,"x_min":0,"x_max":594,"o":"m 594 985 q 565 950 585 975 q 549 904 554 932 q 538 861 540 869 q 524 881 529 865 q 431 931 504 925 l 257 936 q 201 931 204 936 q 196 851 199 890 l 189 492 q 307 483 217 483 q 358 485 310 483 q 410 485 407 485 q 535 519 456 485 q 538 511 538 515 q 526 484 538 510 q 511 443 515 458 q 501 393 506 418 q 485 349 493 358 q 471 424 486 407 q 396 450 456 440 q 315 456 350 456 l 189 456 l 189 297 q 194 144 190 247 q 42 -410 197 -283 q 19 -401 32 -410 q 65 -296 58 -372 l 65 808 q 51 886 58 847 q 0 943 38 938 l 0 957 q 36 958 13 957 q 60 958 60 958 q 141 963 89 958 q 217 969 193 968 l 510 976 q 544 980 511 976 q 594 985 576 983 z "},"„":{"ha":646,"x_min":0,"x_max":472,"o":"m 32 -139 q 60 -14 61 -74 q 0 111 58 82 q 50 160 21 135 q 113 188 83 189 q 182 143 154 186 q 208 63 204 108 l 32 -139 m 296 -139 q 324 -14 325 -74 q 264 111 322 82 q 314 160 285 135 q 376 188 347 189 q 446 143 418 186 q 472 63 468 108 l 296 -139 z "},"…":{"ha":1171,"x_min":0,"x_max":997,"o":"m 247 43 q 240 32 247 38 q 178 -10 200 4 q 110 -36 135 -35 q 58 21 76 -37 q 35 79 40 79 q 22 77 28 79 q 13 74 17 75 q 0 85 0 74 q 85 136 0 97 q 121 151 97 142 q 136 154 125 153 q 180 103 165 154 q 211 50 194 53 q 222 51 217 50 l 233 54 q 247 43 246 54 m 622 43 q 615 32 622 38 q 553 -10 575 4 q 485 -36 510 -35 q 433 21 451 -37 q 410 79 415 79 q 397 77 403 79 q 388 74 392 75 q 375 85 375 74 q 460 136 375 97 q 496 151 472 142 q 511 154 500 153 q 555 103 540 154 q 586 50 569 53 q 597 51 592 50 l 608 54 q 622 43 621 54 m 997 43 q 990 32 997 38 q 928 -10 950 4 q 860 -36 885 -35 q 808 21 826 -37 q 785 79 790 79 q 772 77 778 79 q 763 74 767 75 q 750 85 750 74 q 835 136 750 97 q 871 151 847 142 q 886 154 875 153 q 930 103 915 154 q 961 50 944 53 q 972 51 967 50 l 983 54 q 997 43 996 54 z "},"†":{"ha":1121,"x_min":0,"x_max":947,"o":"m 947 988 l 843 883 q 578 839 672 839 q 531 840 554 839 q 525 635 526 743 l 522 124 q 528 72 525 97 q 542 22 529 40 q 575 4 542 21 q 569 -8 575 1 l 375 -8 l 397 263 l 403 522 q 401 865 403 819 q 381 872 392 868 q 274 886 340 886 q 0 832 107 886 l 111 943 q 360 985 196 985 q 396 983 379 985 q 396 1024 396 1004 q 361 1118 394 1078 q 403 1119 374 1118 l 432 1119 q 511 1126 479 1119 q 540 1135 540 1133 l 550 1135 q 536 953 542 1049 q 665 939 603 939 q 947 988 763 939 z "},"‡":{"ha":1121,"x_min":0,"x_max":947,"o":"m 947 988 l 843 883 q 578 839 672 839 q 531 840 554 839 q 525 635 526 743 l 522 219 q 665 203 596 203 q 947 251 763 203 l 843 147 q 578 103 672 103 q 524 104 551 103 q 528 72 525 88 q 542 22 529 40 q 575 4 542 21 q 569 -8 575 1 l 375 -8 l 386 133 q 381 136 383 135 q 274 150 340 150 q 0 96 107 150 l 111 207 q 360 249 196 249 q 396 247 379 249 l 397 263 l 403 522 q 401 865 403 819 q 381 872 392 868 q 274 886 340 886 q 0 832 107 886 l 111 943 q 360 985 196 985 q 396 983 379 985 q 396 1024 396 1004 q 361 1118 394 1078 q 403 1119 374 1118 l 432 1119 q 511 1126 479 1119 q 540 1135 540 1133 l 550 1135 q 536 953 542 1049 q 665 939 603 939 q 947 988 763 939 z "},"ˆ":{"ha":703,"x_min":0,"x_max":529,"o":"m 221 979 q 119 882 194 932 q 0 801 6 807 l 63 911 q 179 988 83 925 q 274 1086 246 1032 q 385 976 313 1015 q 529 917 390 974 l 474 819 l 332 878 q 221 979 258 917 z "},"›":{"ha":701,"x_min":0,"x_max":528,"o":"m 356 365 q 153 532 231 422 l 36 744 l 189 814 q 308 597 303 606 q 528 431 386 489 q 372 303 461 403 q 219 128 247 160 l 0 35 q 161 214 11 43 q 356 365 261 326 z "},"•":{"ha":544,"x_min":0,"x_max":371,"o":"m 371 536 q 360 519 371 528 q 267 457 300 478 q 164 418 201 419 q 87 503 114 415 q 51 590 60 590 q 33 588 42 590 q 18 582 25 585 q 0 599 0 582 q 126 676 0 618 q 181 699 146 685 q 204 703 188 701 q 269 627 247 703 q 317 547 292 551 q 333 549 325 547 l 350 553 q 371 536 368 553 z "},"–":{"ha":1121,"x_min":0,"x_max":947,"o":"m 947 488 l 843 383 q 578 339 672 339 q 381 372 481 339 q 274 386 340 386 q 0 332 107 386 l 111 443 q 360 485 196 485 q 468 472 429 485 q 665 439 571 439 q 947 488 763 439 z "},"—":{"ha":1528,"x_min":0,"x_max":1354,"o":"m 1354 486 l 1206 382 q 826 338 963 338 q 546 371 688 338 q 393 385 486 385 q 0 331 153 385 l 160 442 q 514 483 282 483 q 671 471 615 483 q 951 438 817 438 q 1354 486 1090 438 z "},"˜":{"ha":715,"x_min":0,"x_max":542,"o":"m 542 988 l 482 883 q 331 839 385 839 q 218 872 275 839 q 157 886 194 886 q 0 832 61 886 l 64 943 q 206 985 113 985 q 268 972 246 985 q 381 939 326 939 q 542 988 436 939 z "},"¡":{"ha":374,"x_min":0,"x_max":200,"o":"m 0 714 q 106 764 36 729 l 132 764 l 138 74 q 167 29 138 29 l 200 36 q 117 -4 151 6 l 103 -3 q 61 -19 93 -3 l 47 -19 q 39 49 39 1 q 42 351 39 140 l 44 654 q 32 694 44 675 q 0 714 19 713 m 10 907 q 36 974 10 943 q 99 1006 63 1006 q 153 939 153 1006 q 130 867 153 899 q 68 836 107 836 q 32 844 57 836 q 10 907 10 874 z "},"¯":{"ha":715,"x_min":0,"x_max":542,"o":"m 542 1043 l 482 939 q 331 894 385 894 q 218 928 275 894 q 157 942 194 942 q 0 888 61 942 l 64 999 q 206 1040 113 1040 q 268 1028 246 1040 q 381 994 326 994 q 542 1043 436 994 z "},"­":{"ha":715,"x_min":0,"x_max":542,"o":"m 542 488 l 482 383 q 331 339 385 339 q 218 372 275 339 q 157 386 194 386 q 0 332 61 386 l 64 443 q 206 485 113 485 q 268 472 246 485 q 381 439 326 439 q 542 488 436 439 z "},"¬":{"ha":1543,"x_min":0,"x_max":1369,"o":"m 1354 486 l 1206 382 q 826 338 963 338 q 546 371 688 338 q 393 385 486 385 q 0 331 153 385 l 160 442 q 514 483 282 483 q 671 471 615 483 q 951 438 817 438 q 1354 486 1090 438 m 1226 507 l 1328 444 q 1368 292 1369 346 q 1331 179 1367 236 q 1315 119 1317 157 q 1364 -39 1313 24 l 1256 28 q 1218 171 1215 78 q 1232 233 1219 211 q 1269 344 1268 290 q 1226 507 1271 400 z "},"«":{"ha":1243,"x_min":0,"x_max":1069,"o":"m 158 497 q 361 331 283 440 l 478 118 l 339 49 q 206 265 211 257 q 0 432 86 360 q 142 560 53 460 q 294 735 267 703 l 514 828 q 353 649 503 819 q 158 497 253 536 m 714 497 q 917 331 839 440 l 1033 118 l 894 49 q 761 265 767 257 q 556 432 642 360 q 697 560 608 460 q 850 735 822 703 l 1069 828 q 908 649 1058 819 q 714 497 808 536 z "},"»":{"ha":1257,"x_min":0,"x_max":1083,"o":"m 356 365 q 153 532 231 422 l 36 744 l 189 814 q 308 597 303 606 q 528 431 386 489 q 372 303 461 403 q 219 128 247 160 l 0 35 q 161 214 11 43 q 356 365 261 326 m 911 365 q 708 532 786 422 l 592 744 l 744 814 q 864 597 858 606 q 1083 431 942 489 q 928 303 1017 403 q 775 128 803 160 l 556 35 q 717 214 567 43 q 911 365 817 326 z "},"·":{"ha":421,"x_min":0,"x_max":247,"o":"m 247 599 q 240 588 247 593 q 178 546 200 560 q 110 519 135 521 q 58 576 76 518 q 35 635 40 635 q 22 633 28 635 q 13 629 17 631 q 0 640 0 629 q 85 692 0 653 q 121 707 97 697 q 136 710 125 708 q 180 659 165 710 q 211 606 194 608 q 222 607 217 606 l 233 610 q 247 599 246 610 z "},"¨":{"ha":726,"x_min":0,"x_max":553,"o":"m 247 876 q 240 865 247 871 q 178 824 200 838 q 110 797 135 799 q 58 854 76 796 q 35 913 40 913 q 22 910 28 913 q 13 907 17 908 q 0 918 0 907 q 85 969 0 931 q 121 985 97 975 q 136 988 125 986 q 180 937 165 988 q 211 883 194 886 q 222 885 217 883 l 233 888 q 247 876 246 888 m 553 876 q 546 865 553 871 q 483 824 506 838 q 415 797 440 799 q 364 854 382 796 q 340 913 346 913 q 328 910 333 913 q 318 907 322 908 q 306 918 306 907 q 390 969 306 931 q 426 985 403 975 q 442 988 431 986 q 485 937 471 988 q 517 883 500 886 q 528 885 522 883 l 539 888 q 553 876 551 888 z "},"´":{"ha":451,"x_min":0,"x_max":278,"o":"m 0 807 q 88 878 43 828 q 150 974 133 929 q 278 985 178 965 q 160 861 243 918 q 0 807 68 800 z "},"¸":{"ha":426,"x_min":0,"x_max":253,"o":"m 253 -253 q 229 -290 242 -274 q 126 -339 175 -357 q 52 -279 104 -331 q 6 -212 0 -228 q 21 -207 10 -203 q 33 -216 28 -211 q 56 -226 39 -221 q 102 -200 72 -233 q 149 -124 132 -167 q 158 -1 160 -92 l 253 -253 l 253 -253 z "},"À":{"ha":1235,"x_min":0,"x_max":1061,"o":"m 1061 4 l 904 -4 q 763 115 822 -4 q 693 275 728 196 q 601 467 667 343 l 321 467 q 267 394 300 467 q 233 310 250 351 q 178 121 178 179 q 222 44 178 63 q 331 10 276 26 l 146 -11 q 74 -6 125 -11 q 0 -1 22 -1 q 128 165 74 54 q 304 557 183 275 q 438 904 438 869 q 421 941 438 926 q 382 956 404 956 q 369 954 379 956 q 356 954 358 954 q 343 960 349 954 q 359 969 343 967 q 389 974 375 972 l 547 978 q 614 907 579 978 q 651 817 632 863 q 786 461 718 639 q 983 63 890 200 q 1032 21 1000 36 q 1061 4 1060 7 m 594 494 l 594 506 q 500 756 594 508 q 460 835 489 788 l 317 494 l 594 494 m 614 1121 q 454 1176 546 1114 q 336 1299 371 1232 q 464 1289 436 1279 q 526 1193 481 1243 q 614 1121 571 1143 z "},"Á":{"ha":1235,"x_min":0,"x_max":1061,"o":"m 1061 4 l 904 -4 q 763 115 822 -4 q 693 275 728 196 q 601 467 667 343 l 321 467 q 267 394 300 467 q 233 310 250 351 q 178 121 178 179 q 222 44 178 63 q 331 10 276 26 l 146 -11 q 74 -6 125 -11 q 0 -1 22 -1 q 128 165 74 54 q 304 557 183 275 q 438 904 438 869 q 421 941 438 926 q 382 956 404 956 q 369 954 379 956 q 356 954 358 954 q 343 960 349 954 q 359 969 343 967 q 389 974 375 972 l 547 978 q 614 907 579 978 q 651 817 632 863 q 786 461 718 639 q 983 63 890 200 q 1032 21 1000 36 q 1061 4 1060 7 m 594 494 l 594 506 q 500 756 594 508 q 460 835 489 788 l 317 494 l 594 494 m 392 1126 q 480 1198 435 1147 q 542 1293 525 1249 q 669 1304 569 1285 q 551 1181 635 1238 q 392 1126 460 1119 z "},"Â":{"ha":1235,"x_min":0,"x_max":1061,"o":"m 1061 4 l 904 -4 q 763 115 822 -4 q 693 275 728 196 q 601 467 667 343 l 321 467 q 267 394 300 467 q 233 310 250 351 q 178 121 178 179 q 222 44 178 63 q 331 10 276 26 l 146 -11 q 74 -6 125 -11 q 0 -1 22 -1 q 128 165 74 54 q 304 557 183 275 q 438 904 438 869 q 421 941 438 926 q 382 956 404 956 q 369 954 379 956 q 356 954 358 954 q 343 960 349 954 q 359 969 343 967 q 389 974 375 972 l 547 978 q 614 907 579 978 q 651 817 632 863 q 786 461 718 639 q 983 63 890 200 q 1032 21 1000 36 q 1061 4 1060 7 m 594 494 l 594 506 q 500 756 594 508 q 460 835 489 788 l 317 494 l 594 494 m 458 1274 q 357 1176 432 1226 q 238 1096 243 1101 l 300 1206 q 417 1282 321 1219 q 511 1381 483 1326 q 622 1271 550 1310 q 767 1211 628 1268 l 711 1114 l 569 1172 q 458 1274 496 1211 z "},"Ã":{"ha":1235,"x_min":0,"x_max":1061,"o":"m 1061 4 l 904 -4 q 763 115 822 -4 q 693 275 728 196 q 601 467 667 343 l 321 467 q 267 394 300 467 q 233 310 250 351 q 178 121 178 179 q 222 44 178 63 q 331 10 276 26 l 146 -11 q 74 -6 125 -11 q 0 -1 22 -1 q 128 165 74 54 q 304 557 183 275 q 438 904 438 869 q 421 941 438 926 q 382 956 404 956 q 369 954 379 956 q 356 954 358 954 q 343 960 349 954 q 359 969 343 967 q 389 974 375 972 l 547 978 q 614 907 579 978 q 651 817 632 863 q 786 461 718 639 q 983 63 890 200 q 1032 21 1000 36 q 1061 4 1060 7 m 594 494 l 594 506 q 500 756 594 508 q 460 835 489 788 l 317 494 l 594 494 m 774 1274 l 714 1169 q 563 1125 617 1125 q 450 1158 507 1125 q 389 1172 426 1172 q 232 1118 293 1172 l 296 1229 q 438 1271 344 1271 q 500 1258 478 1271 q 613 1225 558 1225 q 774 1274 668 1225 z "},"Ä":{"ha":1235,"x_min":0,"x_max":1061,"o":"m 1061 4 l 904 -4 q 763 115 822 -4 q 693 275 728 196 q 601 467 667 343 l 321 467 q 267 394 300 467 q 233 310 250 351 q 178 121 178 179 q 222 44 178 63 q 331 10 276 26 l 146 -11 q 74 -6 125 -11 q 0 -1 22 -1 q 128 165 74 54 q 304 557 183 275 q 438 904 438 869 q 421 941 438 926 q 382 956 404 956 q 369 954 379 956 q 356 954 358 954 q 343 960 349 954 q 359 969 343 967 q 389 974 375 972 l 547 978 q 614 907 579 978 q 651 817 632 863 q 786 461 718 639 q 983 63 890 200 q 1032 21 1000 36 q 1061 4 1060 7 m 594 494 l 594 506 q 500 756 594 508 q 460 835 489 788 l 317 494 l 594 494 m 460 1196 q 453 1185 460 1190 q 390 1143 413 1157 q 322 1117 347 1118 q 271 1174 289 1115 q 247 1232 253 1232 q 235 1230 240 1232 q 225 1226 229 1228 q 213 1238 213 1226 q 297 1289 213 1250 q 333 1304 310 1294 q 349 1307 338 1306 q 392 1256 378 1307 q 424 1203 407 1206 q 435 1204 429 1203 l 446 1207 q 460 1196 458 1207 m 765 1196 q 758 1185 765 1190 q 696 1143 718 1157 q 628 1117 653 1118 q 576 1174 594 1115 q 553 1232 558 1232 q 540 1230 546 1232 q 531 1226 535 1228 q 518 1238 518 1226 q 603 1289 518 1250 q 639 1304 615 1294 q 654 1307 643 1306 q 698 1256 683 1307 q 729 1203 713 1206 q 740 1204 735 1203 l 751 1207 q 765 1196 764 1207 z "},"Å":{"ha":1235,"x_min":0,"x_max":1061,"o":"m 704 1336 q 651 1188 704 1251 q 497 1117 592 1117 l 486 1117 q 360 1153 410 1117 q 288 1283 300 1196 q 288 1306 286 1293 q 365 1457 300 1407 q 510 1499 421 1499 q 650 1453 596 1499 q 704 1336 704 1408 m 650 1274 q 600 1411 650 1349 q 456 1481 542 1481 q 364 1443 399 1481 q 332 1356 332 1408 q 367 1247 332 1296 q 468 1163 401 1194 q 540 1143 511 1143 l 551 1143 q 619 1171 590 1143 q 650 1244 649 1200 q 650 1267 650 1257 q 650 1274 650 1274 m 1061 4 l 904 -4 q 763 115 822 -4 q 693 275 728 196 q 601 467 667 343 l 321 467 q 267 394 300 467 q 233 310 250 351 q 178 121 178 179 q 222 44 178 63 q 331 10 276 26 l 146 -11 q 74 -6 125 -11 q 0 -1 22 -1 q 128 165 74 54 q 304 557 183 275 q 438 904 438 869 q 421 941 438 926 q 382 956 404 956 q 369 954 379 956 q 356 954 358 954 q 343 960 349 954 q 359 969 343 967 q 389 974 375 972 l 547 978 q 614 907 579 978 q 651 817 632 863 q 786 461 718 639 q 983 63 890 200 q 1032 21 1000 36 q 1061 4 1060 7 m 594 494 l 594 506 q 500 756 594 508 q 460 835 489 788 l 317 494 l 594 494 z "},"Ç":{"ha":1075,"x_min":0,"x_max":901,"o":"m 901 904 q 797 703 833 832 q 792 701 796 703 q 788 700 789 700 q 790 728 790 714 q 661 875 790 817 q 451 921 557 921 q 271 879 350 921 q 151 718 167 825 q 138 679 144 713 q 132 628 132 646 q 133 614 132 632 q 135 560 135 596 q 315 208 154 358 q 651 63 471 63 q 788 85 726 63 q 849 107 849 107 q 864 97 857 107 q 769 51 854 82 q 539 -12 597 -12 q 507 -14 536 -12 q 474 -15 478 -15 q 129 142 268 -15 q 0 488 0 290 q 58 739 0 656 q 272 913 135 850 q 519 968 394 968 q 667 961 518 968 l 901 915 l 901 904 m 757 -239 l 663 13 q 653 -110 664 -78 q 606 -186 636 -153 q 560 -212 576 -219 q 538 -202 543 -207 q 525 -193 532 -197 q 510 -199 514 -189 q 556 -265 504 -214 q 631 -325 608 -317 q 733 -276 679 -343 q 757 -239 746 -260 z "},"È":{"ha":910,"x_min":0,"x_max":736,"o":"m 736 67 q 679 -8 704 43 q 639 -89 658 -49 q 629 -36 638 -69 q 464 0 611 0 l 74 -10 q 92 65 83 6 q 101 165 101 125 l 111 329 l 111 501 q 110 528 111 503 q 108 556 108 553 l 108 643 q 103 775 108 681 q 86 911 96 903 q 43 928 67 926 q 0 931 3 931 q 1 935 0 932 q 3 940 3 939 l 649 963 q 606 875 629 931 q 593 842 601 865 q 588 843 592 842 q 583 844 585 844 q 588 861 588 853 q 549 900 588 885 q 493 914 518 914 q 482 908 485 914 q 326 928 446 928 q 270 923 282 928 q 257 882 258 918 q 256 826 256 854 q 244 607 253 753 q 243 524 244 533 q 365 517 286 517 q 613 557 496 517 q 618 547 618 551 q 599 496 618 544 q 574 431 576 442 q 560 445 567 431 q 547 465 554 460 q 333 494 501 494 q 249 486 319 494 q 242 460 242 475 l 242 151 q 243 128 242 150 q 244 97 244 107 q 249 51 244 71 q 436 32 318 32 l 494 32 q 619 49 538 32 q 722 82 700 67 l 735 79 l 736 67 m 479 1126 q 319 1182 411 1119 q 201 1304 236 1238 q 329 1294 301 1285 q 391 1199 346 1249 q 479 1126 436 1149 z "},"É":{"ha":910,"x_min":0,"x_max":736,"o":"m 736 67 q 679 -8 704 43 q 639 -89 658 -49 q 629 -36 638 -69 q 464 0 611 0 l 74 -10 q 92 65 83 6 q 101 165 101 125 l 111 329 l 111 501 q 110 528 111 503 q 108 556 108 553 l 108 643 q 103 775 108 681 q 86 911 96 903 q 43 928 67 926 q 0 931 3 931 q 1 935 0 932 q 3 940 3 939 l 649 963 q 606 875 629 931 q 593 842 601 865 q 588 843 592 842 q 583 844 585 844 q 588 861 588 853 q 549 900 588 885 q 493 914 518 914 q 482 908 485 914 q 326 928 446 928 q 270 923 282 928 q 257 882 258 918 q 256 826 256 854 q 244 607 253 753 q 243 524 244 533 q 365 517 286 517 q 613 557 496 517 q 618 547 618 551 q 599 496 618 544 q 574 431 576 442 q 560 445 567 431 q 547 465 554 460 q 333 494 501 494 q 249 486 319 494 q 242 460 242 475 l 242 151 q 243 128 242 150 q 244 97 244 107 q 249 51 244 71 q 436 32 318 32 l 494 32 q 619 49 538 32 q 722 82 700 67 l 735 79 l 736 67 m 258 1124 q 347 1195 301 1144 q 408 1290 392 1246 q 536 1301 436 1282 q 418 1178 501 1235 q 258 1124 326 1117 z "},"Ê":{"ha":910,"x_min":0,"x_max":736,"o":"m 736 67 q 679 -8 704 43 q 639 -89 658 -49 q 629 -36 638 -69 q 464 0 611 0 l 74 -10 q 92 65 83 6 q 101 165 101 125 l 111 329 l 111 501 q 110 528 111 503 q 108 556 108 553 l 108 643 q 103 775 108 681 q 86 911 96 903 q 43 928 67 926 q 0 931 3 931 q 1 935 0 932 q 3 940 3 939 l 649 963 q 606 875 629 931 q 593 842 601 865 q 588 843 592 842 q 583 844 585 844 q 588 861 588 853 q 549 900 588 885 q 493 914 518 914 q 482 908 485 914 q 326 928 446 928 q 270 923 282 928 q 257 882 258 918 q 256 826 256 854 q 244 607 253 753 q 243 524 244 533 q 365 517 286 517 q 613 557 496 517 q 618 547 618 551 q 599 496 618 544 q 574 431 576 442 q 560 445 567 431 q 547 465 554 460 q 333 494 501 494 q 249 486 319 494 q 242 460 242 475 l 242 151 q 243 128 242 150 q 244 97 244 107 q 249 51 244 71 q 436 32 318 32 l 494 32 q 619 49 538 32 q 722 82 700 67 l 735 79 l 736 67 m 324 1281 q 222 1183 297 1233 q 103 1103 108 1108 l 165 1213 q 282 1289 186 1226 q 376 1388 349 1333 q 488 1278 415 1317 q 632 1218 493 1275 l 576 1121 l 435 1179 q 324 1281 361 1218 z "},"Ë":{"ha":910,"x_min":0,"x_max":736,"o":"m 736 67 q 679 -8 704 43 q 639 -89 658 -49 q 629 -36 638 -69 q 464 0 611 0 l 74 -10 q 92 65 83 6 q 101 165 101 125 l 111 329 l 111 501 q 110 528 111 503 q 108 556 108 553 l 108 643 q 103 775 108 681 q 86 911 96 903 q 43 928 67 926 q 0 931 3 931 q 1 935 0 932 q 3 940 3 939 l 649 963 q 606 875 629 931 q 593 842 601 865 q 588 843 592 842 q 583 844 585 844 q 588 861 588 853 q 549 900 588 885 q 493 914 518 914 q 482 908 485 914 q 326 928 446 928 q 270 923 282 928 q 257 882 258 918 q 256 826 256 854 q 244 607 253 753 q 243 524 244 533 q 365 517 286 517 q 613 557 496 517 q 618 547 618 551 q 599 496 618 544 q 574 431 576 442 q 560 445 567 431 q 547 465 554 460 q 333 494 501 494 q 249 486 319 494 q 242 460 242 475 l 242 151 q 243 128 242 150 q 244 97 244 107 q 249 51 244 71 q 436 32 318 32 l 494 32 q 619 49 538 32 q 722 82 700 67 l 735 79 l 736 67 m 311 1199 q 304 1188 311 1193 q 242 1146 264 1160 q 174 1119 199 1121 q 122 1176 140 1118 q 99 1235 104 1235 q 86 1233 92 1235 q 76 1229 81 1231 q 64 1240 64 1229 q 149 1292 64 1253 q 185 1307 161 1297 q 200 1310 189 1308 q 244 1259 229 1310 q 275 1206 258 1208 q 286 1207 281 1206 l 297 1210 q 311 1199 310 1210 m 617 1199 q 610 1188 617 1193 q 547 1146 569 1160 q 479 1119 504 1121 q 428 1176 446 1118 q 404 1235 410 1235 q 392 1233 397 1235 q 382 1229 386 1231 q 369 1240 369 1229 q 454 1292 369 1253 q 490 1307 467 1297 q 506 1310 494 1308 q 549 1259 535 1310 q 581 1206 564 1208 q 592 1207 586 1206 l 603 1210 q 617 1199 615 1210 z "},"Ì":{"ha":451,"x_min":0,"x_max":278,"o":"m 272 4 q 267 -7 272 1 l 50 -7 l 75 228 l 81 454 q 79 765 81 767 q 76 800 79 778 q 74 891 75 844 q 35 972 72 938 q 81 974 49 972 q 114 974 117 974 q 202 980 165 974 q 233 986 239 986 l 244 986 q 217 551 222 800 l 214 107 q 219 63 217 85 q 235 19 222 35 q 272 4 235 18 m 278 1118 q 118 1174 210 1111 q 0 1296 35 1229 q 128 1286 100 1276 q 190 1190 144 1240 q 278 1118 235 1140 z "},"Í":{"ha":458,"x_min":0,"x_max":285,"o":"m 238 4 q 232 -7 238 1 l 15 -7 l 40 228 l 46 454 q 44 765 46 767 q 42 800 44 778 q 39 891 40 844 q 0 972 38 938 q 46 974 14 972 q 79 974 82 974 q 167 980 131 974 q 199 986 204 986 l 210 986 q 182 551 188 800 l 179 107 q 185 63 182 85 q 200 19 188 35 q 238 4 200 18 m 7 1126 q 95 1198 50 1147 q 157 1293 140 1249 q 285 1304 185 1285 q 167 1181 250 1238 q 7 1126 75 1119 z "},"Î":{"ha":703,"x_min":0,"x_max":529,"o":"m 369 4 q 364 -7 369 1 l 147 -7 l 172 228 l 178 454 q 176 765 178 767 q 174 800 176 778 q 171 891 172 844 q 132 972 169 938 q 178 974 146 972 q 211 974 214 974 q 299 980 263 974 q 331 986 336 986 l 342 986 q 314 551 319 800 l 311 107 q 317 63 314 85 q 332 19 319 35 q 369 4 332 18 m 221 1271 q 119 1174 194 1224 q 0 1093 6 1099 l 63 1203 q 179 1279 83 1217 q 274 1378 246 1324 q 385 1268 313 1307 q 529 1208 390 1265 l 474 1111 l 332 1169 q 221 1271 258 1208 z "},"Ï":{"ha":726,"x_min":0,"x_max":553,"o":"m 394 4 q 389 -7 394 1 l 172 -7 l 197 228 l 203 454 q 201 765 203 767 q 199 800 201 778 q 196 891 197 844 q 157 972 194 938 q 203 974 171 972 q 236 974 239 974 q 324 980 288 974 q 356 986 361 986 l 367 986 q 339 551 344 800 l 336 107 q 342 63 339 85 q 357 19 344 35 q 394 4 357 18 m 247 1196 q 240 1185 247 1190 q 178 1143 200 1157 q 110 1117 135 1118 q 58 1174 76 1115 q 35 1232 40 1232 q 22 1230 28 1232 q 13 1226 17 1228 q 0 1238 0 1226 q 85 1289 0 1250 q 121 1304 97 1294 q 136 1307 125 1306 q 180 1256 165 1307 q 211 1203 194 1206 q 222 1204 217 1203 l 233 1207 q 247 1196 246 1207 m 553 1196 q 546 1185 553 1190 q 483 1143 506 1157 q 415 1117 440 1118 q 364 1174 382 1115 q 340 1232 346 1232 q 328 1230 333 1232 q 318 1226 322 1228 q 306 1238 306 1226 q 390 1289 306 1250 q 426 1304 403 1294 q 442 1307 431 1306 q 485 1256 471 1307 q 517 1203 500 1206 q 528 1204 522 1203 l 539 1207 q 553 1196 551 1207 z "},"Ñ":{"ha":1318,"x_min":0,"x_max":1144,"o":"m 1144 958 q 1088 938 1132 949 q 1019 917 1036 926 q 990 599 990 617 l 990 533 q 975 250 990 499 q 958 -6 967 122 q 950 -8 956 -8 q 879 57 946 -8 q 492 444 631 301 q 190 751 278 664 q 189 304 181 572 q 203 119 189 249 q 210 88 207 94 q 226 67 215 74 q 297 47 261 47 q 371 39 321 47 q 265 17 369 39 q 138 1 189 1 q 32 10 68 1 q 76 42 35 13 q 113 89 104 61 q 142 453 142 193 l 142 531 l 151 700 q 131 838 151 793 q 0 949 99 906 q 253 969 86 958 q 576 575 363 801 q 926 226 658 490 q 931 243 931 232 l 924 457 q 907 763 915 614 q 896 908 906 811 q 878 917 894 917 q 843 915 878 917 q 792 913 808 913 q 867 942 801 919 q 969 967 940 967 l 1144 958 m 815 1265 l 756 1161 q 604 1117 658 1117 q 492 1150 549 1117 q 431 1164 468 1164 q 274 1110 335 1164 l 338 1221 q 479 1263 386 1263 q 542 1250 519 1263 q 654 1217 600 1217 q 815 1265 710 1217 z "},"Ò":{"ha":1228,"x_min":0,"x_max":1054,"o":"m 1054 553 q 921 160 1054 328 q 533 -29 772 -29 l 504 -29 q 183 68 310 -29 q 4 411 35 181 q 4 474 0 440 q 200 872 36 740 q 564 985 342 985 q 917 864 781 985 q 1054 553 1054 743 m 918 385 q 790 753 918 588 q 426 935 646 935 q 197 836 282 935 q 117 606 117 744 q 201 317 117 447 q 461 93 290 178 q 639 40 568 40 l 667 40 q 839 114 765 40 q 917 310 915 193 q 918 367 917 344 q 918 385 918 388 m 610 1118 q 450 1174 542 1111 q 332 1296 367 1229 q 460 1286 432 1276 q 522 1190 476 1240 q 610 1118 567 1140 z "},"Ó":{"ha":1228,"x_min":0,"x_max":1054,"o":"m 1054 553 q 921 160 1054 328 q 533 -29 772 -29 l 504 -29 q 183 68 310 -29 q 4 411 35 181 q 4 474 0 440 q 200 872 36 740 q 564 985 342 985 q 917 864 781 985 q 1054 553 1054 743 m 918 385 q 790 753 918 588 q 426 935 646 935 q 197 836 282 935 q 117 606 117 744 q 201 317 117 447 q 461 93 290 178 q 639 40 568 40 l 667 40 q 839 114 765 40 q 917 310 915 193 q 918 367 917 344 q 918 385 918 388 m 388 1126 q 476 1198 431 1147 q 538 1293 521 1249 q 665 1304 565 1285 q 547 1181 631 1238 q 388 1126 456 1119 z "},"Ô":{"ha":1228,"x_min":0,"x_max":1054,"o":"m 1054 553 q 921 160 1054 328 q 533 -29 772 -29 l 504 -29 q 183 68 310 -29 q 4 411 35 181 q 4 474 0 440 q 200 872 36 740 q 564 985 342 985 q 917 864 781 985 q 1054 553 1054 743 m 918 385 q 790 753 918 588 q 426 935 646 935 q 197 836 282 935 q 117 606 117 744 q 201 317 117 447 q 461 93 290 178 q 639 40 568 40 l 667 40 q 839 114 765 40 q 917 310 915 193 q 918 367 917 344 q 918 385 918 388 m 483 1272 q 382 1175 457 1225 q 263 1094 268 1100 l 325 1204 q 442 1281 346 1218 q 536 1379 508 1325 q 647 1269 575 1308 q 792 1210 653 1267 l 736 1113 l 594 1171 q 483 1272 521 1210 z "},"Õ":{"ha":1228,"x_min":0,"x_max":1054,"o":"m 1054 553 q 921 160 1054 328 q 533 -29 772 -29 l 504 -29 q 183 68 310 -29 q 4 411 35 181 q 4 474 0 440 q 200 872 36 740 q 564 985 342 985 q 917 864 781 985 q 1054 553 1054 743 m 918 385 q 790 753 918 588 q 426 935 646 935 q 197 836 282 935 q 117 606 117 744 q 201 317 117 447 q 461 93 290 178 q 639 40 568 40 l 667 40 q 839 114 765 40 q 917 310 915 193 q 918 367 917 344 q 918 385 918 388 m 756 1265 l 696 1161 q 544 1117 599 1117 q 432 1150 489 1117 q 371 1164 408 1164 q 214 1110 275 1164 l 278 1221 q 419 1263 326 1263 q 482 1250 460 1263 q 594 1217 540 1217 q 756 1265 650 1217 z "},"Ö":{"ha":1228,"x_min":0,"x_max":1054,"o":"m 1054 553 q 921 160 1054 328 q 533 -29 772 -29 l 504 -29 q 183 68 310 -29 q 4 411 35 181 q 4 474 0 440 q 200 872 36 740 q 564 985 342 985 q 917 864 781 985 q 1054 553 1054 743 m 918 385 q 790 753 918 588 q 426 935 646 935 q 197 836 282 935 q 117 606 117 744 q 201 317 117 447 q 461 93 290 178 q 639 40 568 40 l 667 40 q 839 114 765 40 q 917 310 915 193 q 918 367 917 344 q 918 385 918 388 m 483 1196 q 476 1185 483 1190 q 414 1143 436 1157 q 346 1117 371 1118 q 294 1174 313 1115 q 271 1232 276 1232 q 258 1230 264 1232 q 249 1226 253 1228 q 236 1238 236 1226 q 321 1289 236 1250 q 357 1304 333 1294 q 372 1307 361 1306 q 416 1256 401 1307 q 447 1203 431 1206 q 458 1204 453 1203 l 469 1207 q 483 1196 482 1207 m 789 1196 q 782 1185 789 1190 q 719 1143 742 1157 q 651 1117 676 1118 q 600 1174 618 1115 q 576 1232 582 1232 q 564 1230 569 1232 q 554 1226 558 1228 q 542 1238 542 1226 q 626 1289 542 1250 q 663 1304 639 1294 q 678 1307 667 1306 q 722 1256 707 1307 q 753 1203 736 1206 q 764 1204 758 1203 l 775 1207 q 789 1196 788 1207 z "},"Ù":{"ha":1136,"x_min":0,"x_max":963,"o":"m 963 22 q 889 15 925 15 q 869 14 890 15 q 840 14 851 13 l 732 -3 q 717 40 717 3 q 717 94 717 68 q 582 31 635 51 q 482 4 558 22 q 365 -15 396 -15 l 321 -15 q 103 54 161 -15 q 46 296 46 124 q 47 385 46 335 l 53 789 q 40 864 47 840 q 0 922 28 910 l 0 933 q 196 960 99 940 l 196 944 q 192 914 196 942 q 186 874 188 886 q 179 772 179 758 l 179 694 q 176 669 179 692 q 174 642 174 646 l 174 385 q 196 263 174 342 q 233 171 218 179 q 349 74 281 97 q 476 57 394 57 q 633 89 578 57 q 728 250 711 133 l 736 572 l 733 799 q 728 879 732 804 q 665 951 725 944 q 758 968 669 963 q 868 975 865 974 q 876 964 876 967 l 849 700 q 844 476 849 625 q 839 254 839 328 q 851 147 839 210 q 869 76 861 90 q 913 42 882 53 q 963 22 957 26 m 578 1122 q 418 1178 510 1115 q 300 1300 335 1233 q 428 1290 400 1281 q 490 1194 444 1244 q 578 1122 535 1144 z "},"Ú":{"ha":1136,"x_min":0,"x_max":963,"o":"m 963 22 q 889 15 925 15 q 869 14 890 15 q 840 14 851 13 l 732 -3 q 717 40 717 3 q 717 94 717 68 q 582 31 635 51 q 482 4 558 22 q 365 -15 396 -15 l 321 -15 q 103 54 161 -15 q 46 296 46 124 q 47 385 46 335 l 53 789 q 40 864 47 840 q 0 922 28 910 l 0 933 q 196 960 99 940 l 196 944 q 192 914 196 942 q 186 874 188 886 q 179 772 179 758 l 179 694 q 176 669 179 692 q 174 642 174 646 l 174 385 q 196 263 174 342 q 233 171 218 179 q 349 74 281 97 q 476 57 394 57 q 633 89 578 57 q 728 250 711 133 l 736 572 l 733 799 q 728 879 732 804 q 665 951 725 944 q 758 968 669 963 q 868 975 865 974 q 876 964 876 967 l 849 700 q 844 476 849 625 q 839 254 839 328 q 851 147 839 210 q 869 76 861 90 q 913 42 882 53 q 963 22 957 26 m 314 1126 q 402 1198 357 1147 q 464 1293 447 1249 q 592 1304 492 1285 q 474 1181 557 1238 q 314 1126 382 1119 z "},"Û":{"ha":1136,"x_min":0,"x_max":963,"o":"m 963 22 q 889 15 925 15 q 869 14 890 15 q 840 14 851 13 l 732 -3 q 717 40 717 3 q 717 94 717 68 q 582 31 635 51 q 482 4 558 22 q 365 -15 396 -15 l 321 -15 q 103 54 161 -15 q 46 296 46 124 q 47 385 46 335 l 53 789 q 40 864 47 840 q 0 922 28 910 l 0 933 q 196 960 99 940 l 196 944 q 192 914 196 942 q 186 874 188 886 q 179 772 179 758 l 179 694 q 176 669 179 692 q 174 642 174 646 l 174 385 q 196 263 174 342 q 233 171 218 179 q 349 74 281 97 q 476 57 394 57 q 633 89 578 57 q 728 250 711 133 l 736 572 l 733 799 q 728 879 732 804 q 665 951 725 944 q 758 968 669 963 q 868 975 865 974 q 876 964 876 967 l 849 700 q 844 476 849 625 q 839 254 839 328 q 851 147 839 210 q 869 76 861 90 q 913 42 882 53 q 963 22 957 26 m 410 1271 q 308 1174 383 1224 q 189 1093 194 1099 l 251 1203 q 368 1279 272 1217 q 463 1378 435 1324 q 574 1268 501 1307 q 718 1208 579 1265 l 663 1111 l 521 1169 q 410 1271 447 1208 z "},"Ü":{"ha":1136,"x_min":0,"x_max":963,"o":"m 963 22 q 889 15 925 15 q 869 14 890 15 q 840 14 851 13 l 732 -3 q 717 40 717 3 q 717 94 717 68 q 582 31 635 51 q 482 4 558 22 q 365 -15 396 -15 l 321 -15 q 103 54 161 -15 q 46 296 46 124 q 47 385 46 335 l 53 789 q 40 864 47 840 q 0 922 28 910 l 0 933 q 196 960 99 940 l 196 944 q 192 914 196 942 q 186 874 188 886 q 179 772 179 758 l 179 694 q 176 669 179 692 q 174 642 174 646 l 174 385 q 196 263 174 342 q 233 171 218 179 q 349 74 281 97 q 476 57 394 57 q 633 89 578 57 q 728 250 711 133 l 736 572 l 733 799 q 728 879 732 804 q 665 951 725 944 q 758 968 669 963 q 868 975 865 974 q 876 964 876 967 l 849 700 q 844 476 849 625 q 839 254 839 328 q 851 147 839 210 q 869 76 861 90 q 913 42 882 53 q 963 22 957 26 m 424 1196 q 417 1185 424 1190 q 354 1143 376 1157 q 286 1117 311 1118 q 235 1174 253 1115 q 211 1232 217 1232 q 199 1230 204 1232 q 189 1226 193 1228 q 176 1238 176 1226 q 261 1289 176 1250 q 297 1304 274 1294 q 313 1307 301 1306 q 356 1256 342 1307 q 388 1203 371 1206 q 399 1204 393 1203 l 410 1207 q 424 1196 422 1207 m 729 1196 q 722 1185 729 1190 q 660 1143 682 1157 q 592 1117 617 1118 q 540 1174 558 1115 q 517 1232 522 1232 q 504 1230 510 1232 q 494 1226 499 1228 q 482 1238 482 1226 q 567 1289 482 1250 q 603 1304 579 1294 q 618 1307 607 1306 q 662 1256 647 1307 q 693 1203 676 1206 q 704 1204 699 1203 l 715 1207 q 729 1196 728 1207 z "},"Ý":{"ha":1074,"x_min":0,"x_max":900,"o":"m 899 950 q 860 901 886 935 q 667 621 806 829 q 579 486 635 574 q 556 442 571 472 l 551 251 q 567 26 551 42 q 635 1 571 21 q 633 -3 635 0 q 632 -8 632 -7 l 482 0 l 332 -8 q 369 19 351 6 q 401 65 394 42 q 419 243 419 165 q 411 365 419 339 q 339 486 408 374 q 119 825 257 610 q 78 892 88 876 q 38 943 58 921 q 19 950 32 949 q 0 954 1 953 q 6 965 0 960 l 222 971 q 356 749 289 860 q 538 476 463 574 q 640 651 557 500 q 740 890 740 833 q 661 943 740 944 l 661 956 l 860 956 q 899 950 900 956 m 353 1126 q 441 1198 396 1147 q 503 1293 486 1249 q 631 1304 531 1285 q 513 1181 596 1238 q 353 1126 421 1119 z "},"Ÿ":{"ha":1074,"x_min":0,"x_max":900,"o":"m 899 950 q 860 901 886 935 q 667 621 806 829 q 579 486 635 574 q 556 442 571 472 l 551 251 q 567 26 551 42 q 635 1 571 21 q 633 -3 635 0 q 632 -8 632 -7 l 482 0 l 332 -8 q 369 19 351 6 q 401 65 394 42 q 419 243 419 165 q 411 365 419 339 q 339 486 408 374 q 119 825 257 610 q 78 892 88 876 q 38 943 58 921 q 19 950 32 949 q 0 954 1 953 q 6 965 0 960 l 222 971 q 356 749 289 860 q 538 476 463 574 q 640 651 557 500 q 740 890 740 833 q 661 943 740 944 l 661 956 l 860 956 q 899 950 900 956 m 449 1196 q 442 1185 449 1190 q 379 1143 401 1157 q 311 1117 336 1118 q 260 1174 278 1115 q 236 1232 242 1232 q 224 1230 229 1232 q 214 1226 218 1228 q 201 1238 201 1226 q 286 1289 201 1250 q 322 1304 299 1294 q 338 1307 326 1306 q 381 1256 367 1307 q 413 1203 396 1206 q 424 1204 418 1203 l 435 1207 q 449 1196 447 1207 m 754 1196 q 747 1185 754 1190 q 685 1143 707 1157 q 617 1117 642 1118 q 565 1174 583 1115 q 542 1232 547 1232 q 529 1230 535 1232 q 519 1226 524 1228 q 507 1238 507 1226 q 592 1289 507 1250 q 628 1304 604 1294 q 643 1307 632 1306 q 687 1256 672 1307 q 718 1203 701 1206 q 729 1204 724 1203 l 740 1207 q 754 1196 753 1207 z "},"Ð":{"ha":1257,"x_min":0,"x_max":1083,"o":"m 1083 483 q 892 122 1083 265 q 525 -6 722 -6 q 331 4 463 -6 q 139 10 213 13 q 154 22 138 13 q 176 46 171 32 q 200 361 200 101 l 200 519 q 157 525 181 525 q 0 471 61 525 l 64 582 q 200 624 111 622 l 200 750 q 164 926 200 910 q 111 943 143 929 q 217 949 190 949 q 290 955 243 949 q 356 961 336 961 l 578 968 q 938 832 792 968 q 1083 483 1083 696 m 542 626 l 482 522 q 338 478 390 481 l 336 157 q 344 67 339 126 q 447 40 364 54 q 569 26 529 26 q 831 121 742 26 q 921 389 921 215 q 840 700 921 565 q 542 921 740 863 q 397 947 450 947 q 347 946 344 947 l 339 760 l 338 582 q 381 578 360 578 q 542 626 436 578 z "},"Ž":{"ha":1056,"x_min":0,"x_max":882,"o":"m 531 1224 q 632 1321 557 1271 q 751 1401 746 1396 l 689 1292 q 572 1215 668 1278 q 478 1117 506 1171 q 367 1226 439 1188 q 222 1286 361 1229 l 278 1383 l 419 1325 q 531 1224 493 1286 m 882 113 q 831 13 882 115 q 779 -118 781 -89 l 768 -118 q 773 -78 768 -108 q 778 -46 778 -47 q 701 -1 778 -12 q 619 3 661 0 l 186 6 q 136 0 158 0 l 64 0 q 48 -3 61 0 q 31 -7 35 -7 l 0 -7 q 40 25 3 -1 q 107 85 83 54 q 383 522 225 236 q 607 929 494 725 l 383 918 l 303 918 q 181 905 275 918 q 51 882 86 892 q 47 888 47 882 q 75 918 47 889 q 114 963 103 947 q 147 1014 129 988 q 183 1056 164 1040 q 182 1039 185 1051 q 179 1025 179 1026 q 272 975 179 993 q 397 961 340 961 l 535 958 q 746 969 661 958 q 821 981 831 981 l 832 981 q 835 975 835 981 q 746 856 835 978 q 588 614 644 717 l 279 64 q 342 54 285 54 l 578 54 q 708 68 618 54 q 799 85 790 81 q 835 97 817 92 q 867 121 860 107 l 879 121 q 881 119 879 121 q 882 113 882 117 z "},"Š":{"ha":796,"x_min":0,"x_max":622,"o":"m 364 1224 q 465 1321 390 1271 q 585 1401 579 1396 l 522 1292 q 406 1215 501 1278 q 311 1117 339 1171 q 200 1226 272 1188 q 56 1286 194 1229 l 111 1383 l 253 1325 q 364 1224 326 1286 m 622 286 q 510 54 622 136 q 275 -17 413 -17 q 214 -14 272 -17 q 153 -11 156 -11 q 74 4 142 -11 q 0 26 0 21 q 7 64 0 26 q 19 157 17 107 q 25 204 18 175 q 46 143 28 203 q 165 51 63 90 q 310 19 250 19 q 443 60 388 19 q 507 186 507 106 q 433 349 507 283 q 268 440 382 393 q 99 518 135 496 q 30 596 56 546 q 4 692 4 646 q 135 899 4 819 q 360 963 242 963 l 599 953 l 599 938 q 586 901 599 938 q 570 837 572 861 q 564 764 568 813 q 554 786 556 768 q 550 813 551 810 q 325 929 494 929 q 139 785 139 929 q 217 639 139 692 q 407 543 275 600 q 560 454 518 496 q 622 286 622 393 z "},"š":{"ha":796,"x_min":0,"x_max":622,"o":"m 364 1224 q 465 1321 390 1271 q 585 1401 579 1396 l 522 1292 q 406 1215 501 1278 q 311 1117 339 1171 q 200 1226 272 1188 q 56 1286 194 1229 l 111 1383 l 253 1325 q 364 1224 326 1286 m 622 286 q 510 54 622 136 q 275 -17 413 -17 q 214 -14 272 -17 q 153 -11 156 -11 q 74 4 142 -11 q 0 26 0 21 q 7 64 0 26 q 19 157 17 107 q 25 204 18 175 q 46 143 28 203 q 165 51 63 90 q 310 19 250 19 q 443 60 388 19 q 507 186 507 106 q 433 349 507 283 q 268 440 382 393 q 99 518 135 496 q 30 596 56 546 q 4 692 4 646 q 135 899 4 819 q 360 963 242 963 l 599 953 l 599 938 q 586 901 599 938 q 570 837 572 861 q 564 764 568 813 q 554 786 556 768 q 550 813 551 810 q 325 929 494 929 q 139 785 139 929 q 217 639 139 692 q 407 543 275 600 q 560 454 518 496 q 622 286 622 393 z "},"ž":{"ha":1056,"x_min":0,"x_max":882,"o":"m 531 1224 q 632 1321 557 1271 q 751 1401 746 1396 l 689 1292 q 572 1215 668 1278 q 478 1117 506 1171 q 367 1226 439 1188 q 222 1286 361 1229 l 278 1383 l 419 1325 q 531 1224 493 1286 m 882 113 q 831 13 882 115 q 779 -118 781 -89 l 768 -118 q 773 -78 768 -108 q 778 -46 778 -47 q 701 -1 778 -12 q 619 3 661 0 l 186 6 q 136 0 158 0 l 64 0 q 48 -3 61 0 q 31 -7 35 -7 l 0 -7 q 40 25 3 -1 q 107 85 83 54 q 383 522 225 236 q 607 929 494 725 l 383 918 l 303 918 q 181 905 275 918 q 51 882 86 892 q 47 888 47 882 q 75 918 47 889 q 114 963 103 947 q 147 1014 129 988 q 183 1056 164 1040 q 182 1039 185 1051 q 179 1025 179 1026 q 272 975 179 993 q 397 961 340 961 l 535 958 q 746 969 661 958 q 821 981 831 981 l 832 981 q 835 975 835 981 q 746 856 835 978 q 588 614 644 717 l 279 64 q 342 54 285 54 l 578 54 q 708 68 618 54 q 799 85 790 81 q 835 97 817 92 q 867 121 860 107 l 879 121 q 881 119 879 121 q 882 113 882 117 z "},"à":{"ha":1235,"x_min":0,"x_max":1061,"o":"m 1061 4 l 904 -4 q 763 115 822 -4 q 693 275 728 196 q 601 467 667 343 l 321 467 q 267 394 300 467 q 233 310 250 351 q 178 121 178 179 q 222 44 178 63 q 331 10 276 26 l 146 -11 q 74 -6 125 -11 q 0 -1 22 -1 q 128 165 74 54 q 304 557 183 275 q 438 904 438 869 q 421 941 438 926 q 382 956 404 956 q 369 954 379 956 q 356 954 358 954 q 343 960 349 954 q 359 969 343 967 q 389 974 375 972 l 547 978 q 614 907 579 978 q 651 817 632 863 q 786 461 718 639 q 983 63 890 200 q 1032 21 1000 36 q 1061 4 1060 7 m 594 494 l 594 506 q 500 756 594 508 q 460 835 489 788 l 317 494 l 594 494 m 614 1121 q 454 1176 546 1114 q 336 1299 371 1232 q 464 1289 436 1279 q 526 1193 481 1243 q 614 1121 571 1143 z "},"á":{"ha":1235,"x_min":0,"x_max":1061,"o":"m 1061 4 l 904 -4 q 763 115 822 -4 q 693 275 728 196 q 601 467 667 343 l 321 467 q 267 394 300 467 q 233 310 250 351 q 178 121 178 179 q 222 44 178 63 q 331 10 276 26 l 146 -11 q 74 -6 125 -11 q 0 -1 22 -1 q 128 165 74 54 q 304 557 183 275 q 438 904 438 869 q 421 941 438 926 q 382 956 404 956 q 369 954 379 956 q 356 954 358 954 q 343 960 349 954 q 359 969 343 967 q 389 974 375 972 l 547 978 q 614 907 579 978 q 651 817 632 863 q 786 461 718 639 q 983 63 890 200 q 1032 21 1000 36 q 1061 4 1060 7 m 594 494 l 594 506 q 500 756 594 508 q 460 835 489 788 l 317 494 l 594 494 m 392 1126 q 480 1198 435 1147 q 542 1293 525 1249 q 669 1304 569 1285 q 551 1181 635 1238 q 392 1126 460 1119 z "},"â":{"ha":1235,"x_min":0,"x_max":1061,"o":"m 1061 4 l 904 -4 q 763 115 822 -4 q 693 275 728 196 q 601 467 667 343 l 321 467 q 267 394 300 467 q 233 310 250 351 q 178 121 178 179 q 222 44 178 63 q 331 10 276 26 l 146 -11 q 74 -6 125 -11 q 0 -1 22 -1 q 128 165 74 54 q 304 557 183 275 q 438 904 438 869 q 421 941 438 926 q 382 956 404 956 q 369 954 379 956 q 356 954 358 954 q 343 960 349 954 q 359 969 343 967 q 389 974 375 972 l 547 978 q 614 907 579 978 q 651 817 632 863 q 786 461 718 639 q 983 63 890 200 q 1032 21 1000 36 q 1061 4 1060 7 m 594 494 l 594 506 q 500 756 594 508 q 460 835 489 788 l 317 494 l 594 494 m 458 1274 q 357 1176 432 1226 q 238 1096 243 1101 l 300 1206 q 417 1282 321 1219 q 511 1381 483 1326 q 622 1271 550 1310 q 767 1211 628 1268 l 711 1114 l 569 1172 q 458 1274 496 1211 z "},"ã":{"ha":1235,"x_min":0,"x_max":1061,"o":"m 1061 4 l 904 -4 q 763 115 822 -4 q 693 275 728 196 q 601 467 667 343 l 321 467 q 267 394 300 467 q 233 310 250 351 q 178 121 178 179 q 222 44 178 63 q 331 10 276 26 l 146 -11 q 74 -6 125 -11 q 0 -1 22 -1 q 128 165 74 54 q 304 557 183 275 q 438 904 438 869 q 421 941 438 926 q 382 956 404 956 q 369 954 379 956 q 356 954 358 954 q 343 960 349 954 q 359 969 343 967 q 389 974 375 972 l 547 978 q 614 907 579 978 q 651 817 632 863 q 786 461 718 639 q 983 63 890 200 q 1032 21 1000 36 q 1061 4 1060 7 m 594 494 l 594 506 q 500 756 594 508 q 460 835 489 788 l 317 494 l 594 494 m 774 1274 l 714 1169 q 563 1125 617 1125 q 450 1158 507 1125 q 389 1172 426 1172 q 232 1118 293 1172 l 296 1229 q 438 1271 344 1271 q 500 1258 478 1271 q 613 1225 558 1225 q 774 1274 668 1225 z "},"ä":{"ha":1235,"x_min":0,"x_max":1061,"o":"m 1061 4 l 904 -4 q 763 115 822 -4 q 693 275 728 196 q 601 467 667 343 l 321 467 q 267 394 300 467 q 233 310 250 351 q 178 121 178 179 q 222 44 178 63 q 331 10 276 26 l 146 -11 q 74 -6 125 -11 q 0 -1 22 -1 q 128 165 74 54 q 304 557 183 275 q 438 904 438 869 q 421 941 438 926 q 382 956 404 956 q 369 954 379 956 q 356 954 358 954 q 343 960 349 954 q 359 969 343 967 q 389 974 375 972 l 547 978 q 614 907 579 978 q 651 817 632 863 q 786 461 718 639 q 983 63 890 200 q 1032 21 1000 36 q 1061 4 1060 7 m 594 494 l 594 506 q 500 756 594 508 q 460 835 489 788 l 317 494 l 594 494 m 460 1196 q 453 1185 460 1190 q 390 1143 413 1157 q 322 1117 347 1118 q 271 1174 289 1115 q 247 1232 253 1232 q 235 1230 240 1232 q 225 1226 229 1228 q 213 1238 213 1226 q 297 1289 213 1250 q 333 1304 310 1294 q 349 1307 338 1306 q 392 1256 378 1307 q 424 1203 407 1206 q 435 1204 429 1203 l 446 1207 q 460 1196 458 1207 m 765 1196 q 758 1185 765 1190 q 696 1143 718 1157 q 628 1117 653 1118 q 576 1174 594 1115 q 553 1232 558 1232 q 540 1230 546 1232 q 531 1226 535 1228 q 518 1238 518 1226 q 603 1289 518 1250 q 639 1304 615 1294 q 654 1307 643 1306 q 698 1256 683 1307 q 729 1203 713 1206 q 740 1204 735 1203 l 751 1207 q 765 1196 764 1207 z "},"å":{"ha":1235,"x_min":0,"x_max":1061,"o":"m 704 1336 q 651 1188 704 1251 q 497 1117 592 1117 l 486 1117 q 360 1153 410 1117 q 288 1283 300 1196 q 288 1306 286 1293 q 365 1457 300 1407 q 510 1499 421 1499 q 650 1453 596 1499 q 704 1336 704 1408 m 650 1274 q 600 1411 650 1349 q 456 1481 542 1481 q 364 1443 399 1481 q 332 1356 332 1408 q 367 1247 332 1296 q 468 1163 401 1194 q 540 1143 511 1143 l 551 1143 q 619 1171 590 1143 q 650 1244 649 1200 q 650 1267 650 1257 q 650 1274 650 1274 m 1061 4 l 904 -4 q 763 115 822 -4 q 693 275 728 196 q 601 467 667 343 l 321 467 q 267 394 300 467 q 233 310 250 351 q 178 121 178 179 q 222 44 178 63 q 331 10 276 26 l 146 -11 q 74 -6 125 -11 q 0 -1 22 -1 q 128 165 74 54 q 304 557 183 275 q 438 904 438 869 q 421 941 438 926 q 382 956 404 956 q 369 954 379 956 q 356 954 358 954 q 343 960 349 954 q 359 969 343 967 q 389 974 375 972 l 547 978 q 614 907 579 978 q 651 817 632 863 q 786 461 718 639 q 983 63 890 200 q 1032 21 1000 36 q 1061 4 1060 7 m 594 494 l 594 506 q 500 756 594 508 q 460 835 489 788 l 317 494 l 594 494 z "},"×":{"ha":801,"x_min":0,"x_max":628,"o":"m 521 125 q 401 303 451 232 q 318 413 350 374 l 319 413 q 315 416 317 415 q 310 421 313 417 q 215 298 271 371 q 89 125 160 225 l 0 147 q 126 294 58 214 q 271 469 193 374 q 126 645 197 560 q 0 793 56 731 l 89 813 q 217 641 161 715 q 311 517 272 567 q 313 518 314 518 q 314 519 311 518 l 318 526 q 401 637 350 565 q 521 813 451 708 l 628 786 q 494 637 563 715 q 351 471 426 558 q 494 306 424 386 q 628 154 564 225 l 521 125 z "},"ç":{"ha":1075,"x_min":0,"x_max":901,"o":"m 901 904 q 797 703 833 832 q 792 701 796 703 q 788 700 789 700 q 790 728 790 714 q 661 875 790 817 q 451 921 557 921 q 271 879 350 921 q 151 718 167 825 q 138 679 144 713 q 132 628 132 646 q 133 614 132 632 q 135 560 135 596 q 315 208 154 358 q 651 63 471 63 q 788 85 726 63 q 849 107 849 107 q 864 97 857 107 q 769 51 854 82 q 539 -12 597 -12 q 507 -14 536 -12 q 474 -15 478 -15 q 129 142 268 -15 q 0 488 0 290 q 58 739 0 656 q 272 913 135 850 q 519 968 394 968 q 667 961 518 968 l 901 915 l 901 904 m 757 -239 l 663 13 q 653 -110 664 -78 q 606 -186 636 -153 q 560 -212 576 -219 q 538 -202 543 -207 q 525 -193 532 -197 q 510 -199 514 -189 q 556 -265 504 -214 q 631 -325 608 -317 q 733 -276 679 -343 q 757 -239 746 -260 z "},"è":{"ha":910,"x_min":0,"x_max":736,"o":"m 736 67 q 679 -8 704 43 q 639 -89 658 -49 q 629 -36 638 -69 q 464 0 611 0 l 74 -10 q 92 65 83 6 q 101 165 101 125 l 111 329 l 111 501 q 110 528 111 503 q 108 556 108 553 l 108 643 q 103 775 108 681 q 86 911 96 903 q 43 928 67 926 q 0 931 3 931 q 1 935 0 932 q 3 940 3 939 l 649 963 q 606 875 629 931 q 593 842 601 865 q 588 843 592 842 q 583 844 585 844 q 588 861 588 853 q 549 900 588 885 q 493 914 518 914 q 482 908 485 914 q 326 928 446 928 q 270 923 282 928 q 257 882 258 918 q 256 826 256 854 q 244 607 253 753 q 243 524 244 533 q 365 517 286 517 q 613 557 496 517 q 618 547 618 551 q 599 496 618 544 q 574 431 576 442 q 560 445 567 431 q 547 465 554 460 q 333 494 501 494 q 249 486 319 494 q 242 460 242 475 l 242 151 q 243 128 242 150 q 244 97 244 107 q 249 51 244 71 q 436 32 318 32 l 494 32 q 619 49 538 32 q 722 82 700 67 l 735 79 l 736 67 m 479 1126 q 319 1182 411 1119 q 201 1304 236 1238 q 329 1294 301 1285 q 391 1199 346 1249 q 479 1126 436 1149 z "},"é":{"ha":910,"x_min":0,"x_max":736,"o":"m 736 67 q 679 -8 704 43 q 639 -89 658 -49 q 629 -36 638 -69 q 464 0 611 0 l 74 -10 q 92 65 83 6 q 101 165 101 125 l 111 329 l 111 501 q 110 528 111 503 q 108 556 108 553 l 108 643 q 103 775 108 681 q 86 911 96 903 q 43 928 67 926 q 0 931 3 931 q 1 935 0 932 q 3 940 3 939 l 649 963 q 606 875 629 931 q 593 842 601 865 q 588 843 592 842 q 583 844 585 844 q 588 861 588 853 q 549 900 588 885 q 493 914 518 914 q 482 908 485 914 q 326 928 446 928 q 270 923 282 928 q 257 882 258 918 q 256 826 256 854 q 244 607 253 753 q 243 524 244 533 q 365 517 286 517 q 613 557 496 517 q 618 547 618 551 q 599 496 618 544 q 574 431 576 442 q 560 445 567 431 q 547 465 554 460 q 333 494 501 494 q 249 486 319 494 q 242 460 242 475 l 242 151 q 243 128 242 150 q 244 97 244 107 q 249 51 244 71 q 436 32 318 32 l 494 32 q 619 49 538 32 q 722 82 700 67 l 735 79 l 736 67 m 258 1124 q 347 1195 301 1144 q 408 1290 392 1246 q 536 1301 436 1282 q 418 1178 501 1235 q 258 1124 326 1117 z "},"ê":{"ha":910,"x_min":0,"x_max":736,"o":"m 736 67 q 679 -8 704 43 q 639 -89 658 -49 q 629 -36 638 -69 q 464 0 611 0 l 74 -10 q 92 65 83 6 q 101 165 101 125 l 111 329 l 111 501 q 110 528 111 503 q 108 556 108 553 l 108 643 q 103 775 108 681 q 86 911 96 903 q 43 928 67 926 q 0 931 3 931 q 1 935 0 932 q 3 940 3 939 l 649 963 q 606 875 629 931 q 593 842 601 865 q 588 843 592 842 q 583 844 585 844 q 588 861 588 853 q 549 900 588 885 q 493 914 518 914 q 482 908 485 914 q 326 928 446 928 q 270 923 282 928 q 257 882 258 918 q 256 826 256 854 q 244 607 253 753 q 243 524 244 533 q 365 517 286 517 q 613 557 496 517 q 618 547 618 551 q 599 496 618 544 q 574 431 576 442 q 560 445 567 431 q 547 465 554 460 q 333 494 501 494 q 249 486 319 494 q 242 460 242 475 l 242 151 q 243 128 242 150 q 244 97 244 107 q 249 51 244 71 q 436 32 318 32 l 494 32 q 619 49 538 32 q 722 82 700 67 l 735 79 l 736 67 m 324 1281 q 222 1183 297 1233 q 103 1103 108 1108 l 165 1213 q 282 1289 186 1226 q 376 1388 349 1333 q 488 1278 415 1317 q 632 1218 493 1275 l 576 1121 l 435 1179 q 324 1281 361 1218 z "},"ë":{"ha":910,"x_min":0,"x_max":736,"o":"m 736 67 q 679 -8 704 43 q 639 -89 658 -49 q 629 -36 638 -69 q 464 0 611 0 l 74 -10 q 92 65 83 6 q 101 165 101 125 l 111 329 l 111 501 q 110 528 111 503 q 108 556 108 553 l 108 643 q 103 775 108 681 q 86 911 96 903 q 43 928 67 926 q 0 931 3 931 q 1 935 0 932 q 3 940 3 939 l 649 963 q 606 875 629 931 q 593 842 601 865 q 588 843 592 842 q 583 844 585 844 q 588 861 588 853 q 549 900 588 885 q 493 914 518 914 q 482 908 485 914 q 326 928 446 928 q 270 923 282 928 q 257 882 258 918 q 256 826 256 854 q 244 607 253 753 q 243 524 244 533 q 365 517 286 517 q 613 557 496 517 q 618 547 618 551 q 599 496 618 544 q 574 431 576 442 q 560 445 567 431 q 547 465 554 460 q 333 494 501 494 q 249 486 319 494 q 242 460 242 475 l 242 151 q 243 128 242 150 q 244 97 244 107 q 249 51 244 71 q 436 32 318 32 l 494 32 q 619 49 538 32 q 722 82 700 67 l 735 79 l 736 67 m 311 1199 q 304 1188 311 1193 q 242 1146 264 1160 q 174 1119 199 1121 q 122 1176 140 1118 q 99 1235 104 1235 q 86 1233 92 1235 q 76 1229 81 1231 q 64 1240 64 1229 q 149 1292 64 1253 q 185 1307 161 1297 q 200 1310 189 1308 q 244 1259 229 1310 q 275 1206 258 1208 q 286 1207 281 1206 l 297 1210 q 311 1199 310 1210 m 617 1199 q 610 1188 617 1193 q 547 1146 569 1160 q 479 1119 504 1121 q 428 1176 446 1118 q 404 1235 410 1235 q 392 1233 397 1235 q 382 1229 386 1231 q 369 1240 369 1229 q 454 1292 369 1253 q 490 1307 467 1297 q 506 1310 494 1308 q 549 1259 535 1310 q 581 1206 564 1208 q 592 1207 586 1206 l 603 1210 q 617 1199 615 1210 z "},"ì":{"ha":451,"x_min":0,"x_max":278,"o":"m 272 4 q 267 -7 272 1 l 50 -7 l 75 228 l 81 454 q 79 765 81 767 q 76 800 79 778 q 74 891 75 844 q 35 972 72 938 q 81 974 49 972 q 114 974 117 974 q 202 980 165 974 q 233 986 239 986 l 244 986 q 217 551 222 800 l 214 107 q 219 63 217 85 q 235 19 222 35 q 272 4 235 18 m 278 1118 q 118 1174 210 1111 q 0 1296 35 1229 q 128 1286 100 1276 q 190 1190 144 1240 q 278 1118 235 1140 z "},"í":{"ha":458,"x_min":0,"x_max":285,"o":"m 238 4 q 232 -7 238 1 l 15 -7 l 40 228 l 46 454 q 44 765 46 767 q 42 800 44 778 q 39 891 40 844 q 0 972 38 938 q 46 974 14 972 q 79 974 82 974 q 167 980 131 974 q 199 986 204 986 l 210 986 q 182 551 188 800 l 179 107 q 185 63 182 85 q 200 19 188 35 q 238 4 200 18 m 7 1126 q 95 1198 50 1147 q 157 1293 140 1249 q 285 1304 185 1285 q 167 1181 250 1238 q 7 1126 75 1119 z "},"î":{"ha":703,"x_min":0,"x_max":529,"o":"m 369 4 q 364 -7 369 1 l 147 -7 l 172 228 l 178 454 q 176 765 178 767 q 174 800 176 778 q 171 891 172 844 q 132 972 169 938 q 178 974 146 972 q 211 974 214 974 q 299 980 263 974 q 331 986 336 986 l 342 986 q 314 551 319 800 l 311 107 q 317 63 314 85 q 332 19 319 35 q 369 4 332 18 m 221 1271 q 119 1174 194 1224 q 0 1093 6 1099 l 63 1203 q 179 1279 83 1217 q 274 1378 246 1324 q 385 1268 313 1307 q 529 1208 390 1265 l 474 1111 l 332 1169 q 221 1271 258 1208 z "},"ï":{"ha":726,"x_min":0,"x_max":553,"o":"m 394 4 q 389 -7 394 1 l 172 -7 l 197 228 l 203 454 q 201 765 203 767 q 199 800 201 778 q 196 891 197 844 q 157 972 194 938 q 203 974 171 972 q 236 974 239 974 q 324 980 288 974 q 356 986 361 986 l 367 986 q 339 551 344 800 l 336 107 q 342 63 339 85 q 357 19 344 35 q 394 4 357 18 m 247 1196 q 240 1185 247 1190 q 178 1143 200 1157 q 110 1117 135 1118 q 58 1174 76 1115 q 35 1232 40 1232 q 22 1230 28 1232 q 13 1226 17 1228 q 0 1238 0 1226 q 85 1289 0 1250 q 121 1304 97 1294 q 136 1307 125 1306 q 180 1256 165 1307 q 211 1203 194 1206 q 222 1204 217 1203 l 233 1207 q 247 1196 246 1207 m 553 1196 q 546 1185 553 1190 q 483 1143 506 1157 q 415 1117 440 1118 q 364 1174 382 1115 q 340 1232 346 1232 q 328 1230 333 1232 q 318 1226 322 1228 q 306 1238 306 1226 q 390 1289 306 1250 q 426 1304 403 1294 q 442 1307 431 1306 q 485 1256 471 1307 q 517 1203 500 1206 q 528 1204 522 1203 l 539 1207 q 553 1196 551 1207 z "},"ñ":{"ha":1318,"x_min":0,"x_max":1144,"o":"m 1144 958 q 1088 938 1132 949 q 1019 917 1036 926 q 990 599 990 617 l 990 533 q 975 250 990 499 q 958 -6 967 122 q 950 -8 956 -8 q 879 57 946 -8 q 492 444 631 301 q 190 751 278 664 q 189 304 181 572 q 203 119 189 249 q 210 88 207 94 q 226 67 215 74 q 297 47 261 47 q 371 39 321 47 q 265 17 369 39 q 138 1 189 1 q 32 10 68 1 q 76 42 35 13 q 113 89 104 61 q 142 453 142 193 l 142 531 l 151 700 q 131 838 151 793 q 0 949 99 906 q 253 969 86 958 q 576 575 363 801 q 926 226 658 490 q 931 243 931 232 l 924 457 q 907 763 915 614 q 896 908 906 811 q 878 917 894 917 q 843 915 878 917 q 792 913 808 913 q 867 942 801 919 q 969 967 940 967 l 1144 958 m 815 1265 l 756 1161 q 604 1117 658 1117 q 492 1150 549 1117 q 431 1164 468 1164 q 274 1110 335 1164 l 338 1221 q 479 1263 386 1263 q 542 1250 519 1263 q 654 1217 600 1217 q 815 1265 710 1217 z "},"ò":{"ha":1228,"x_min":0,"x_max":1054,"o":"m 1054 553 q 921 160 1054 328 q 533 -29 772 -29 l 504 -29 q 183 68 310 -29 q 4 411 35 181 q 4 474 0 440 q 200 872 36 740 q 564 985 342 985 q 917 864 781 985 q 1054 553 1054 743 m 918 385 q 790 753 918 588 q 426 935 646 935 q 197 836 282 935 q 117 606 117 744 q 201 317 117 447 q 461 93 290 178 q 639 40 568 40 l 667 40 q 839 114 765 40 q 917 310 915 193 q 918 367 917 344 q 918 385 918 388 m 610 1118 q 450 1174 542 1111 q 332 1296 367 1229 q 460 1286 432 1276 q 522 1190 476 1240 q 610 1118 567 1140 z "},"ó":{"ha":1228,"x_min":0,"x_max":1054,"o":"m 1054 553 q 921 160 1054 328 q 533 -29 772 -29 l 504 -29 q 183 68 310 -29 q 4 411 35 181 q 4 474 0 440 q 200 872 36 740 q 564 985 342 985 q 917 864 781 985 q 1054 553 1054 743 m 918 385 q 790 753 918 588 q 426 935 646 935 q 197 836 282 935 q 117 606 117 744 q 201 317 117 447 q 461 93 290 178 q 639 40 568 40 l 667 40 q 839 114 765 40 q 917 310 915 193 q 918 367 917 344 q 918 385 918 388 m 388 1126 q 476 1198 431 1147 q 538 1293 521 1249 q 665 1304 565 1285 q 547 1181 631 1238 q 388 1126 456 1119 z "},"ô":{"ha":1228,"x_min":0,"x_max":1054,"o":"m 1054 553 q 921 160 1054 328 q 533 -29 772 -29 l 504 -29 q 183 68 310 -29 q 4 411 35 181 q 4 474 0 440 q 200 872 36 740 q 564 985 342 985 q 917 864 781 985 q 1054 553 1054 743 m 918 385 q 790 753 918 588 q 426 935 646 935 q 197 836 282 935 q 117 606 117 744 q 201 317 117 447 q 461 93 290 178 q 639 40 568 40 l 667 40 q 839 114 765 40 q 917 310 915 193 q 918 367 917 344 q 918 385 918 388 m 483 1272 q 382 1175 457 1225 q 263 1094 268 1100 l 325 1204 q 442 1281 346 1218 q 536 1379 508 1325 q 647 1269 575 1308 q 792 1210 653 1267 l 736 1113 l 594 1171 q 483 1272 521 1210 z "},"õ":{"ha":1228,"x_min":0,"x_max":1054,"o":"m 1054 553 q 921 160 1054 328 q 533 -29 772 -29 l 504 -29 q 183 68 310 -29 q 4 411 35 181 q 4 474 0 440 q 200 872 36 740 q 564 985 342 985 q 917 864 781 985 q 1054 553 1054 743 m 918 385 q 790 753 918 588 q 426 935 646 935 q 197 836 282 935 q 117 606 117 744 q 201 317 117 447 q 461 93 290 178 q 639 40 568 40 l 667 40 q 839 114 765 40 q 917 310 915 193 q 918 367 917 344 q 918 385 918 388 m 756 1265 l 696 1161 q 544 1117 599 1117 q 432 1150 489 1117 q 371 1164 408 1164 q 214 1110 275 1164 l 278 1221 q 419 1263 326 1263 q 482 1250 460 1263 q 594 1217 540 1217 q 756 1265 650 1217 z "},"ö":{"ha":1228,"x_min":0,"x_max":1054,"o":"m 1054 553 q 921 160 1054 328 q 533 -29 772 -29 l 504 -29 q 183 68 310 -29 q 4 411 35 181 q 4 474 0 440 q 200 872 36 740 q 564 985 342 985 q 917 864 781 985 q 1054 553 1054 743 m 918 385 q 790 753 918 588 q 426 935 646 935 q 197 836 282 935 q 117 606 117 744 q 201 317 117 447 q 461 93 290 178 q 639 40 568 40 l 667 40 q 839 114 765 40 q 917 310 915 193 q 918 367 917 344 q 918 385 918 388 m 483 1196 q 476 1185 483 1190 q 414 1143 436 1157 q 346 1117 371 1118 q 294 1174 313 1115 q 271 1232 276 1232 q 258 1230 264 1232 q 249 1226 253 1228 q 236 1238 236 1226 q 321 1289 236 1250 q 357 1304 333 1294 q 372 1307 361 1306 q 416 1256 401 1307 q 447 1203 431 1206 q 458 1204 453 1203 l 469 1207 q 483 1196 482 1207 m 789 1196 q 782 1185 789 1190 q 719 1143 742 1157 q 651 1117 676 1118 q 600 1174 618 1115 q 576 1232 582 1232 q 564 1230 569 1232 q 554 1226 558 1228 q 542 1238 542 1226 q 626 1289 542 1250 q 663 1304 639 1294 q 678 1307 667 1306 q 722 1256 707 1307 q 753 1203 736 1206 q 764 1204 758 1203 l 775 1207 q 789 1196 788 1207 z "},"÷":{"ha":1121,"x_min":0,"x_max":947,"o":"m 581 640 q 574 629 581 635 q 511 588 533 601 q 443 561 468 563 q 392 618 410 560 q 368 676 374 676 q 356 674 361 676 q 346 671 350 672 q 333 682 333 671 q 418 733 333 694 q 454 749 431 739 q 469 751 458 750 q 513 701 499 751 q 544 647 528 650 q 556 649 550 647 l 567 651 q 581 640 579 651 m 581 168 q 574 157 581 163 q 511 115 533 129 q 443 89 468 90 q 392 146 410 88 q 368 204 374 204 q 356 202 361 204 q 346 199 350 200 q 333 210 333 199 q 418 261 333 222 q 454 276 431 267 q 469 279 458 278 q 513 228 499 279 q 544 175 528 178 q 556 176 550 175 l 567 179 q 581 168 579 179 m 947 488 l 843 383 q 578 339 672 339 q 381 372 481 339 q 274 386 340 386 q 0 332 107 386 l 111 443 q 360 485 196 485 q 468 472 429 485 q 665 439 571 439 q 947 488 763 439 z "},"ø":{"ha":1228,"x_min":0,"x_max":1054,"o":"m 822 1069 q 764 953 793 1013 q 917 864 850 922 q 1054 553 1054 743 q 921 160 1054 328 q 533 -29 772 -29 l 504 -29 q 328 -6 407 -29 q 260 -178 296 -86 l 172 -142 q 253 24 210 -64 q 183 68 215 43 q 4 411 35 181 q 4 474 0 440 q 200 872 36 740 q 564 985 342 985 q 663 978 615 985 q 717 1122 688 1044 l 822 1069 m 918 385 q 790 753 918 588 q 707 836 751 801 q 529 461 622 661 q 386 135 476 351 q 461 93 421 113 q 639 40 568 40 l 667 40 q 839 114 765 40 q 917 310 915 193 q 918 367 917 344 l 918 385 m 426 935 q 197 836 282 935 q 117 606 117 744 q 201 317 117 447 q 325 178 250 239 q 506 578 408 358 q 629 888 547 675 q 426 935 538 935 z "},"ù":{"ha":1136,"x_min":0,"x_max":963,"o":"m 963 22 q 889 15 925 15 q 869 14 890 15 q 840 14 851 13 l 732 -3 q 717 40 717 3 q 717 94 717 68 q 582 31 635 51 q 482 4 558 22 q 365 -15 396 -15 l 321 -15 q 103 54 161 -15 q 46 296 46 124 q 47 385 46 335 l 53 789 q 40 864 47 840 q 0 922 28 910 l 0 933 q 196 960 99 940 l 196 944 q 192 914 196 942 q 186 874 188 886 q 179 772 179 758 l 179 694 q 176 669 179 692 q 174 642 174 646 l 174 385 q 196 263 174 342 q 233 171 218 179 q 349 74 281 97 q 476 57 394 57 q 633 89 578 57 q 728 250 711 133 l 736 572 l 733 799 q 728 879 732 804 q 665 951 725 944 q 758 968 669 963 q 868 975 865 974 q 876 964 876 967 l 849 700 q 844 476 849 625 q 839 254 839 328 q 851 147 839 210 q 869 76 861 90 q 913 42 882 53 q 963 22 957 26 m 578 1122 q 418 1178 510 1115 q 300 1300 335 1233 q 428 1290 400 1281 q 490 1194 444 1244 q 578 1122 535 1144 z "},"ú":{"ha":1136,"x_min":0,"x_max":963,"o":"m 963 22 q 889 15 925 15 q 869 14 890 15 q 840 14 851 13 l 732 -3 q 717 40 717 3 q 717 94 717 68 q 582 31 635 51 q 482 4 558 22 q 365 -15 396 -15 l 321 -15 q 103 54 161 -15 q 46 296 46 124 q 47 385 46 335 l 53 789 q 40 864 47 840 q 0 922 28 910 l 0 933 q 196 960 99 940 l 196 944 q 192 914 196 942 q 186 874 188 886 q 179 772 179 758 l 179 694 q 176 669 179 692 q 174 642 174 646 l 174 385 q 196 263 174 342 q 233 171 218 179 q 349 74 281 97 q 476 57 394 57 q 633 89 578 57 q 728 250 711 133 l 736 572 l 733 799 q 728 879 732 804 q 665 951 725 944 q 758 968 669 963 q 868 975 865 974 q 876 964 876 967 l 849 700 q 844 476 849 625 q 839 254 839 328 q 851 147 839 210 q 869 76 861 90 q 913 42 882 53 q 963 22 957 26 m 314 1126 q 402 1198 357 1147 q 464 1293 447 1249 q 592 1304 492 1285 q 474 1181 557 1238 q 314 1126 382 1119 z "},"û":{"ha":1136,"x_min":0,"x_max":963,"o":"m 963 22 q 889 15 925 15 q 869 14 890 15 q 840 14 851 13 l 732 -3 q 717 40 717 3 q 717 94 717 68 q 582 31 635 51 q 482 4 558 22 q 365 -15 396 -15 l 321 -15 q 103 54 161 -15 q 46 296 46 124 q 47 385 46 335 l 53 789 q 40 864 47 840 q 0 922 28 910 l 0 933 q 196 960 99 940 l 196 944 q 192 914 196 942 q 186 874 188 886 q 179 772 179 758 l 179 694 q 176 669 179 692 q 174 642 174 646 l 174 385 q 196 263 174 342 q 233 171 218 179 q 349 74 281 97 q 476 57 394 57 q 633 89 578 57 q 728 250 711 133 l 736 572 l 733 799 q 728 879 732 804 q 665 951 725 944 q 758 968 669 963 q 868 975 865 974 q 876 964 876 967 l 849 700 q 844 476 849 625 q 839 254 839 328 q 851 147 839 210 q 869 76 861 90 q 913 42 882 53 q 963 22 957 26 m 410 1271 q 308 1174 383 1224 q 189 1093 194 1099 l 251 1203 q 368 1279 272 1217 q 463 1378 435 1324 q 574 1268 501 1307 q 718 1208 579 1265 l 663 1111 l 521 1169 q 410 1271 447 1208 z "},"ü":{"ha":1136,"x_min":0,"x_max":963,"o":"m 963 22 q 889 15 925 15 q 869 14 890 15 q 840 14 851 13 l 732 -3 q 717 40 717 3 q 717 94 717 68 q 582 31 635 51 q 482 4 558 22 q 365 -15 396 -15 l 321 -15 q 103 54 161 -15 q 46 296 46 124 q 47 385 46 335 l 53 789 q 40 864 47 840 q 0 922 28 910 l 0 933 q 196 960 99 940 l 196 944 q 192 914 196 942 q 186 874 188 886 q 179 772 179 758 l 179 694 q 176 669 179 692 q 174 642 174 646 l 174 385 q 196 263 174 342 q 233 171 218 179 q 349 74 281 97 q 476 57 394 57 q 633 89 578 57 q 728 250 711 133 l 736 572 l 733 799 q 728 879 732 804 q 665 951 725 944 q 758 968 669 963 q 868 975 865 974 q 876 964 876 967 l 849 700 q 844 476 849 625 q 839 254 839 328 q 851 147 839 210 q 869 76 861 90 q 913 42 882 53 q 963 22 957 26 m 424 1196 q 417 1185 424 1190 q 354 1143 376 1157 q 286 1117 311 1118 q 235 1174 253 1115 q 211 1232 217 1232 q 199 1230 204 1232 q 189 1226 193 1228 q 176 1238 176 1226 q 261 1289 176 1250 q 297 1304 274 1294 q 313 1307 301 1306 q 356 1256 342 1307 q 388 1203 371 1206 q 399 1204 393 1203 l 410 1207 q 424 1196 422 1207 m 729 1196 q 722 1185 729 1190 q 660 1143 682 1157 q 592 1117 617 1118 q 540 1174 558 1115 q 517 1232 522 1232 q 504 1230 510 1232 q 494 1226 499 1228 q 482 1238 482 1226 q 567 1289 482 1250 q 603 1304 579 1294 q 618 1307 607 1306 q 662 1256 647 1307 q 693 1203 676 1206 q 704 1204 699 1203 l 715 1207 q 729 1196 728 1207 z "},"ý":{"ha":1074,"x_min":0,"x_max":900,"o":"m 899 950 q 860 901 886 935 q 667 621 806 829 q 579 486 635 574 q 556 442 571 472 l 551 251 q 567 26 551 42 q 635 1 571 21 q 633 -3 635 0 q 632 -8 632 -7 l 482 0 l 332 -8 q 369 19 351 6 q 401 65 394 42 q 419 243 419 165 q 411 365 419 339 q 339 486 408 374 q 119 825 257 610 q 78 892 88 876 q 38 943 58 921 q 19 950 32 949 q 0 954 1 953 q 6 965 0 960 l 222 971 q 356 749 289 860 q 538 476 463 574 q 640 651 557 500 q 740 890 740 833 q 661 943 740 944 l 661 956 l 860 956 q 899 950 900 956 m 353 1126 q 441 1198 396 1147 q 503 1293 486 1249 q 631 1304 531 1285 q 513 1181 596 1238 q 353 1126 421 1119 z "},"ÿ":{"ha":1074,"x_min":0,"x_max":900,"o":"m 899 950 q 860 901 886 935 q 667 621 806 829 q 579 486 635 574 q 556 442 571 472 l 551 251 q 567 26 551 42 q 635 1 571 21 q 633 -3 635 0 q 632 -8 632 -7 l 482 0 l 332 -8 q 369 19 351 6 q 401 65 394 42 q 419 243 419 165 q 411 365 419 339 q 339 486 408 374 q 119 825 257 610 q 78 892 88 876 q 38 943 58 921 q 19 950 32 949 q 0 954 1 953 q 6 965 0 960 l 222 971 q 356 749 289 860 q 538 476 463 574 q 640 651 557 500 q 740 890 740 833 q 661 943 740 944 l 661 956 l 860 956 q 899 950 900 956 m 449 1196 q 442 1185 449 1190 q 379 1143 401 1157 q 311 1117 336 1118 q 260 1174 278 1115 q 236 1232 242 1232 q 224 1230 229 1232 q 214 1226 218 1228 q 201 1238 201 1226 q 286 1289 201 1250 q 322 1304 299 1294 q 338 1307 326 1306 q 381 1256 367 1307 q 413 1203 396 1206 q 424 1204 418 1203 l 435 1207 q 449 1196 447 1207 m 754 1196 q 747 1185 754 1190 q 685 1143 707 1157 q 617 1117 642 1118 q 565 1174 583 1115 q 542 1232 547 1232 q 529 1230 535 1232 q 519 1226 524 1228 q 507 1238 507 1226 q 592 1289 507 1250 q 628 1304 604 1294 q 643 1307 632 1306 q 687 1256 672 1307 q 718 1203 701 1206 q 729 1204 724 1203 l 740 1207 q 754 1196 753 1207 z "},"±":{"ha":947,"x_min":0,"x_max":774,"o":"m 774 233 l 689 140 q 476 101 553 101 q 318 131 399 101 q 232 143 286 143 q 13 96 99 143 l 101 194 q 301 231 169 231 q 388 219 357 231 q 547 190 471 190 q 774 233 625 190 m 769 647 l 685 547 q 469 504 546 504 l 449 504 l 449 357 q 453 331 450 344 q 464 307 454 315 l 490 299 q 486 292 490 296 l 329 292 l 347 426 l 350 521 q 310 536 329 528 q 222 550 276 550 q 0 497 88 550 l 90 604 q 292 644 160 644 q 351 640 326 644 q 350 735 350 735 q 349 756 350 743 q 346 808 347 781 q 318 854 344 835 l 376 854 q 439 858 413 854 q 463 863 463 861 l 469 863 q 450 613 454 756 l 450 610 q 540 600 496 600 q 769 647 619 600 z "},"²":{"ha":721,"x_min":0,"x_max":547,"o":"m 547 511 q 527 486 540 501 q 494 456 514 471 q 438 419 454 419 l 0 422 q 140 545 83 493 q 226 633 197 597 q 368 896 368 785 q 328 996 368 958 q 224 1033 288 1033 q 147 1011 174 1033 q 78 967 104 981 q 183 1072 111 1031 q 251 1107 218 1096 q 313 1118 285 1118 q 419 1076 378 1118 q 460 964 460 1035 q 392 768 460 864 q 257 625 364 728 q 171 506 185 553 l 547 511 z "},"³":{"ha":590,"x_min":0,"x_max":417,"o":"m 417 640 q 215 442 417 508 q 121 418 140 418 q 57 438 100 418 q 21 455 35 446 q 0 471 7 464 q 78 511 39 506 q 167 485 131 494 q 222 476 203 476 q 293 513 254 476 q 332 582 332 549 q 208 750 332 706 l 206 751 q 165 763 196 754 q 92 788 135 772 l 226 854 q 258 896 244 864 q 272 949 272 919 q 149 1053 272 1053 q 85 1039 113 1053 q 61 1026 71 1032 q 44 1018 51 1021 q 31 1011 36 1014 l 26 1013 q 131 1086 56 1054 q 192 1107 163 1100 q 251 1114 222 1114 q 333 1074 300 1114 l 332 1074 q 368 990 368 1036 q 335 910 368 944 l 336 910 q 271 861 317 889 q 246 844 256 851 q 233 831 236 838 q 254 822 240 826 q 288 813 268 818 q 381 748 346 793 q 417 640 417 703 z "},"¹":{"ha":400,"x_min":0,"x_max":226,"o":"m 226 482 q 203 458 215 468 q 181 442 192 449 q 174 440 179 442 q 165 436 168 438 q 144 428 158 433 q 117 417 131 424 q 128 531 124 483 q 132 610 132 578 l 132 931 q 100 1032 132 1032 q 58 1014 101 1032 q 0 996 15 996 q 80 1050 24 1018 q 226 1122 136 1082 l 226 482 z "},"º":{"ha":703,"x_min":0,"x_max":529,"o":"m 529 800 q 482 618 529 706 q 346 467 432 525 q 222 415 274 415 q 147 438 200 415 q 32 568 68 471 q 21 605 26 585 q 10 647 15 625 q 3 692 6 669 q 0 735 0 715 q 17 863 0 801 q 64 978 35 925 q 165 1074 104 1036 q 294 1113 225 1113 q 409 1084 361 1113 q 485 1003 457 1056 q 517 913 506 964 q 529 800 529 863 m 439 735 q 426 839 439 790 q 393 929 414 888 q 213 1036 326 1036 q 110 936 144 1036 q 90 862 96 900 q 83 786 83 824 q 97 694 83 740 q 138 606 111 649 q 307 504 207 504 q 439 735 439 504 z "},"ª":{"ha":1086,"x_min":0,"x_max":913,"o":"m 775 419 q 653 507 701 419 q 637 534 644 519 q 622 563 629 549 q 608 591 615 574 q 593 619 600 608 q 561 680 582 642 q 517 756 540 718 l 282 756 q 238 706 268 756 q 230 688 235 696 q 221 669 225 679 q 215 657 218 663 q 210 644 213 651 q 174 565 186 600 q 161 511 161 531 q 199 458 161 474 q 243 446 225 449 q 267 440 254 443 q 290 433 279 436 l 290 429 l 135 414 q 72 418 115 414 q 33 420 50 419 q 0 421 15 421 q 115 543 71 464 q 176 653 139 583 q 264 824 213 722 q 378 1069 378 1049 q 365 1095 378 1085 q 333 1106 351 1106 q 322 1104 328 1106 l 311 1104 q 297 1108 306 1104 q 311 1118 297 1115 q 338 1122 325 1121 q 406 1124 369 1124 q 474 1126 442 1125 q 531 1074 501 1126 q 539 1058 535 1065 q 547 1042 543 1050 q 555 1025 551 1033 q 563 1008 558 1017 q 620 883 592 946 q 678 756 649 819 q 763 592 721 664 q 843 471 804 519 q 883 443 856 453 q 902 433 894 438 q 913 425 910 428 l 775 419 m 508 781 l 508 786 q 486 839 508 788 q 431 964 464 890 q 417 988 425 975 q 400 1015 410 1000 q 340 897 369 956 q 282 781 310 839 l 508 781 z "},"€":{"ha":1353,"x_min":0,"x_max":1179,"o":"m 542 654 l 482 550 q 417 524 446 533 q 444 421 425 471 q 542 460 486 433 l 482 356 q 476 353 479 354 q 593 208 521 275 q 929 63 749 63 q 1065 85 1004 63 l 1126 107 q 1142 97 1135 107 q 1047 51 1132 82 q 817 -12 875 -12 q 785 -14 814 -12 q 751 -15 756 -15 q 407 142 546 -15 q 306 313 338 221 q 218 344 263 318 q 157 358 194 358 q 0 304 61 358 l 64 415 q 206 457 113 457 q 268 444 246 457 q 279 438 275 440 q 278 488 278 463 l 278 513 q 218 539 249 521 q 157 553 194 553 q 0 499 61 553 l 64 610 q 206 651 113 651 q 268 639 246 651 q 290 626 279 632 q 336 739 306 694 q 550 913 413 850 q 797 968 672 968 q 944 961 796 968 l 1179 915 l 1179 904 q 1075 703 1111 832 q 1070 701 1074 703 q 1065 700 1067 700 q 1068 728 1068 714 q 939 875 1068 817 q 729 921 835 921 q 549 879 628 921 q 429 718 444 825 q 416 679 422 713 q 410 628 410 646 q 411 614 410 631 q 411 608 411 611 q 542 654 463 618 z "},"‰":{"ha":1715,"x_min":0,"x_max":1542,"o":"m 449 667 q 408 479 449 572 q 294 326 367 390 q 190 275 232 275 q 125 296 167 275 q 67 348 93 314 q 26 431 42 382 q 0 601 0 507 q 56 847 0 740 q 250 983 124 983 q 413 874 364 983 q 449 667 449 790 m 372 601 q 332 799 372 711 q 179 907 279 907 q 94 804 124 907 q 78 731 83 768 q 72 653 72 693 q 84 560 72 607 q 118 469 96 514 q 181 392 144 419 q 260 365 217 365 q 372 601 372 365 m 1044 396 q 1006 208 1044 301 q 890 56 964 117 q 788 4 828 4 q 722 25 764 4 q 624 158 654 61 q 604 240 611 196 q 597 329 597 283 q 653 576 597 467 q 846 713 719 713 q 1010 603 960 713 q 1044 396 1044 518 m 969 329 q 929 526 969 439 q 776 635 875 635 q 690 533 719 635 q 668 382 668 463 q 680 289 668 335 q 714 199 692 243 q 856 93 769 93 q 969 329 969 93 m 771 958 q 663 737 718 854 q 544 489 607 619 q 460 298 513 421 q 336 -3 408 175 l 265 28 q 383 275 318 136 q 521 582 447 414 q 586 744 544 638 q 683 1000 628 850 l 771 958 m 1542 396 q 1501 208 1542 300 q 1386 56 1460 117 q 1283 4 1326 4 q 1218 25 1260 4 q 1160 76 1186 43 q 1119 158 1135 110 q 1100 240 1107 196 q 1093 329 1093 283 q 1149 576 1093 467 q 1343 713 1215 713 q 1506 603 1456 713 q 1542 396 1542 519 m 1465 329 q 1425 526 1465 439 q 1272 635 1371 635 q 1188 533 1214 635 q 1165 382 1165 463 q 1177 289 1165 335 q 1210 199 1189 243 q 1353 93 1265 93 q 1465 329 1465 93 z "},"Œ":{"ha":1508,"x_min":0,"x_max":1335,"o":"m 1335 67 q 1278 -8 1303 43 q 1238 -89 1257 -49 q 1228 -36 1236 -69 q 1063 0 1210 0 l 672 -10 q 682 21 678 -1 q 539 -12 581 -12 q 507 -14 536 -12 q 474 -15 478 -15 q 129 142 268 -15 q 0 488 0 290 q 58 739 0 656 q 272 913 135 850 q 519 968 394 968 q 667 961 518 968 l 754 946 l 1247 963 q 1204 875 1228 931 q 1192 842 1200 865 q 1187 843 1190 842 q 1182 844 1183 844 q 1186 861 1186 853 q 1147 900 1186 885 q 1092 914 1117 914 q 1081 908 1083 914 q 925 928 1044 928 q 869 923 881 928 q 856 882 857 918 q 854 826 854 854 q 843 607 851 753 q 842 524 843 533 q 964 517 885 517 q 1211 557 1094 517 q 1217 547 1217 551 q 1197 496 1217 544 q 1172 431 1175 442 q 1159 445 1165 431 q 1146 465 1153 460 q 932 494 1100 494 q 847 486 918 494 q 840 460 840 475 l 840 151 q 842 128 840 150 q 843 97 843 107 q 847 51 843 71 q 1035 32 917 32 l 1093 32 q 1217 49 1136 32 q 1321 82 1299 67 l 1333 79 l 1335 67 m 690 65 q 700 165 700 125 l 710 329 l 710 501 q 708 528 710 503 q 707 556 707 553 l 707 643 q 701 775 707 681 q 696 857 699 825 q 661 875 679 867 q 451 921 557 921 q 271 879 350 921 q 151 718 167 825 q 138 679 144 713 q 132 628 132 646 q 133 614 132 631 q 135 560 135 596 q 315 208 154 358 q 651 63 471 63 q 690 63 674 63 l 690 65 z "},"œ":{"ha":1508,"x_min":0,"x_max":1335,"o":"m 1335 67 q 1278 -8 1303 43 q 1238 -89 1257 -49 q 1228 -36 1236 -69 q 1063 0 1210 0 l 672 -10 q 682 21 678 -1 q 539 -12 581 -12 q 507 -14 536 -12 q 474 -15 478 -15 q 129 142 268 -15 q 0 488 0 290 q 58 739 0 656 q 272 913 135 850 q 519 968 394 968 q 667 961 518 968 l 754 946 l 1247 963 q 1204 875 1228 931 q 1192 842 1200 865 q 1187 843 1190 842 q 1182 844 1183 844 q 1186 861 1186 853 q 1147 900 1186 885 q 1092 914 1117 914 q 1081 908 1083 914 q 925 928 1044 928 q 869 923 881 928 q 856 882 857 918 q 854 826 854 854 q 843 607 851 753 q 842 524 843 533 q 964 517 885 517 q 1211 557 1094 517 q 1217 547 1217 551 q 1197 496 1217 544 q 1172 431 1175 442 q 1159 445 1165 431 q 1146 465 1153 460 q 932 494 1100 494 q 847 486 918 494 q 840 460 840 475 l 840 151 q 842 128 840 150 q 843 97 843 107 q 847 51 843 71 q 1035 32 917 32 l 1093 32 q 1217 49 1136 32 q 1321 82 1299 67 l 1333 79 l 1335 67 m 690 65 q 700 165 700 125 l 710 329 l 710 501 q 708 528 710 503 q 707 556 707 553 l 707 643 q 701 775 707 681 q 696 857 699 825 q 661 875 679 867 q 451 921 557 921 q 271 879 350 921 q 151 718 167 825 q 138 679 144 713 q 132 628 132 646 q 133 614 132 631 q 135 560 135 596 q 315 208 154 358 q 651 63 471 63 q 690 63 674 63 l 690 65 z "},"™":{"ha":1351,"x_min":0,"x_max":1178,"o":"m 482 985 q 467 943 474 964 q 460 903 460 922 l 460 890 q 458 889 460 889 l 453 889 q 442 906 446 889 q 432 929 435 926 q 313 946 424 946 l 306 946 q 294 945 301 946 q 285 944 288 944 q 279 919 281 936 q 276 875 278 903 q 275 853 275 864 q 275 832 275 843 q 274 810 275 821 q 274 789 274 800 l 271 617 l 272 515 q 272 502 272 513 q 274 481 272 492 q 277 465 275 474 q 282 449 279 456 q 303 439 290 443 q 317 435 313 436 q 325 432 322 433 q 329 431 328 431 q 320 425 324 426 q 313 422 317 424 l 232 425 l 222 425 q 204 424 215 425 q 179 422 193 424 q 173 421 176 422 q 167 418 169 419 l 143 419 q 150 429 146 425 q 161 435 154 433 q 168 438 172 438 q 180 480 176 449 q 189 579 183 511 q 190 591 189 586 q 190 603 190 596 l 193 828 q 183 942 193 942 q 111 933 167 942 q 78 928 92 931 q 58 924 65 925 q 55 923 56 924 q 53 922 54 922 q 29 908 43 921 q 19 894 24 901 q 11 879 14 888 l 0 889 l 0 892 q 1 897 0 896 l 8 913 l 8 911 q 13 933 11 922 q 18 951 15 944 q 30 976 25 968 q 43 983 35 983 l 236 976 l 379 976 q 467 986 429 976 l 482 985 m 1178 426 q 1154 424 1172 424 l 1063 418 q 1026 436 1026 418 q 1026 441 1026 438 q 1028 447 1026 444 q 1027 512 1028 476 q 1026 584 1026 547 q 1026 656 1026 621 q 1025 721 1025 692 q 1022 792 1022 757 q 1018 863 1021 826 q 965 746 992 801 q 913 628 939 690 q 801 438 825 438 q 771 483 796 438 q 701 614 746 528 q 615 779 646 719 q 574 857 585 839 q 566 785 568 813 q 564 738 564 757 l 553 569 l 551 569 q 554 557 554 567 q 553 535 554 547 q 560 502 553 519 q 578 471 567 485 q 603 447 589 457 q 633 438 618 438 q 618 425 629 425 l 593 425 q 574 426 581 426 q 565 426 567 426 q 523 424 543 426 q 483 415 503 422 q 490 436 486 422 q 499 463 494 450 q 508 490 506 478 q 513 510 511 501 q 520 562 515 525 q 532 657 525 599 q 545 781 540 731 q 550 863 550 832 q 488 971 550 947 q 513 976 493 976 q 528 976 519 976 q 544 975 536 975 l 564 975 q 592 977 576 976 q 619 979 607 978 q 635 967 629 979 q 676 865 650 924 q 739 735 703 806 q 798 624 771 675 q 846 540 825 572 q 865 577 853 551 q 896 647 876 603 q 929 726 913 688 q 961 803 946 765 q 1014 964 1000 889 q 1026 965 1019 964 q 1038 965 1033 965 q 1084 969 1060 968 q 1125 972 1108 971 q 1115 956 1125 964 q 1108 935 1110 954 q 1106 915 1107 924 q 1106 900 1106 907 l 1107 715 q 1110 646 1108 675 q 1113 597 1111 617 l 1113 585 q 1120 515 1117 547 q 1131 458 1124 483 q 1143 444 1133 447 q 1163 438 1153 440 q 1171 435 1167 436 q 1178 431 1175 433 l 1178 426 z "},"¢":{"ha":1075,"x_min":0,"x_max":901,"o":"m 589 1101 q 568 965 578 1035 q 667 961 604 964 l 901 915 l 901 904 q 797 703 833 832 q 792 701 796 703 q 788 700 789 700 q 790 728 790 714 q 661 875 790 817 q 560 908 610 897 q 500 476 531 708 q 463 106 483 353 q 651 63 553 63 q 788 85 726 63 l 849 107 q 864 97 857 107 q 769 51 854 82 q 539 -12 597 -12 q 507 -14 536 -12 q 474 -15 478 -15 q 451 -14 463 -15 q 440 -172 446 -89 l 353 -164 q 375 -6 364 -89 q 129 142 233 24 q 0 488 0 290 q 58 739 0 656 q 272 913 135 850 q 474 967 372 958 q 482 1119 478 1038 l 589 1101 m 451 921 q 271 879 350 921 q 151 718 167 825 q 138 679 144 713 q 132 628 132 646 q 133 614 132 631 q 135 560 135 596 q 315 208 154 358 q 394 143 354 171 q 446 574 419 338 q 471 921 457 679 l 451 921 z "},"£":{"ha":958,"x_min":0,"x_max":785,"o":"m 542 617 l 482 513 q 383 475 425 486 q 381 386 382 433 l 374 151 q 379 88 374 126 q 394 35 385 38 q 467 28 419 28 l 522 28 q 578 26 575 26 q 774 114 729 26 q 785 104 781 114 q 719 13 733 33 q 679 -85 689 -39 q 629 -33 669 -71 q 574 -12 608 -18 q 313 -3 514 -3 q 269 -6 300 -3 q 215 -8 239 -10 q 231 2 215 -6 q 250 24 246 10 q 264 182 264 68 l 276 410 l 276 475 q 218 501 247 483 q 157 515 194 515 q 0 461 61 515 l 64 572 q 206 614 113 614 q 268 601 246 614 q 276 596 272 599 l 276 672 l 269 761 l 269 821 q 260 910 269 861 q 246 956 251 950 q 221 969 244 957 q 296 978 231 976 q 400 989 371 981 q 396 924 400 971 q 390 853 392 872 q 385 568 390 778 q 542 617 440 569 z "},"¤":{"ha":768,"x_min":-1,"x_max":594,"o":"m 594 501 q 519 282 594 378 q 300 175 433 175 l 283 175 q 104 231 176 175 q 1 422 19 296 q 1 460 -1 440 q 113 683 21 611 l 111 683 q 317 749 190 749 q 517 679 439 749 q 594 501 594 610 m 508 410 q 439 610 508 521 q 240 710 360 710 q 172 695 203 710 q 117 656 140 681 q 87 599 99 632 q 75 532 75 567 q 87 449 75 489 q 121 375 99 410 q 264 253 168 300 q 360 224 322 224 l 374 224 q 465 264 428 224 q 496 310 486 285 q 507 368 506 336 q 507 386 507 378 q 508 400 507 394 l 508 410 z "},"¥":{"ha":1017,"x_min":0,"x_max":843,"o":"m 703 540 l 646 450 q 515 411 563 415 l 514 367 l 514 346 q 550 342 532 342 q 701 385 601 342 l 646 294 q 515 256 564 260 q 526 29 518 38 q 590 8 531 25 q 589 4 590 7 q 588 0 588 1 l 447 7 l 307 0 q 343 24 325 11 q 372 64 365 43 q 386 290 382 251 q 342 297 367 297 q 193 250 251 297 l 254 346 q 386 382 300 382 l 390 382 q 386 444 389 424 q 342 451 367 451 q 193 406 251 451 l 256 501 q 340 533 286 526 q 317 569 329 550 q 110 861 240 676 q 72 919 82 906 q 35 964 54 944 q 18 969 29 968 q 0 974 1 972 q 6 983 0 978 l 207 988 l 332 796 q 501 561 432 646 q 599 713 519 582 q 694 918 693 869 q 618 964 694 965 l 618 975 l 806 975 q 842 969 843 975 q 806 928 831 957 q 622 686 754 867 q 540 569 593 646 q 519 531 533 558 l 518 500 q 551 497 535 497 q 703 540 603 497 z "},"¦":{"ha":321,"x_min":0,"x_max":147,"o":"m 147 1107 q 114 808 128 974 q 108 533 106 721 l 24 533 q 53 853 44 642 q 42 1111 57 922 l 147 1107 m 124 406 q 89 139 104 306 q 85 -168 81 51 l 0 -168 q 29 183 19 -28 q 18 410 32 253 l 124 406 z "},"§":{"ha":718,"x_min":0,"x_max":544,"o":"m 544 460 q 519 336 544 396 q 544 242 544 297 q 446 60 544 124 q 240 4 361 4 q 187 6 238 4 q 133 8 136 8 q 64 21 124 8 q 0 38 0 33 l 6 67 q 17 140 14 101 q 22 176 15 154 q 40 129 24 175 q 144 57 54 88 q 271 32 218 32 q 388 64 339 32 q 443 164 443 100 q 389 282 443 232 l 388 282 l 389 282 q 379 290 383 286 q 235 363 335 325 q 86 422 118 406 q 26 484 49 444 q 4 560 4 524 q 49 669 4 622 q 25 701 36 685 q 4 776 4 740 q 118 939 4 876 q 315 989 211 989 l 524 982 l 524 969 l 513 940 q 499 890 500 910 l 493 833 q 485 850 486 838 q 481 872 482 869 q 285 963 432 963 q 121 850 121 963 q 189 736 121 776 q 356 661 240 706 q 490 590 453 624 q 544 460 544 543 m 189 518 q 356 442 240 488 q 442 404 407 422 q 379 507 432 464 q 235 579 335 543 q 121 624 160 607 q 189 518 125 557 z "},"©":{"ha":764,"x_min":0,"x_max":590,"o":"m 590 740 q 515 522 590 617 q 297 417 431 417 l 281 417 q 183 431 228 417 q 101 468 138 444 q 37 550 64 500 q 1 663 10 600 q 1 699 0 681 q 39 829 10 774 q 111 922 68 885 q 202 967 150 951 q 314 983 254 983 q 423 967 375 983 q 511 915 471 951 l 511 917 q 590 740 590 850 m 506 649 q 447 832 506 746 q 437 811 442 824 q 428 786 432 799 l 413 785 q 417 794 413 790 l 415 794 q 417 799 417 797 q 369 843 417 824 q 293 860 332 860 q 260 856 276 860 q 229 846 244 853 q 189 793 196 828 l 186 790 q 186 781 190 790 q 179 764 182 771 q 182 740 182 761 q 203 675 186 706 q 246 621 221 644 q 303 585 272 597 q 368 572 335 572 q 394 574 383 572 q 417 579 406 576 l 442 586 q 451 579 444 586 q 440 569 447 572 q 425 563 433 567 q 420 560 422 561 q 415 558 418 560 q 363 542 388 549 q 328 536 339 536 l 322 536 q 316 535 319 536 q 310 535 313 535 l 303 535 q 174 593 228 535 q 136 650 150 618 q 122 715 122 682 q 144 804 122 778 q 181 840 160 825 q 226 867 201 856 q 272 881 249 876 q 321 882 296 885 l 321 876 q 333 881 319 876 q 374 885 346 885 l 413 878 q 239 949 338 949 q 115 894 163 949 l 117 894 q 74 771 74 843 q 119 614 74 688 q 180 547 143 579 q 261 492 217 515 q 356 463 319 463 l 371 463 q 464 501 428 463 q 493 548 483 522 q 504 607 503 574 q 504 623 504 615 q 506 638 504 631 l 506 649 z "},"Þ":{"ha":822,"x_min":0,"x_max":649,"o":"m 649 581 q 574 393 649 472 q 476 310 540 365 q 389 253 458 292 q 308 217 315 210 q 394 271 339 235 q 467 371 440 306 q 488 474 488 425 q 407 686 488 593 q 225 779 328 778 q 224 690 224 736 l 221 246 q 218 221 222 235 l 219 36 q 224 -32 224 28 q 290 -129 225 -129 l 319 -129 l 322 -146 l 153 -146 q 107 -156 150 -146 q 61 -167 64 -167 l 49 -167 q 71 -46 67 -112 q 78 99 74 26 l 85 307 l 82 367 l 88 593 l 88 764 q 21 774 31 769 q 0 783 3 781 q 43 790 15 790 q 88 789 90 789 q 86 904 86 904 q 83 939 86 917 q 81 1030 82 983 q 42 1111 79 1076 q 88 1113 56 1111 l 121 1113 q 208 1118 172 1113 q 240 1125 239 1124 l 251 1125 q 226 803 235 982 q 349 808 290 808 q 535 756 446 808 q 649 581 649 690 z "},"þ":{"ha":822,"x_min":0,"x_max":649,"o":"m 649 581 q 574 393 649 472 q 476 310 540 365 q 389 253 458 292 q 308 217 315 210 q 394 271 339 235 q 467 371 440 306 q 488 474 488 425 q 407 686 488 593 q 225 779 328 778 q 224 690 224 736 l 221 246 q 218 221 222 235 l 219 36 q 224 -32 224 28 q 290 -129 225 -129 l 319 -129 l 322 -146 l 153 -146 q 107 -156 150 -146 q 61 -167 64 -167 l 49 -167 q 71 -46 67 -112 q 78 99 74 26 l 85 307 l 82 367 l 88 593 l 88 764 q 21 774 31 769 q 0 783 3 781 q 43 790 15 790 q 88 789 90 789 q 86 904 86 904 q 83 939 86 917 q 81 1030 82 983 q 42 1111 79 1076 q 88 1113 56 1111 l 121 1113 q 208 1118 172 1113 q 240 1125 239 1124 l 251 1125 q 226 803 235 982 q 349 808 290 808 q 535 756 446 808 q 649 581 649 690 z "},"Æ":{"ha":1638,"x_min":0,"x_max":1464,"o":"m 1464 67 q 1407 -8 1432 43 q 1367 -89 1386 -49 q 1357 -36 1365 -69 q 1192 0 1339 0 l 801 -10 q 820 65 811 6 q 829 165 829 125 l 839 329 l 839 467 l 500 467 q 418 394 479 467 q 353 310 385 351 q 224 121 246 179 q 239 44 201 63 q 335 10 286 26 l 143 -11 q 72 -6 122 -11 q 0 -1 22 -1 q 192 165 96 54 q 518 557 289 275 q 785 904 771 869 q 782 941 793 926 q 749 956 771 956 q 736 954 746 956 l 722 954 q 711 960 715 954 q 731 969 714 967 q 763 974 749 972 l 922 978 q 954 944 943 978 l 1376 963 q 1333 875 1357 931 q 1321 842 1329 865 q 1316 843 1319 842 q 1311 844 1313 844 q 1315 861 1315 853 q 1276 900 1315 885 q 1221 914 1246 914 q 1210 908 1213 914 q 1054 928 1174 928 q 998 923 1010 928 q 985 882 986 918 q 983 826 983 854 q 972 607 981 753 q 971 499 972 508 q 1093 492 1014 492 q 1340 532 1224 492 q 1346 522 1346 526 q 1326 471 1346 519 q 1301 406 1304 417 q 1288 420 1294 406 q 1275 440 1282 435 q 1061 469 1229 469 q 976 461 1047 469 q 969 435 969 450 l 969 151 q 971 128 969 150 q 972 97 972 107 q 976 51 972 71 q 1164 32 1046 32 l 1222 32 q 1347 49 1265 32 q 1450 82 1428 67 l 1463 79 l 1464 67 m 839 501 q 838 528 839 503 q 836 556 836 553 l 836 643 q 831 775 836 681 q 822 874 826 840 l 507 494 l 839 494 l 839 501 z "},"æ":{"ha":1638,"x_min":0,"x_max":1464,"o":"m 1464 67 q 1407 -8 1432 43 q 1367 -89 1386 -49 q 1357 -36 1365 -69 q 1192 0 1339 0 l 801 -10 q 820 65 811 6 q 829 165 829 125 l 839 329 l 839 467 l 500 467 q 418 394 479 467 q 353 310 385 351 q 224 121 246 179 q 239 44 201 63 q 335 10 286 26 l 143 -11 q 72 -6 122 -11 q 0 -1 22 -1 q 192 165 96 54 q 518 557 289 275 q 785 904 771 869 q 782 941 793 926 q 749 956 771 956 q 736 954 746 956 l 722 954 q 711 960 715 954 q 731 969 714 967 q 763 974 749 972 l 922 978 q 954 944 943 978 l 1376 963 q 1333 875 1357 931 q 1321 842 1329 865 q 1316 843 1319 842 q 1311 844 1313 844 q 1315 861 1315 853 q 1276 900 1315 885 q 1221 914 1246 914 q 1210 908 1213 914 q 1054 928 1174 928 q 998 923 1010 928 q 985 882 986 918 q 983 826 983 854 q 972 607 981 753 q 971 499 972 508 q 1093 492 1014 492 q 1340 532 1224 492 q 1346 522 1346 526 q 1326 471 1346 519 q 1301 406 1304 417 q 1288 420 1294 406 q 1275 440 1282 435 q 1061 469 1229 469 q 976 461 1047 469 q 969 435 969 450 l 969 151 q 971 128 969 150 q 972 97 972 107 q 976 51 972 71 q 1164 32 1046 32 l 1222 32 q 1347 49 1265 32 q 1450 82 1428 67 l 1463 79 l 1464 67 m 839 501 q 838 528 839 503 q 836 556 836 553 l 836 643 q 831 775 836 681 q 822 874 826 840 l 507 494 l 839 494 l 839 501 z "},"¾":{"ha":1436,"x_min":0,"x_max":1263,"o":"m 458 478 q 239 263 458 333 q 133 238 156 238 q 64 258 115 238 q 0 296 17 276 q 85 338 38 328 q 244 301 206 301 q 324 339 279 301 q 365 414 365 376 q 331 526 365 481 q 231 596 296 572 q 192 609 225 599 q 104 636 160 619 l 251 710 q 271 726 263 715 q 286 754 279 738 q 300 811 300 782 q 165 924 300 924 q 94 910 121 924 q 51 887 67 894 q 33 878 36 879 l 29 881 q 143 961 65 929 q 278 990 214 990 q 365 947 326 990 q 395 903 385 928 q 406 856 406 879 q 368 769 406 807 q 299 717 347 746 q 257 682 264 694 q 279 675 264 679 q 317 664 294 671 q 421 594 383 643 q 458 478 458 546 m 1263 254 q 1163 200 1214 213 q 1051 192 1126 192 l 1051 140 l 1053 88 q 1036 31 1053 43 q 1010 16 1022 24 q 985 1 997 8 l 953 1 l 953 192 q 615 204 800 192 q 588 186 607 201 l 588 217 q 653 319 603 257 q 685 358 667 335 q 726 411 703 381 q 780 488 747 442 q 853 593 813 533 q 859 603 856 599 q 867 614 863 608 q 957 710 908 671 q 1058 764 1006 749 l 1058 276 q 1072 256 1058 257 q 1101 253 1078 253 q 1169 255 1129 253 q 1261 260 1208 257 l 1263 254 m 953 265 l 953 613 q 827 447 889 528 q 701 281 765 365 l 706 281 l 706 269 q 724 275 715 275 q 769 271 738 275 q 817 267 799 267 l 953 265 m 850 958 q 742 737 799 854 q 625 489 686 619 q 540 298 593 421 q 417 -3 488 175 l 344 28 q 463 275 399 136 q 601 582 526 414 q 666 744 625 638 q 764 1000 707 850 l 850 958 z "},"½":{"ha":1290,"x_min":0,"x_max":1117,"o":"m 285 303 q 228 258 251 268 q 199 250 221 257 q 146 232 178 243 q 161 353 157 301 q 165 439 165 404 l 165 783 q 126 892 165 892 q 75 874 124 892 q 34 860 51 865 q 0 853 17 856 q 285 990 56 897 l 285 303 m 1117 92 q 1061 33 1103 69 q 1001 -3 1018 -3 l 536 -1 q 691 135 629 79 q 781 221 753 192 q 890 367 851 297 q 928 496 928 438 q 885 601 928 563 q 778 639 843 639 q 731 633 753 639 q 693 615 708 626 q 652 587 669 599 q 622 569 635 575 q 669 629 640 601 q 732 681 697 657 q 869 728 807 728 q 982 683 940 728 q 1024 567 1024 639 q 953 361 1024 458 q 899 301 938 342 q 811 211 861 260 q 751 143 778 176 q 718 86 724 110 l 1117 92 m 751 958 q 525 489 646 750 q 440 298 493 421 q 317 -3 388 175 l 244 28 q 363 275 299 136 q 501 582 426 414 q 566 744 525 638 q 664 1000 607 850 l 751 958 z "},"¼":{"ha":1357,"x_min":0,"x_max":1183,"o":"m 285 303 q 228 258 251 268 q 199 250 221 257 q 146 232 178 243 q 161 353 157 301 q 165 439 165 404 l 165 783 q 126 892 165 892 q 75 874 124 892 q 34 860 51 865 q 0 853 17 856 q 285 990 56 897 l 285 303 m 1183 254 q 1082 200 1138 213 q 972 192 1049 192 l 972 88 q 957 31 972 42 q 930 16 943 24 q 904 1 917 8 l 874 1 l 874 192 q 536 204 721 192 q 508 186 528 201 l 508 217 q 533 262 515 236 q 574 319 550 288 q 606 358 586 335 q 649 411 625 382 q 706 496 672 444 q 786 614 740 547 q 979 764 872 733 l 979 276 q 993 256 979 257 q 1024 253 1001 253 q 1090 255 1051 253 q 1182 260 1129 257 l 1183 254 m 874 265 l 874 613 q 747 447 808 528 q 621 281 686 365 l 625 281 l 625 268 q 646 275 636 275 q 692 271 660 275 q 738 267 718 267 l 874 265 m 747 958 q 639 737 694 854 q 521 489 583 619 q 437 298 489 421 q 313 -3 385 175 l 242 28 q 359 275 294 136 q 497 582 424 414 q 563 744 521 638 q 660 1000 604 850 l 747 958 z "},"‹":{"ha":688,"x_min":0,"x_max":514,"o":"m 158 497 q 361 331 283 440 l 478 118 l 339 49 q 206 265 211 257 q 0 432 86 360 q 142 560 53 460 q 294 735 267 703 l 514 828 q 353 649 503 819 q 158 497 253 536 z "},"¶":{"ha":1092,"x_min":0,"x_max":918,"o":"m 640 -162 q 635 -174 640 -165 l 418 -174 l 429 228 l 433 264 q 300 258 364 258 q 114 311 203 258 q 0 486 0 376 q 75 674 0 594 q 172 750 108 701 q 260 807 190 768 q 382 857 375 864 q 254 789 351 839 q 182 696 208 754 q 161 593 161 642 q 242 381 161 474 q 426 288 322 288 q 433 293 431 288 l 435 315 l 435 340 l 435 343 q 432 372 432 369 l 432 440 l 429 667 l 429 688 l 428 751 q 428 781 426 767 q 425 846 425 794 q 358 943 424 943 l 329 943 l 326 960 l 496 960 q 542 970 499 960 q 588 981 585 981 l 600 981 q 578 860 582 926 q 571 715 575 788 l 569 596 l 569 583 l 569 578 q 571 413 572 507 l 582 -60 l 588 -104 q 603 -147 590 -132 q 640 -162 603 -149 m 918 -162 q 913 -174 918 -165 l 696 -174 l 707 228 l 710 264 l 714 315 l 714 340 l 714 343 q 713 372 711 369 l 710 440 l 707 667 l 707 688 l 706 751 q 706 781 704 767 q 703 846 703 794 q 636 943 701 943 l 607 943 l 604 960 l 774 960 q 819 970 776 960 q 865 981 863 981 l 878 981 q 856 860 860 926 q 849 715 853 788 l 847 596 l 847 583 l 847 578 q 849 413 850 507 l 860 -60 l 865 -104 q 881 -147 868 -132 q 918 -162 881 -149 z "},"µ":{"ha":1136,"x_min":0,"x_max":963,"o":"m 238 -162 q 232 -174 238 -165 l 15 -174 l 40 61 l 46 288 l 46 296 q 47 385 46 335 l 53 789 q 40 864 47 840 q 0 922 28 910 l 0 933 q 196 960 99 940 l 196 944 q 192 914 196 942 q 186 874 188 886 q 179 771 181 778 l 179 694 q 176 669 179 692 q 174 642 174 646 l 174 385 q 196 263 174 342 q 233 171 218 179 q 349 74 281 97 q 476 57 394 57 q 633 89 578 57 q 728 250 711 133 l 736 572 l 733 799 q 728 879 732 804 q 665 951 725 944 q 758 968 669 963 q 868 975 865 974 q 876 964 876 967 l 849 700 q 844 476 849 625 q 839 254 839 328 q 851 147 839 210 q 869 76 861 90 q 913 42 882 53 q 963 22 957 26 q 889 15 925 15 q 869 14 890 15 q 840 14 851 13 l 732 -3 q 717 40 717 3 l 717 94 q 582 31 635 51 q 482 4 558 22 q 365 -15 396 -15 l 321 -15 q 175 6 232 -15 l 179 -60 l 185 -104 q 200 -147 188 -132 q 238 -162 200 -149 z "},"°":{"ha":768,"x_min":-1,"x_max":594,"o":"m 594 735 q 519 514 594 610 q 300 407 433 407 l 283 407 q 104 464 176 407 q 1 656 21 526 q 1 692 -1 672 q 113 917 21 843 l 111 917 q 317 981 192 981 q 517 913 439 981 q 594 735 594 842 m 508 643 q 439 843 508 753 q 240 942 361 942 q 117 888 164 942 q 87 832 99 864 q 75 764 75 800 q 121 607 75 681 q 180 540 144 571 q 264 486 215 510 q 360 457 322 457 l 374 457 q 465 496 426 457 q 496 543 486 517 q 507 600 506 569 q 507 618 507 610 q 508 633 507 626 l 508 643 z "},"®":{"ha":774,"x_min":0,"x_max":600,"o":"m 456 576 q 421 571 453 574 q 415 570 418 571 q 404 569 411 569 q 363 586 381 569 q 348 605 357 592 q 329 633 339 618 q 324 641 326 636 q 321 649 322 646 q 310 665 313 660 q 297 685 303 676 q 285 699 292 693 q 244 708 275 708 q 242 706 242 708 l 242 621 q 264 578 242 578 q 274 572 269 578 q 254 568 263 568 l 235 568 l 222 568 q 217 569 219 568 q 199 568 210 569 q 174 564 189 567 l 172 569 q 181 574 179 572 q 186 579 183 576 l 185 579 q 189 631 189 585 l 193 694 l 193 726 l 193 738 q 194 745 193 742 q 194 750 194 749 l 194 782 l 193 843 q 182 888 193 861 l 181 889 q 178 890 179 889 q 175 891 175 890 q 174 892 175 892 l 172 892 l 171 896 q 185 899 179 899 l 211 900 q 227 900 218 900 q 247 901 236 900 l 299 904 q 333 900 317 904 q 363 889 350 896 q 403 824 403 864 q 398 797 403 811 q 386 771 393 782 q 372 753 382 764 q 350 731 361 742 q 340 721 340 725 q 346 714 340 719 q 347 711 344 715 q 353 704 350 707 q 360 690 356 697 q 369 676 365 683 q 376 665 372 669 q 384 651 379 658 q 394 636 389 644 q 399 631 397 635 q 403 625 400 628 q 425 594 413 601 q 440 583 433 586 l 439 583 q 456 579 451 583 l 456 576 m 346 786 q 340 817 346 801 q 322 851 333 833 q 291 880 307 869 q 260 890 275 890 l 247 890 q 246 804 247 846 q 244 718 244 763 l 274 718 q 336 736 319 718 q 346 786 346 742 m 600 746 q 525 522 600 618 q 303 414 439 414 l 288 414 q 104 469 174 414 q 1 665 18 532 q 1 701 0 682 q 38 835 10 779 q 114 929 67 890 q 322 992 190 992 q 433 975 383 992 q 521 922 482 958 q 600 746 600 851 m 518 650 q 446 857 518 764 q 243 960 367 960 q 115 904 161 960 q 81 848 93 879 q 69 776 69 817 q 118 614 69 686 q 264 488 165 538 q 319 466 294 474 q 363 458 343 458 l 378 458 q 431 469 407 458 q 475 499 456 479 q 517 610 515 543 q 517 626 517 618 q 518 640 517 635 l 518 650 z "},"Ø":{"ha":1228,"x_min":0,"x_max":1054,"o":"m 822 1069 q 764 953 793 1013 q 917 864 850 922 q 1054 553 1054 743 q 921 160 1054 328 q 533 -29 772 -29 l 504 -29 q 328 -6 407 -29 q 260 -178 296 -86 l 172 -142 q 253 24 210 -64 q 183 68 215 43 q 4 411 35 181 q 4 474 0 440 q 200 872 36 740 q 564 985 342 985 q 663 978 615 985 q 717 1122 688 1044 l 822 1069 m 918 385 q 790 753 918 588 q 707 836 751 801 q 529 461 622 661 q 386 135 476 351 q 461 93 421 113 q 639 40 568 40 l 667 40 q 839 114 765 40 q 917 310 915 193 q 918 367 917 344 l 918 385 m 426 935 q 197 836 282 935 q 117 606 117 744 q 201 317 117 447 q 325 178 250 239 q 506 578 408 358 q 629 888 547 675 q 426 935 538 935 z "},"ð":{"ha":1257,"x_min":0,"x_max":1083,"o":"m 1083 483 q 892 122 1083 265 q 525 -6 722 -6 q 331 4 463 -6 q 139 10 213 13 q 154 22 138 13 q 176 46 171 32 q 200 361 200 101 l 200 519 q 157 525 181 525 q 0 471 61 525 l 64 582 q 200 624 111 622 l 200 750 q 164 926 200 910 q 111 943 143 929 q 217 949 190 949 q 290 955 243 949 q 356 961 336 961 l 578 968 q 938 832 792 968 q 1083 483 1083 696 m 542 626 l 482 522 q 338 478 390 481 l 336 157 q 344 67 339 126 q 447 40 364 54 q 569 26 529 26 q 831 121 742 26 q 921 389 921 215 q 840 700 921 565 q 542 921 740 863 q 397 947 450 947 q 347 946 344 947 l 339 760 l 338 582 q 381 578 360 578 q 542 626 436 578 z "},"¿":{"ha":829,"x_min":35,"x_max":656,"o":"m 35 275 q 99 455 35 356 q 244 600 163 554 q 285 622 261 610 q 318 651 310 639 q 331 708 331 679 l 331 725 q 451 793 331 757 q 475 778 454 785 l 478 704 q 393 528 478 600 q 240 406 375 511 q 160 210 160 324 q 181 107 160 139 q 283 60 206 60 q 474 124 397 60 q 551 282 551 189 q 515 382 551 342 q 421 454 493 406 q 578 365 506 435 q 656 224 656 293 q 581 59 656 122 q 385 -4 506 -4 q 150 87 265 -4 q 35 275 35 178 m 336 886 q 363 949 336 918 q 428 979 390 979 q 485 917 485 979 q 463 851 485 879 q 397 818 438 818 q 358 826 386 818 q 336 886 336 854 z "},"$":{"ha":796,"x_min":0,"x_max":622,"o":"m 353 1101 q 333 961 343 1033 q 360 963 346 963 l 385 961 q 390 1118 388 1035 l 492 1101 q 471 958 482 1032 l 599 953 l 599 938 l 586 901 q 569 836 572 861 l 564 764 q 554 786 556 768 q 550 813 551 810 q 464 900 521 871 q 419 538 442 731 q 560 454 519 493 q 622 286 622 393 q 510 54 622 136 q 372 -7 449 10 q 361 -174 367 -85 l 279 -168 q 299 -15 289 -96 q 275 -17 286 -17 q 233 -14 272 -17 q 222 -174 228 -89 l 140 -168 q 160 -11 150 -94 l 153 -11 q 74 4 142 -11 q 0 26 0 21 l 7 64 q 19 157 17 107 q 25 204 18 175 q 46 143 28 203 q 165 51 63 90 l 168 50 q 211 464 189 235 q 99 518 126 500 q 30 596 56 546 q 4 692 4 646 q 135 899 4 819 q 244 946 189 931 q 251 1118 247 1025 l 353 1101 m 443 60 q 507 186 507 106 q 433 349 507 283 q 401 372 419 360 q 375 26 390 239 q 443 60 413 38 m 303 19 q 344 404 324 193 q 269 439 311 422 q 236 29 254 299 q 303 19 272 19 m 329 929 q 288 597 308 774 q 360 563 319 582 q 361 572 360 567 q 382 925 372 679 q 329 929 357 929 m 139 785 q 217 639 139 692 q 226 632 221 635 q 243 919 236 736 q 139 785 139 893 z "},"(":{"ha":433,"x_min":0,"x_max":260,"o":"m 14 488 q 186 1115 0 829 q 99 632 99 828 q 103 569 99 597 q 260 111 121 388 l 147 0 q 82 168 110 88 q 14 488 18 361 z "},")":{"ha":433,"x_min":0,"x_max":260,"o":"m 246 503 q 74 -125 260 161 q 161 358 161 163 q 157 421 161 393 q 0 879 139 603 l 113 990 q 178 822 150 903 q 246 503 242 629 z "},"@":{"ha":1150,"x_min":0,"x_max":976,"o":"m 781 247 q 668 325 715 247 q 652 353 660 340 q 640 375 644 365 l 642 375 q 628 398 632 389 q 619 415 624 407 l 615 424 q 585 481 603 451 q 550 540 568 511 l 347 540 q 311 499 338 540 l 313 500 q 310 492 310 492 q 308 489 310 492 q 299 474 300 478 q 297 467 299 471 q 296 464 296 465 q 294 461 296 463 l 296 463 q 292 455 293 458 q 289 444 290 451 q 258 376 269 406 q 246 332 246 347 q 276 292 246 304 l 275 292 q 282 290 279 290 q 289 288 285 289 q 301 283 296 285 q 314 281 307 282 q 327 278 321 279 q 343 274 333 276 l 374 257 l 217 242 q 195 242 208 242 q 165 244 182 242 q 189 215 176 229 q 219 186 201 201 q 285 142 247 163 q 369 104 322 122 q 476 78 422 88 q 579 68 531 68 q 792 121 703 68 l 799 114 l 717 42 q 529 -7 636 -7 q 311 32 419 -7 q 146 121 206 67 q 84 193 111 153 q 38 282 57 233 l 38 281 q 0 474 0 369 q 35 660 0 575 q 138 807 71 744 q 170 835 153 821 q 201 864 188 850 q 357 953 265 922 q 546 983 449 983 q 846 882 732 983 q 942 740 908 824 q 976 568 976 656 q 944 419 976 482 q 854 319 913 357 q 846 315 851 317 q 836 310 840 313 l 842 304 q 879 278 853 285 q 899 265 890 272 q 914 251 908 257 l 781 247 m 196 363 q 249 458 217 397 q 325 607 281 518 q 426 818 426 806 q 416 838 426 831 q 392 844 406 844 l 372 844 q 366 845 369 844 q 356 849 363 846 q 369 863 356 858 q 396 869 382 868 q 427 871 411 871 q 458 872 443 871 q 488 873 474 872 q 515 874 501 874 q 571 822 540 874 q 576 811 574 814 q 580 804 579 808 q 583 797 581 800 q 596 774 590 783 q 599 768 601 765 q 624 713 610 744 q 649 658 638 682 q 674 603 661 631 q 700 549 686 576 q 758 433 729 485 q 810 344 786 382 q 822 349 817 347 q 831 354 828 351 l 829 354 q 899 546 899 436 q 866 692 899 625 q 771 817 833 760 q 647 887 718 861 q 488 913 575 913 q 182 822 308 913 l 183 822 q 78 528 78 704 q 114 339 78 432 q 124 316 118 328 q 138 290 131 304 q 170 324 156 306 q 196 363 185 343 m 539 578 q 517 624 536 585 q 471 724 499 664 q 462 744 467 735 q 453 760 457 753 q 403 667 426 711 q 357 574 381 622 l 539 578 z "},"%":{"ha":1218,"x_min":0,"x_max":1044,"o":"m 449 667 q 408 479 449 572 q 294 326 367 390 q 190 275 232 275 q 125 296 167 275 q 67 348 93 314 q 26 431 42 382 q 0 601 0 507 q 56 847 0 740 q 250 983 124 983 q 413 874 364 983 q 449 667 449 790 m 372 601 q 332 799 372 711 q 179 907 279 907 q 94 804 124 907 q 78 731 83 768 q 72 653 72 693 q 84 560 72 607 q 118 469 96 514 q 181 392 144 419 q 260 365 217 365 q 372 601 372 365 m 1044 396 q 1006 208 1044 301 q 890 56 964 117 q 788 4 828 4 q 722 25 764 4 q 624 158 654 61 q 604 240 611 196 q 597 329 597 283 q 653 576 597 467 q 846 713 719 713 q 1010 603 960 713 q 1044 396 1044 518 m 969 329 q 929 526 969 439 q 776 635 875 635 q 690 533 719 635 q 668 382 668 463 q 680 289 668 335 q 714 199 692 243 q 856 93 769 93 q 969 329 969 93 m 771 958 q 663 737 718 854 q 544 489 607 619 q 460 298 513 421 q 336 -3 408 175 l 265 28 q 383 275 318 136 q 521 582 447 414 q 586 744 544 638 q 683 1000 628 850 l 771 958 z "},"ß":{"ha":1168,"x_min":0,"x_max":994,"o":"m 363 940 q 407 957 365 940 l 407 958 q 475 972 438 968 q 550 979 506 979 q 635 975 586 979 q 769 949 740 964 q 828 894 807 929 q 850 825 850 860 q 744 678 850 738 l 664 650 q 585 554 585 626 q 650 453 585 490 l 649 453 q 713 422 672 439 q 810 385 753 404 q 891 351 857 367 q 942 321 925 336 q 994 199 994 275 q 899 33 994 93 q 693 -17 815 -17 q 676 -16 688 -17 q 646 -14 665 -15 q 611 -12 626 -12 q 594 -12 596 -12 q 540 -4 586 -12 q 534 -3 538 -3 q 526 -1 531 -3 q 463 15 463 10 l 468 42 q 479 108 478 76 q 483 143 478 125 q 491 131 485 143 q 504 99 497 118 q 604 35 517 63 q 670 17 640 24 q 726 11 700 11 q 785 20 756 11 q 839 40 815 29 q 893 131 893 75 q 831 243 893 193 q 772 276 808 258 q 692 308 735 293 q 599 342 636 328 q 547 364 563 357 q 489 419 511 385 q 467 489 467 454 q 579 638 467 581 l 601 646 q 633 658 614 651 q 675 672 651 664 q 717 710 700 685 q 738 768 735 735 q 728 840 738 808 q 703 888 718 871 q 680 901 692 894 q 660 914 668 908 q 644 920 653 917 q 628 926 636 924 q 538 946 575 942 q 528 947 535 947 l 504 949 q 447 940 476 949 q 393 919 417 931 l 376 907 q 372 897 374 903 q 368 888 369 890 q 349 689 349 807 l 349 617 q 348 599 349 610 q 344 575 347 588 q 344 483 344 535 q 343 379 343 432 q 342 275 343 326 q 342 182 342 224 q 347 138 344 160 q 351 92 349 115 q 394 7 358 32 q 350 1 381 -1 q 318 4 326 4 q 306 4 310 4 l 297 4 q 288 6 292 6 q 258 3 279 6 q 203 -6 238 0 l 203 8 l 203 11 q 204 17 203 14 q 210 44 207 28 q 215 72 214 61 q 220 144 218 103 q 222 231 222 185 l 225 515 q 218 519 222 515 q 158 533 193 533 q 3 479 63 533 l 0 481 l 65 593 q 207 633 113 633 q 217 633 211 633 q 226 632 222 633 l 226 686 q 228 713 226 693 q 236 765 231 733 q 237 770 236 768 q 238 775 238 772 q 239 786 238 782 q 333 926 251 874 q 363 940 344 933 z "}," ":{"ha":833,"x_min":0,"x_max":0,"o":""}}}
